%FSLAX44Y44*%
%MOMM*%
G71*
G01*
G75*
G04 Layer_Color=8388736*
%ADD10C,0.1524*%
%ADD11C,0.1524*%
%ADD12C,0.9672*%
%ADD13R,1.5240X0.4064*%
%ADD14C,1.5000*%
%ADD15R,0.6000X1.5500*%
%ADD16R,1.0500X0.3500*%
%ADD17R,0.3500X1.0500*%
%ADD18R,3.2500X3.2500*%
%ADD19R,1.1500X0.6000*%
%ADD20R,0.5000X0.4500*%
%ADD21R,1.2500X2.0500*%
%ADD22R,0.6000X1.1000*%
%ADD23R,1.1500X0.4000*%
%ADD24R,0.6000X1.0500*%
%ADD25O,1.6000X0.3000*%
%ADD26O,0.3000X1.6000*%
%ADD27R,5.0000X5.0000*%
%ADD28R,0.8636X1.2700*%
%ADD29R,2.5000X2.5000*%
%ADD30O,1.2000X0.4000*%
%ADD31R,1.5500X1.0000*%
%ADD32R,0.6000X0.6000*%
%ADD33R,1.2700X3.4290*%
%ADD34R,0.6000X0.7000*%
%ADD35R,0.9000X1.0000*%
%ADD36R,1.3000X1.2000*%
%ADD37R,0.7000X0.8000*%
%ADD38R,2.2860X1.9050*%
%ADD39R,0.7620X0.9652*%
%ADD40R,2.7000X1.3500*%
%ADD41R,0.6000X0.6500*%
%ADD42R,3.4500X0.9500*%
%ADD43R,0.7000X0.3000*%
%ADD44R,0.3000X0.7000*%
%ADD45R,2.9500X2.9500*%
%ADD46R,0.8890X1.2954*%
%ADD47R,1.1938X1.2954*%
%ADD48C,1.0000*%
%ADD49R,1.3500X2.7000*%
%ADD50R,0.6500X0.6000*%
%ADD51R,0.9500X3.4500*%
G04:AMPARAMS|DCode=52|XSize=0.65mm|YSize=0.6mm|CornerRadius=0mm|HoleSize=0mm|Usage=FLASHONLY|Rotation=315.000|XOffset=0mm|YOffset=0mm|HoleType=Round|Shape=Rectangle|*
%AMROTATEDRECTD52*
4,1,4,-0.4419,0.0177,-0.0177,0.4419,0.4419,-0.0177,0.0177,-0.4419,-0.4419,0.0177,0.0*
%
%ADD52ROTATEDRECTD52*%

G04:AMPARAMS|DCode=53|XSize=0.65mm|YSize=0.6mm|CornerRadius=0mm|HoleSize=0mm|Usage=FLASHONLY|Rotation=45.000|XOffset=0mm|YOffset=0mm|HoleType=Round|Shape=Rectangle|*
%AMROTATEDRECTD53*
4,1,4,-0.0177,-0.4419,-0.4419,-0.0177,0.0177,0.4419,0.4419,0.0177,-0.0177,-0.4419,0.0*
%
%ADD53ROTATEDRECTD53*%

%ADD54R,0.9652X0.7620*%
%ADD55P,0.8485X4X90.0*%
%ADD56P,0.8485X4X360.0*%
%ADD57R,0.6000X0.6000*%
%ADD58R,1.0500X0.6000*%
%ADD59R,3.2500X3.2500*%
%ADD60C,0.3000*%
%ADD61C,0.5000*%
%ADD62C,0.5080*%
%ADD63C,0.3048*%
%ADD64C,0.3500*%
%ADD65C,0.4001*%
%ADD66C,0.3500*%
%ADD67C,0.3000*%
%ADD68C,0.2540*%
%ADD69C,0.4501*%
%ADD70C,0.4432*%
%ADD71C,0.3810*%
%ADD72C,0.6000*%
%ADD73C,0.5999*%
%ADD74C,0.4433*%
%ADD75C,0.2851*%
%ADD76C,0.8636*%
%ADD77C,0.4521*%
%ADD78C,0.2845*%
%ADD79C,0.1270*%
%ADD80C,0.6350*%
%ADD81C,1.5240*%
%ADD82C,1.0500*%
%ADD83C,6.3500*%
%ADD84C,0.6500*%
%ADD85C,0.5500*%
%ADD86C,3.3020*%
%ADD87C,0.5099*%
%ADD88C,0.5499*%
%ADD89C,1.0000*%
%ADD90C,1.9160*%
%ADD91C,1.6160*%
%ADD92C,1.2660*%
%ADD93C,2.2160*%
%ADD94C,4.8160*%
%ADD95C,3.2160*%
%ADD96C,0.5001*%
%ADD97O,0.3302X1.6510*%
%ADD98C,0.2000*%
%ADD99C,0.3302*%
%ADD100C,0.2500*%
%ADD101C,0.2300*%
%ADD102C,0.2499*%
%ADD103C,0.1000*%
%ADD104R,0.8000X0.9000*%
%ADD105R,1.6440X0.5264*%
%ADD106C,3.5000*%
%ADD107R,0.7000X1.6500*%
%ADD108R,1.1700X0.4700*%
%ADD109R,0.4700X1.1700*%
%ADD110R,3.3700X3.3700*%
%ADD111R,1.2700X0.7200*%
%ADD112R,0.6200X0.5700*%
%ADD113R,1.3700X2.1700*%
%ADD114R,0.7200X1.2200*%
%ADD115R,1.2700X0.5200*%
%ADD116R,0.7200X1.1700*%
%ADD117O,1.7200X0.4200*%
%ADD118O,0.4200X1.7200*%
%ADD119R,5.1200X5.1200*%
%ADD120R,0.9836X1.3900*%
%ADD121R,2.6200X2.6200*%
%ADD122O,1.3200X0.5200*%
%ADD123R,1.6700X1.1200*%
%ADD124R,0.7000X0.7000*%
%ADD125R,1.3716X3.5306*%
%ADD126R,0.7200X0.8200*%
%ADD127R,1.0200X1.1200*%
%ADD128R,1.4200X1.3200*%
%ADD129R,2.4060X2.0250*%
%ADD130R,0.8820X1.0852*%
%ADD131R,2.8000X1.4500*%
%ADD132R,0.7000X0.7500*%
%ADD133R,3.5700X1.0700*%
%ADD134R,0.8200X0.4200*%
%ADD135R,0.4200X0.8200*%
%ADD136R,3.0700X3.0700*%
%ADD137R,1.0090X1.4154*%
%ADD138R,1.3138X1.4154*%
%ADD139C,2.5000*%
%ADD140R,1.4500X2.8000*%
%ADD141R,0.7500X0.7000*%
%ADD142R,1.0700X3.5700*%
G04:AMPARAMS|DCode=143|XSize=0.75mm|YSize=0.7mm|CornerRadius=0mm|HoleSize=0mm|Usage=FLASHONLY|Rotation=315.000|XOffset=0mm|YOffset=0mm|HoleType=Round|Shape=Rectangle|*
%AMROTATEDRECTD143*
4,1,4,-0.5127,0.0177,-0.0177,0.5127,0.5127,-0.0177,0.0177,-0.5127,-0.5127,0.0177,0.0*
%
%ADD143ROTATEDRECTD143*%

G04:AMPARAMS|DCode=144|XSize=0.75mm|YSize=0.7mm|CornerRadius=0mm|HoleSize=0mm|Usage=FLASHONLY|Rotation=45.000|XOffset=0mm|YOffset=0mm|HoleType=Round|Shape=Rectangle|*
%AMROTATEDRECTD144*
4,1,4,-0.0177,-0.5127,-0.5127,-0.0177,0.0177,0.5127,0.5127,0.0177,-0.0177,-0.5127,0.0*
%
%ADD144ROTATEDRECTD144*%

%ADD145R,1.0852X0.8820*%
%ADD146P,0.9900X4X90.0*%
%ADD147P,0.9900X4X360.0*%
%ADD148R,0.7000X0.7000*%
%ADD149R,1.1700X0.7200*%
%ADD150R,3.3700X3.3700*%
%ADD151C,0.7550*%
%ADD152C,1.6440*%
%ADD153C,1.1700*%
%ADD154C,6.4700*%
%ADD155C,0.6699*%
G36*
X19470Y884598D02*
X19545D01*
X19645Y884586D01*
X19857Y884548D01*
X20095Y884498D01*
X20370Y884411D01*
X20632Y884298D01*
X20895Y884148D01*
X20907D01*
X20920Y884123D01*
X20957Y884098D01*
X21007Y884061D01*
X21132Y883961D01*
X21282Y883811D01*
X21444Y883623D01*
X21620Y883411D01*
X21782Y883149D01*
X21932Y882849D01*
Y882836D01*
X21944Y882811D01*
X21969Y882761D01*
X21982Y882699D01*
X22019Y882624D01*
X22044Y882536D01*
X22069Y882424D01*
X22107Y882311D01*
X22169Y882036D01*
X22232Y881736D01*
X22269Y881386D01*
X22282Y881024D01*
Y881012D01*
Y880974D01*
Y880924D01*
Y880849D01*
X22269Y880749D01*
X22257Y880637D01*
X22244Y880524D01*
X22232Y880387D01*
X22182Y880087D01*
X22119Y879762D01*
X22019Y879425D01*
X21894Y879100D01*
Y879087D01*
X21882Y879062D01*
X21857Y879025D01*
X21819Y878962D01*
X21782Y878887D01*
X21732Y878812D01*
X21607Y878625D01*
X21444Y878412D01*
X21257Y878187D01*
X21032Y877987D01*
X20770Y877800D01*
X20757D01*
X20732Y877775D01*
X20695Y877762D01*
X20645Y877725D01*
X20582Y877700D01*
X20495Y877663D01*
X20307Y877575D01*
X20082Y877487D01*
X19820Y877425D01*
X19533Y877375D01*
X19233Y877350D01*
X19133D01*
X19020Y877363D01*
X18883Y877387D01*
X18720Y877412D01*
X18533Y877450D01*
X18358Y877513D01*
X18170Y877600D01*
X18145Y877613D01*
X18095Y877650D01*
X18008Y877700D01*
X17908Y877775D01*
X17783Y877862D01*
X17658Y877975D01*
X17533Y878087D01*
X17408Y878225D01*
Y874838D01*
X16233D01*
Y884461D01*
X17308D01*
Y883548D01*
X17321Y883573D01*
X17371Y883636D01*
X17458Y883723D01*
X17558Y883848D01*
X17683Y883973D01*
X17820Y884098D01*
X17983Y884223D01*
X18158Y884336D01*
X18183Y884348D01*
X18245Y884373D01*
X18345Y884423D01*
X18483Y884473D01*
X18658Y884523D01*
X18858Y884573D01*
X19083Y884598D01*
X19320Y884611D01*
X19408D01*
X19470Y884598D01*
D02*
G37*
G36*
X64509Y884586D02*
X64658Y884561D01*
X64846Y884511D01*
X65058Y884448D01*
X65271Y884348D01*
X65508Y884223D01*
X65096Y883136D01*
X65071Y883149D01*
X65021Y883174D01*
X64933Y883211D01*
X64821Y883261D01*
X64696Y883311D01*
X64546Y883348D01*
X64384Y883373D01*
X64221Y883386D01*
X64159D01*
X64084Y883373D01*
X63984Y883361D01*
X63884Y883324D01*
X63759Y883286D01*
X63646Y883223D01*
X63521Y883149D01*
X63509Y883136D01*
X63471Y883111D01*
X63421Y883049D01*
X63359Y882974D01*
X63284Y882886D01*
X63209Y882774D01*
X63146Y882649D01*
X63084Y882499D01*
Y882486D01*
X63071Y882474D01*
Y882436D01*
X63059Y882386D01*
X63021Y882261D01*
X62996Y882099D01*
X62959Y881886D01*
X62921Y881661D01*
X62909Y881399D01*
X62896Y881124D01*
Y877500D01*
X61722D01*
Y884461D01*
X62784D01*
Y883399D01*
X62796Y883423D01*
X62821Y883461D01*
X62846Y883511D01*
X62934Y883636D01*
X63021Y883786D01*
X63134Y883961D01*
X63259Y884123D01*
X63396Y884261D01*
X63521Y884373D01*
X63534Y884386D01*
X63584Y884411D01*
X63659Y884448D01*
X63746Y884498D01*
X63859Y884536D01*
X63996Y884573D01*
X64134Y884598D01*
X64283Y884611D01*
X64384D01*
X64509Y884586D01*
D02*
G37*
G36*
X44976Y877500D02*
X43801D01*
Y887110D01*
X44976D01*
Y877500D01*
D02*
G37*
G36*
X52412D02*
X51312D01*
Y878387D01*
X51299Y878375D01*
X51287Y878337D01*
X51237Y878287D01*
X51187Y878225D01*
X51124Y878150D01*
X51037Y878062D01*
X50937Y877962D01*
X50824Y877875D01*
X50687Y877775D01*
X50550Y877675D01*
X50387Y877588D01*
X50212Y877513D01*
X50025Y877450D01*
X49812Y877400D01*
X49600Y877363D01*
X49362Y877350D01*
X49275D01*
X49225Y877363D01*
X49150D01*
X49062Y877375D01*
X48863Y877412D01*
X48625Y877462D01*
X48363Y877538D01*
X48088Y877650D01*
X47825Y877800D01*
X47813D01*
X47800Y877825D01*
X47763Y877850D01*
X47713Y877887D01*
X47588Y877987D01*
X47438Y878137D01*
X47263Y878312D01*
X47088Y878537D01*
X46913Y878787D01*
X46750Y879075D01*
Y879087D01*
X46738Y879112D01*
X46713Y879162D01*
X46688Y879225D01*
X46663Y879299D01*
X46638Y879387D01*
X46601Y879500D01*
X46563Y879624D01*
X46501Y879899D01*
X46438Y880224D01*
X46388Y880574D01*
X46376Y880962D01*
Y880974D01*
Y881012D01*
Y881062D01*
Y881137D01*
X46388Y881236D01*
Y881337D01*
X46401Y881461D01*
X46413Y881587D01*
X46463Y881886D01*
X46513Y882199D01*
X46601Y882524D01*
X46713Y882849D01*
Y882861D01*
X46726Y882886D01*
X46750Y882936D01*
X46775Y882986D01*
X46813Y883061D01*
X46863Y883136D01*
X46975Y883336D01*
X47125Y883536D01*
X47300Y883761D01*
X47513Y883961D01*
X47750Y884148D01*
X47763D01*
X47788Y884173D01*
X47825Y884186D01*
X47875Y884223D01*
X47938Y884261D01*
X48013Y884298D01*
X48213Y884386D01*
X48438Y884461D01*
X48700Y884536D01*
X49000Y884586D01*
X49312Y884611D01*
X49412D01*
X49537Y884598D01*
X49687Y884573D01*
X49862Y884548D01*
X50050Y884498D01*
X50237Y884423D01*
X50425Y884336D01*
X50450Y884323D01*
X50512Y884286D01*
X50599Y884236D01*
X50712Y884148D01*
X50837Y884048D01*
X50974Y883936D01*
X51112Y883798D01*
X51237Y883648D01*
Y887110D01*
X52412D01*
Y877500D01*
D02*
G37*
G36*
X55372Y170180D02*
X0D01*
Y206248D01*
X55372D01*
Y170180D01*
D02*
G37*
G36*
X642620Y99060D02*
X0D01*
Y165100D01*
X45720D01*
Y132080D01*
X609600D01*
Y246380D01*
X642620Y279400D01*
Y99060D01*
D02*
G37*
G36*
X31154Y887260D02*
X31254D01*
X31379Y887247D01*
X31517Y887235D01*
X31804Y887185D01*
X32117Y887122D01*
X32442Y887035D01*
X32754Y886923D01*
X32767D01*
X32792Y886910D01*
X32829Y886885D01*
X32892Y886860D01*
X33042Y886773D01*
X33217Y886660D01*
X33429Y886523D01*
X33629Y886348D01*
X33841Y886135D01*
X34016Y885898D01*
Y885885D01*
X34041Y885873D01*
X34054Y885835D01*
X34091Y885785D01*
X34116Y885723D01*
X34154Y885648D01*
X34241Y885461D01*
X34329Y885236D01*
X34404Y884986D01*
X34466Y884698D01*
X34491Y884398D01*
X33266Y884311D01*
Y884323D01*
Y884348D01*
X33254Y884398D01*
X33242Y884461D01*
X33229Y884536D01*
X33204Y884623D01*
X33142Y884823D01*
X33054Y885036D01*
X32942Y885260D01*
X32792Y885486D01*
X32592Y885673D01*
X32567Y885698D01*
X32529Y885710D01*
X32492Y885748D01*
X32429Y885785D01*
X32354Y885823D01*
X32267Y885860D01*
X32179Y885910D01*
X32067Y885948D01*
X31942Y885985D01*
X31804Y886023D01*
X31654Y886060D01*
X31492Y886098D01*
X31317Y886110D01*
X31130Y886135D01*
X30742D01*
X30642Y886123D01*
X30542Y886110D01*
X30292Y886085D01*
X30017Y886035D01*
X29742Y885960D01*
X29480Y885848D01*
X29355Y885785D01*
X29255Y885710D01*
X29230Y885685D01*
X29167Y885635D01*
X29093Y885548D01*
X28993Y885423D01*
X28893Y885273D01*
X28818Y885098D01*
X28755Y884898D01*
X28730Y884686D01*
Y884661D01*
Y884598D01*
X28755Y884511D01*
X28780Y884386D01*
X28818Y884248D01*
X28880Y884111D01*
X28968Y883973D01*
X29093Y883836D01*
X29118Y883823D01*
X29142Y883798D01*
X29180Y883786D01*
X29230Y883748D01*
X29293Y883711D01*
X29380Y883673D01*
X29467Y883636D01*
X29592Y883586D01*
X29730Y883523D01*
X29880Y883474D01*
X30055Y883411D01*
X30255Y883348D01*
X30480Y883286D01*
X30730Y883223D01*
X31005Y883161D01*
X31017D01*
X31067Y883149D01*
X31154Y883124D01*
X31254Y883099D01*
X31379Y883074D01*
X31529Y883036D01*
X31679Y882999D01*
X31854Y882949D01*
X32204Y882861D01*
X32554Y882761D01*
X32717Y882699D01*
X32879Y882649D01*
X33017Y882599D01*
X33129Y882549D01*
X33142D01*
X33166Y882536D01*
X33204Y882511D01*
X33266Y882474D01*
X33416Y882399D01*
X33604Y882286D01*
X33804Y882136D01*
X34004Y881974D01*
X34204Y881774D01*
X34366Y881562D01*
Y881549D01*
X34379Y881536D01*
X34404Y881499D01*
X34429Y881461D01*
X34491Y881337D01*
X34579Y881174D01*
X34654Y880974D01*
X34716Y880737D01*
X34766Y880487D01*
X34779Y880199D01*
Y880187D01*
Y880162D01*
Y880124D01*
X34766Y880074D01*
Y879999D01*
X34754Y879924D01*
X34729Y879737D01*
X34666Y879512D01*
X34591Y879275D01*
X34479Y879012D01*
X34329Y878762D01*
Y878750D01*
X34304Y878737D01*
X34279Y878700D01*
X34254Y878650D01*
X34141Y878525D01*
X34004Y878375D01*
X33829Y878212D01*
X33616Y878037D01*
X33354Y877862D01*
X33066Y877712D01*
X33054D01*
X33029Y877700D01*
X32979Y877675D01*
X32929Y877650D01*
X32842Y877625D01*
X32754Y877600D01*
X32654Y877562D01*
X32529Y877525D01*
X32267Y877462D01*
X31954Y877400D01*
X31604Y877350D01*
X31230Y877337D01*
X31105D01*
X31017Y877350D01*
X30905D01*
X30767Y877363D01*
X30630Y877375D01*
X30467Y877387D01*
X30130Y877425D01*
X29755Y877500D01*
X29392Y877588D01*
X29043Y877712D01*
X29030D01*
X29005Y877725D01*
X28955Y877750D01*
X28893Y877787D01*
X28830Y877825D01*
X28743Y877875D01*
X28543Y878000D01*
X28318Y878162D01*
X28093Y878362D01*
X27868Y878600D01*
X27668Y878862D01*
Y878875D01*
X27643Y878900D01*
X27618Y878937D01*
X27593Y879000D01*
X27555Y879075D01*
X27506Y879150D01*
X27468Y879249D01*
X27418Y879362D01*
X27318Y879624D01*
X27231Y879912D01*
X27168Y880249D01*
X27143Y880599D01*
X28343Y880699D01*
Y880687D01*
Y880662D01*
X28355Y880624D01*
Y880574D01*
X28380Y880449D01*
X28418Y880274D01*
X28468Y880087D01*
X28543Y879887D01*
X28630Y879687D01*
X28730Y879500D01*
X28743Y879474D01*
X28793Y879425D01*
X28868Y879337D01*
X28968Y879237D01*
X29105Y879112D01*
X29267Y878987D01*
X29467Y878862D01*
X29692Y878750D01*
X29705D01*
X29717Y878737D01*
X29755Y878725D01*
X29805Y878712D01*
X29867Y878687D01*
X29942Y878662D01*
X30130Y878612D01*
X30342Y878562D01*
X30592Y878512D01*
X30867Y878487D01*
X31167Y878475D01*
X31292D01*
X31430Y878487D01*
X31604Y878500D01*
X31792Y878525D01*
X32017Y878562D01*
X32229Y878612D01*
X32442Y878687D01*
X32454D01*
X32467Y878700D01*
X32529Y878725D01*
X32629Y878775D01*
X32754Y878837D01*
X32892Y878925D01*
X33029Y879025D01*
X33166Y879137D01*
X33279Y879275D01*
X33291Y879287D01*
X33317Y879337D01*
X33366Y879425D01*
X33416Y879525D01*
X33466Y879649D01*
X33516Y879787D01*
X33541Y879937D01*
X33554Y880099D01*
Y880124D01*
Y880174D01*
X33541Y880262D01*
X33516Y880362D01*
X33491Y880487D01*
X33441Y880624D01*
X33366Y880762D01*
X33279Y880887D01*
X33266Y880899D01*
X33229Y880949D01*
X33166Y881012D01*
X33079Y881087D01*
X32954Y881174D01*
X32804Y881262D01*
X32629Y881361D01*
X32417Y881449D01*
X32392Y881461D01*
X32342Y881474D01*
X32292Y881499D01*
X32229Y881512D01*
X32154Y881536D01*
X32054Y881562D01*
X31954Y881599D01*
X31829Y881624D01*
X31692Y881661D01*
X31529Y881711D01*
X31354Y881749D01*
X31154Y881799D01*
X30942Y881849D01*
X30705Y881911D01*
X30692D01*
X30642Y881924D01*
X30580Y881949D01*
X30492Y881961D01*
X30380Y881999D01*
X30267Y882024D01*
X29980Y882111D01*
X29680Y882199D01*
X29367Y882311D01*
X29093Y882411D01*
X28968Y882474D01*
X28855Y882524D01*
X28843D01*
X28830Y882536D01*
X28793Y882561D01*
X28743Y882586D01*
X28618Y882661D01*
X28468Y882774D01*
X28305Y882899D01*
X28130Y883049D01*
X27968Y883223D01*
X27830Y883411D01*
Y883423D01*
X27818Y883436D01*
X27780Y883511D01*
X27730Y883611D01*
X27668Y883761D01*
X27605Y883936D01*
X27555Y884148D01*
X27518Y884373D01*
X27506Y884611D01*
Y884623D01*
Y884648D01*
Y884686D01*
X27518Y884736D01*
X27531Y884873D01*
X27555Y885061D01*
X27605Y885273D01*
X27680Y885498D01*
X27780Y885735D01*
X27918Y885973D01*
Y885985D01*
X27943Y885998D01*
X27993Y886073D01*
X28093Y886198D01*
X28218Y886335D01*
X28393Y886485D01*
X28593Y886648D01*
X28843Y886798D01*
X29118Y886935D01*
X29130D01*
X29155Y886948D01*
X29193Y886973D01*
X29255Y886985D01*
X29330Y887010D01*
X29418Y887048D01*
X29517Y887073D01*
X29630Y887110D01*
X29892Y887160D01*
X30192Y887223D01*
X30530Y887260D01*
X30880Y887272D01*
X31054D01*
X31154Y887260D01*
D02*
G37*
G36*
X28692Y8750D02*
X27544D01*
X26656Y11076D01*
X23442D01*
X22603Y8750D01*
X21535D01*
X24460Y16426D01*
X25568D01*
X28692Y8750D01*
D02*
G37*
G36*
X17582Y16416D02*
X17772D01*
X17991Y16396D01*
X18221Y16376D01*
X18441Y16346D01*
X18630Y16307D01*
X18640D01*
X18660Y16296D01*
X18700Y16287D01*
X18740Y16277D01*
X18800Y16257D01*
X18870Y16237D01*
X19020Y16187D01*
X19199Y16107D01*
X19389Y16017D01*
X19578Y15897D01*
X19758Y15757D01*
X19768Y15747D01*
X19788Y15738D01*
X19818Y15708D01*
X19858Y15668D01*
X19908Y15618D01*
X19968Y15558D01*
X20028Y15488D01*
X20097Y15408D01*
X20247Y15218D01*
X20397Y14989D01*
X20547Y14739D01*
X20666Y14450D01*
Y14440D01*
X20677Y14410D01*
X20696Y14370D01*
X20716Y14310D01*
X20736Y14230D01*
X20766Y14140D01*
X20796Y14041D01*
X20826Y13921D01*
X20846Y13791D01*
X20876Y13651D01*
X20906Y13501D01*
X20926Y13342D01*
X20966Y12992D01*
X20976Y12623D01*
Y12613D01*
Y12583D01*
Y12543D01*
Y12473D01*
X20966Y12404D01*
Y12314D01*
X20956Y12214D01*
X20946Y12104D01*
X20926Y11864D01*
X20886Y11605D01*
X20836Y11335D01*
X20766Y11076D01*
Y11066D01*
X20756Y11046D01*
X20746Y11006D01*
X20726Y10966D01*
X20707Y10906D01*
X20687Y10836D01*
X20627Y10687D01*
X20557Y10507D01*
X20467Y10317D01*
X20357Y10128D01*
X20247Y9958D01*
X20237Y9938D01*
X20187Y9888D01*
X20127Y9808D01*
X20038Y9708D01*
X19938Y9599D01*
X19818Y9479D01*
X19678Y9369D01*
X19539Y9259D01*
X19519Y9249D01*
X19469Y9219D01*
X19389Y9169D01*
X19279Y9119D01*
X19149Y9059D01*
X18989Y8990D01*
X18810Y8930D01*
X18620Y8880D01*
X18610D01*
X18600Y8870D01*
X18570D01*
X18530Y8860D01*
X18480Y8850D01*
X18420Y8840D01*
X18271Y8820D01*
X18091Y8790D01*
X17881Y8770D01*
X17642Y8760D01*
X17392Y8750D01*
X14627D01*
Y16426D01*
X17492D01*
X17582Y16416D01*
D02*
G37*
G36*
X13040Y15518D02*
X8518D01*
Y13182D01*
X12751D01*
Y12274D01*
X8518D01*
Y9658D01*
X13220D01*
Y8750D01*
X7500D01*
Y16426D01*
X13040D01*
Y15518D01*
D02*
G37*
G36*
X11822Y884598D02*
X11947Y884586D01*
X12084Y884561D01*
X12247Y884536D01*
X12422Y884498D01*
X12597Y884448D01*
X12784Y884373D01*
X12984Y884298D01*
X13184Y884211D01*
X13384Y884098D01*
X13571Y883973D01*
X13759Y883823D01*
X13934Y883661D01*
X13946Y883648D01*
X13971Y883623D01*
X14021Y883561D01*
X14071Y883486D01*
X14146Y883399D01*
X14221Y883273D01*
X14309Y883136D01*
X14396Y882986D01*
X14471Y882811D01*
X14559Y882624D01*
X14634Y882411D01*
X14709Y882174D01*
X14759Y881924D01*
X14809Y881661D01*
X14834Y881374D01*
X14846Y881074D01*
Y881062D01*
Y881012D01*
Y880949D01*
Y880849D01*
X14834Y880737D01*
X14821Y880612D01*
X14809Y880462D01*
X14796Y880312D01*
X14746Y879974D01*
X14671Y879624D01*
X14571Y879275D01*
X14509Y879112D01*
X14434Y878962D01*
Y878950D01*
X14421Y878925D01*
X14396Y878887D01*
X14359Y878837D01*
X14271Y878700D01*
X14134Y878525D01*
X13971Y878337D01*
X13772Y878137D01*
X13534Y877950D01*
X13259Y877775D01*
X13247D01*
X13222Y877762D01*
X13184Y877737D01*
X13122Y877712D01*
X13059Y877675D01*
X12972Y877637D01*
X12759Y877562D01*
X12522Y877487D01*
X12234Y877412D01*
X11922Y877363D01*
X11585Y877350D01*
X11522D01*
X11447Y877363D01*
X11347D01*
X11222Y877375D01*
X11085Y877400D01*
X10922Y877425D01*
X10747Y877462D01*
X10560Y877513D01*
X10372Y877575D01*
X10185Y877650D01*
X9985Y877737D01*
X9785Y877850D01*
X9597Y877975D01*
X9410Y878112D01*
X9235Y878275D01*
X9223Y878287D01*
X9198Y878325D01*
X9148Y878375D01*
X9098Y878450D01*
X9023Y878550D01*
X8948Y878662D01*
X8873Y878800D01*
X8785Y878962D01*
X8698Y879150D01*
X8623Y879350D01*
X8548Y879562D01*
X8473Y879812D01*
X8423Y880074D01*
X8373Y880349D01*
X8348Y880649D01*
X8335Y880974D01*
Y880999D01*
Y881062D01*
X8348Y881162D01*
Y881286D01*
X8373Y881449D01*
X8398Y881636D01*
X8423Y881836D01*
X8473Y882049D01*
X8523Y882286D01*
X8598Y882524D01*
X8685Y882761D01*
X8785Y882999D01*
X8910Y883223D01*
X9048Y883448D01*
X9210Y883648D01*
X9398Y883836D01*
X9410Y883848D01*
X9435Y883873D01*
X9485Y883911D01*
X9560Y883961D01*
X9647Y884011D01*
X9747Y884086D01*
X9872Y884148D01*
X10010Y884223D01*
X10160Y884298D01*
X10322Y884361D01*
X10510Y884436D01*
X10697Y884486D01*
X10910Y884536D01*
X11122Y884573D01*
X11347Y884598D01*
X11585Y884611D01*
X11722D01*
X11822Y884598D01*
D02*
G37*
G36*
X7598Y885973D02*
X4436D01*
Y877500D01*
X3162D01*
Y885973D01*
X0D01*
Y887110D01*
X7598D01*
Y885973D01*
D02*
G37*
G36*
X57348Y884598D02*
X57460Y884586D01*
X57598Y884561D01*
X57760Y884536D01*
X57923Y884498D01*
X58098Y884448D01*
X58285Y884373D01*
X58472Y884298D01*
X58660Y884211D01*
X58860Y884098D01*
X59047Y883973D01*
X59222Y883823D01*
X59397Y883661D01*
X59410Y883648D01*
X59435Y883611D01*
X59485Y883561D01*
X59535Y883486D01*
X59597Y883386D01*
X59672Y883273D01*
X59760Y883136D01*
X59847Y882974D01*
X59922Y882786D01*
X60010Y882586D01*
X60085Y882374D01*
X60147Y882136D01*
X60197Y881874D01*
X60247Y881599D01*
X60272Y881299D01*
X60285Y880987D01*
Y880962D01*
Y880912D01*
Y880812D01*
X60272Y880674D01*
X55086D01*
Y880662D01*
Y880624D01*
X55098Y880562D01*
X55111Y880487D01*
X55123Y880387D01*
X55136Y880274D01*
X55186Y880024D01*
X55273Y879737D01*
X55386Y879449D01*
X55536Y879175D01*
X55623Y879050D01*
X55723Y878925D01*
X55736Y878912D01*
X55748Y878900D01*
X55786Y878875D01*
X55823Y878837D01*
X55961Y878737D01*
X56123Y878625D01*
X56336Y878512D01*
X56585Y878425D01*
X56873Y878350D01*
X57023Y878337D01*
X57185Y878325D01*
X57298D01*
X57410Y878337D01*
X57573Y878362D01*
X57735Y878412D01*
X57923Y878462D01*
X58110Y878550D01*
X58285Y878662D01*
X58310Y878675D01*
X58360Y878725D01*
X58447Y878812D01*
X58548Y878925D01*
X58660Y879075D01*
X58785Y879275D01*
X58910Y879500D01*
X59010Y879762D01*
X60235Y879600D01*
Y879587D01*
X60222Y879549D01*
X60210Y879500D01*
X60172Y879425D01*
X60147Y879337D01*
X60097Y879225D01*
X59997Y878987D01*
X59847Y878725D01*
X59660Y878450D01*
X59435Y878175D01*
X59172Y877937D01*
X59160D01*
X59135Y877912D01*
X59097Y877887D01*
X59035Y877850D01*
X58960Y877800D01*
X58860Y877750D01*
X58760Y877700D01*
X58635Y877650D01*
X58498Y877588D01*
X58348Y877538D01*
X58185Y877487D01*
X58010Y877438D01*
X57623Y877375D01*
X57410Y877363D01*
X57185Y877350D01*
X57123D01*
X57035Y877363D01*
X56935D01*
X56810Y877375D01*
X56660Y877400D01*
X56486Y877425D01*
X56311Y877462D01*
X56123Y877513D01*
X55923Y877575D01*
X55723Y877650D01*
X55523Y877750D01*
X55323Y877850D01*
X55123Y877975D01*
X54936Y878125D01*
X54761Y878287D01*
X54749Y878300D01*
X54724Y878337D01*
X54674Y878387D01*
X54623Y878462D01*
X54561Y878562D01*
X54486Y878675D01*
X54399Y878812D01*
X54324Y878962D01*
X54236Y879150D01*
X54149Y879337D01*
X54074Y879562D01*
X54011Y879787D01*
X53961Y880049D01*
X53911Y880312D01*
X53886Y880599D01*
X53874Y880912D01*
Y880937D01*
Y880987D01*
X53886Y881087D01*
Y881199D01*
X53899Y881349D01*
X53924Y881524D01*
X53949Y881711D01*
X53986Y881911D01*
X54036Y882124D01*
X54099Y882349D01*
X54161Y882574D01*
X54249Y882799D01*
X54361Y883024D01*
X54474Y883249D01*
X54611Y883448D01*
X54774Y883636D01*
X54786Y883648D01*
X54811Y883673D01*
X54861Y883723D01*
X54936Y883786D01*
X55023Y883861D01*
X55136Y883948D01*
X55261Y884036D01*
X55398Y884123D01*
X55561Y884211D01*
X55736Y884298D01*
X55936Y884386D01*
X56136Y884461D01*
X56361Y884523D01*
X56598Y884573D01*
X56848Y884598D01*
X57110Y884611D01*
X57248D01*
X57348Y884598D01*
D02*
G37*
G36*
X39415D02*
X39540Y884586D01*
X39677Y884561D01*
X39840Y884536D01*
X40015Y884498D01*
X40190Y884448D01*
X40377Y884373D01*
X40577Y884298D01*
X40777Y884211D01*
X40977Y884098D01*
X41164Y883973D01*
X41352Y883823D01*
X41527Y883661D01*
X41539Y883648D01*
X41564Y883623D01*
X41614Y883561D01*
X41664Y883486D01*
X41739Y883399D01*
X41814Y883273D01*
X41902Y883136D01*
X41989Y882986D01*
X42064Y882811D01*
X42152Y882624D01*
X42227Y882411D01*
X42302Y882174D01*
X42352Y881924D01*
X42402Y881661D01*
X42427Y881374D01*
X42439Y881074D01*
Y881062D01*
Y881012D01*
Y880949D01*
Y880849D01*
X42427Y880737D01*
X42414Y880612D01*
X42402Y880462D01*
X42389Y880312D01*
X42339Y879974D01*
X42264Y879624D01*
X42164Y879275D01*
X42102Y879112D01*
X42027Y878962D01*
Y878950D01*
X42014Y878925D01*
X41989Y878887D01*
X41952Y878837D01*
X41864Y878700D01*
X41727Y878525D01*
X41564Y878337D01*
X41364Y878137D01*
X41127Y877950D01*
X40852Y877775D01*
X40840D01*
X40814Y877762D01*
X40777Y877737D01*
X40715Y877712D01*
X40652Y877675D01*
X40565Y877637D01*
X40352Y877562D01*
X40115Y877487D01*
X39827Y877412D01*
X39515Y877363D01*
X39177Y877350D01*
X39115D01*
X39040Y877363D01*
X38940D01*
X38815Y877375D01*
X38678Y877400D01*
X38515Y877425D01*
X38340Y877462D01*
X38153Y877513D01*
X37965Y877575D01*
X37778Y877650D01*
X37578Y877737D01*
X37378Y877850D01*
X37190Y877975D01*
X37003Y878112D01*
X36828Y878275D01*
X36816Y878287D01*
X36791Y878325D01*
X36741Y878375D01*
X36691Y878450D01*
X36616Y878550D01*
X36541Y878662D01*
X36466Y878800D01*
X36378Y878962D01*
X36291Y879150D01*
X36216Y879350D01*
X36141Y879562D01*
X36066Y879812D01*
X36016Y880074D01*
X35966Y880349D01*
X35941Y880649D01*
X35928Y880974D01*
Y880999D01*
Y881062D01*
X35941Y881162D01*
Y881286D01*
X35966Y881449D01*
X35991Y881636D01*
X36016Y881836D01*
X36066Y882049D01*
X36116Y882286D01*
X36191Y882524D01*
X36278Y882761D01*
X36378Y882999D01*
X36503Y883223D01*
X36641Y883448D01*
X36803Y883648D01*
X36990Y883836D01*
X37003Y883848D01*
X37028Y883873D01*
X37078Y883911D01*
X37153Y883961D01*
X37241Y884011D01*
X37340Y884086D01*
X37465Y884148D01*
X37603Y884223D01*
X37753Y884298D01*
X37915Y884361D01*
X38103Y884436D01*
X38290Y884486D01*
X38503Y884536D01*
X38715Y884573D01*
X38940Y884598D01*
X39177Y884611D01*
X39315D01*
X39415Y884598D01*
D02*
G37*
G36*
X45720Y508000D02*
X607060D01*
X640080Y474980D01*
X0D01*
Y541020D01*
X45720D01*
Y508000D01*
D02*
G37*
G36*
X55372Y591312D02*
X0D01*
Y627380D01*
X55372D01*
Y591312D01*
D02*
G37*
G36*
Y754141D02*
X0D01*
Y790209D01*
X55372D01*
Y754141D01*
D02*
G37*
G36*
X642620Y505460D02*
X609600Y538480D01*
Y676910D01*
X45720D01*
Y633730D01*
X0D01*
Y709930D01*
X642620D01*
Y505460D01*
D02*
G37*
G36*
X118010Y585990D02*
X105510D01*
Y606490D01*
X118010D01*
Y585990D01*
D02*
G37*
G36*
X239540Y575394D02*
X210040D01*
Y604894D01*
X239540D01*
Y575394D01*
D02*
G37*
G36*
X55372Y546100D02*
X0D01*
Y582168D01*
X55372D01*
Y546100D01*
D02*
G37*
G36*
Y215392D02*
X0D01*
Y251460D01*
X55372D01*
Y215392D01*
D02*
G37*
G36*
X642620Y312420D02*
X609600Y279400D01*
Y300990D01*
X45720D01*
Y257810D01*
X0D01*
Y334010D01*
X642620D01*
Y312420D01*
D02*
G37*
G36*
X239540Y199474D02*
X210040D01*
Y228974D01*
X239540D01*
Y199474D01*
D02*
G37*
G36*
X118010Y210070D02*
X105510D01*
Y230570D01*
X118010D01*
Y210070D01*
D02*
G37*
G36*
X55372Y357030D02*
X0D01*
Y393098D01*
X55372D01*
Y357030D01*
D02*
G37*
G36*
Y402242D02*
X0D01*
Y438310D01*
X55372D01*
Y402242D01*
D02*
G37*
G36*
Y799353D02*
X0D01*
Y835421D01*
X55372D01*
Y799353D01*
D02*
G37*
%LPC*%
G36*
X24989Y15628D02*
Y15618D01*
X24979Y15598D01*
X24969Y15558D01*
X24959Y15498D01*
X24949Y15428D01*
X24929Y15348D01*
X24909Y15258D01*
X24879Y15159D01*
X24819Y14939D01*
X24749Y14689D01*
X24669Y14420D01*
X24570Y14150D01*
X23731Y11904D01*
X26336D01*
X25538Y14021D01*
Y14031D01*
X25518Y14060D01*
X25498Y14110D01*
X25478Y14180D01*
X25448Y14260D01*
X25408Y14360D01*
X25368Y14470D01*
X25328Y14590D01*
X25238Y14839D01*
X25148Y15109D01*
X25069Y15378D01*
X24989Y15628D01*
D02*
G37*
G36*
X17422Y15518D02*
X15646D01*
Y9658D01*
X17472D01*
X17542Y9668D01*
X17712Y9678D01*
X17902Y9688D01*
X18101Y9718D01*
X18301Y9748D01*
X18470Y9798D01*
X18480D01*
X18490Y9808D01*
X18540Y9828D01*
X18620Y9858D01*
X18720Y9898D01*
X18830Y9958D01*
X18940Y10018D01*
X19059Y10098D01*
X19159Y10187D01*
X19179Y10207D01*
X19219Y10257D01*
X19279Y10337D01*
X19369Y10447D01*
X19459Y10587D01*
X19548Y10756D01*
X19638Y10946D01*
X19718Y11166D01*
Y11176D01*
X19728Y11196D01*
X19738Y11226D01*
X19748Y11276D01*
X19768Y11335D01*
X19788Y11405D01*
X19808Y11485D01*
X19828Y11575D01*
X19838Y11685D01*
X19858Y11795D01*
X19898Y12044D01*
X19918Y12334D01*
X19928Y12643D01*
Y12653D01*
Y12693D01*
Y12763D01*
X19918Y12843D01*
Y12943D01*
X19908Y13052D01*
X19898Y13182D01*
X19878Y13322D01*
X19828Y13621D01*
X19758Y13931D01*
X19658Y14220D01*
X19598Y14360D01*
X19529Y14490D01*
Y14500D01*
X19509Y14520D01*
X19489Y14550D01*
X19459Y14600D01*
X19369Y14709D01*
X19259Y14839D01*
X19119Y14989D01*
X18960Y15129D01*
X18770Y15258D01*
X18670Y15308D01*
X18570Y15358D01*
X18550Y15368D01*
X18530Y15378D01*
X18490Y15388D01*
X18450Y15398D01*
X18391Y15408D01*
X18331Y15428D01*
X18251Y15438D01*
X18171Y15458D01*
X18071Y15468D01*
X17961Y15478D01*
X17842Y15498D01*
X17712Y15508D01*
X17572D01*
X17422Y15518D01*
D02*
G37*
G36*
X49425Y883636D02*
X49350D01*
X49300Y883623D01*
X49150Y883598D01*
X48962Y883561D01*
X48762Y883474D01*
X48538Y883361D01*
X48425Y883286D01*
X48325Y883198D01*
X48213Y883099D01*
X48113Y882986D01*
Y882974D01*
X48088Y882961D01*
X48063Y882924D01*
X48025Y882861D01*
X47988Y882799D01*
X47950Y882711D01*
X47900Y882611D01*
X47850Y882499D01*
X47800Y882361D01*
X47750Y882211D01*
X47713Y882049D01*
X47675Y881874D01*
X47638Y881674D01*
X47613Y881461D01*
X47600Y881224D01*
X47588Y880974D01*
Y880962D01*
Y880912D01*
Y880849D01*
X47600Y880749D01*
Y880649D01*
X47613Y880512D01*
X47638Y880374D01*
X47663Y880224D01*
X47725Y879899D01*
X47825Y879562D01*
X47963Y879249D01*
X48050Y879112D01*
X48150Y878975D01*
X48163Y878962D01*
X48175Y878950D01*
X48250Y878875D01*
X48375Y878775D01*
X48525Y878650D01*
X48725Y878525D01*
X48950Y878425D01*
X49212Y878350D01*
X49350Y878337D01*
X49487Y878325D01*
X49562D01*
X49612Y878337D01*
X49762Y878362D01*
X49937Y878400D01*
X50150Y878475D01*
X50362Y878587D01*
X50475Y878662D01*
X50587Y878750D01*
X50700Y878837D01*
X50799Y878950D01*
X50812Y878962D01*
X50824Y878975D01*
X50849Y879012D01*
X50887Y879062D01*
X50925Y879137D01*
X50974Y879212D01*
X51024Y879312D01*
X51074Y879425D01*
X51124Y879549D01*
X51174Y879699D01*
X51224Y879849D01*
X51262Y880024D01*
X51299Y880212D01*
X51324Y880424D01*
X51349Y880637D01*
Y880874D01*
Y880887D01*
Y880937D01*
Y881012D01*
X51337Y881112D01*
Y881224D01*
X51324Y881361D01*
X51299Y881512D01*
X51274Y881674D01*
X51212Y882011D01*
X51112Y882361D01*
X50974Y882686D01*
X50887Y882824D01*
X50787Y882961D01*
Y882974D01*
X50762Y882986D01*
X50687Y883061D01*
X50574Y883174D01*
X50412Y883298D01*
X50212Y883423D01*
X49975Y883536D01*
X49712Y883611D01*
X49575Y883623D01*
X49425Y883636D01*
D02*
G37*
G36*
X57123D02*
X57048D01*
X56985Y883623D01*
X56923D01*
X56835Y883611D01*
X56648Y883573D01*
X56435Y883499D01*
X56198Y883399D01*
X55973Y883273D01*
X55861Y883186D01*
X55748Y883086D01*
X55723Y883061D01*
X55661Y882986D01*
X55573Y882874D01*
X55473Y882711D01*
X55361Y882499D01*
X55261Y882249D01*
X55186Y881974D01*
X55148Y881649D01*
X59035D01*
Y881661D01*
Y881686D01*
X59022Y881736D01*
X59010Y881786D01*
Y881861D01*
X58985Y881949D01*
X58947Y882136D01*
X58885Y882349D01*
X58810Y882561D01*
X58710Y882774D01*
X58585Y882949D01*
Y882961D01*
X58560Y882974D01*
X58523Y883011D01*
X58485Y883061D01*
X58360Y883161D01*
X58198Y883298D01*
X57985Y883423D01*
X57735Y883523D01*
X57448Y883611D01*
X57285Y883623D01*
X57123Y883636D01*
D02*
G37*
G36*
X39177D02*
X39090D01*
X39028Y883623D01*
X38953Y883611D01*
X38865Y883598D01*
X38665Y883548D01*
X38440Y883474D01*
X38190Y883361D01*
X38065Y883286D01*
X37953Y883198D01*
X37828Y883086D01*
X37715Y882974D01*
Y882961D01*
X37690Y882949D01*
X37665Y882899D01*
X37628Y882849D01*
X37578Y882774D01*
X37528Y882699D01*
X37478Y882599D01*
X37428Y882474D01*
X37378Y882349D01*
X37328Y882199D01*
X37278Y882036D01*
X37228Y881849D01*
X37190Y881661D01*
X37166Y881449D01*
X37153Y881211D01*
X37141Y880974D01*
Y880962D01*
Y880912D01*
Y880849D01*
X37153Y880762D01*
Y880649D01*
X37166Y880524D01*
X37190Y880374D01*
X37215Y880224D01*
X37278Y879912D01*
X37378Y879575D01*
X37528Y879262D01*
X37615Y879125D01*
X37715Y878987D01*
X37728Y878975D01*
X37740Y878962D01*
X37778Y878925D01*
X37815Y878887D01*
X37953Y878775D01*
X38115Y878662D01*
X38328Y878537D01*
X38578Y878425D01*
X38865Y878350D01*
X39015Y878337D01*
X39177Y878325D01*
X39265D01*
X39327Y878337D01*
X39402Y878350D01*
X39490Y878362D01*
X39690Y878412D01*
X39915Y878487D01*
X40165Y878600D01*
X40290Y878675D01*
X40415Y878775D01*
X40527Y878875D01*
X40640Y878987D01*
X40652Y879000D01*
X40665Y879025D01*
X40690Y879062D01*
X40727Y879112D01*
X40777Y879187D01*
X40827Y879275D01*
X40877Y879374D01*
X40939Y879487D01*
X40989Y879624D01*
X41040Y879774D01*
X41090Y879937D01*
X41139Y880124D01*
X41177Y880324D01*
X41202Y880537D01*
X41227Y880762D01*
Y881012D01*
Y881024D01*
Y881074D01*
Y881137D01*
X41214Y881224D01*
Y881337D01*
X41202Y881449D01*
X41177Y881587D01*
X41152Y881736D01*
X41090Y882049D01*
X40977Y882374D01*
X40840Y882686D01*
X40740Y882836D01*
X40640Y882961D01*
X40627Y882974D01*
X40615Y882986D01*
X40577Y883024D01*
X40540Y883061D01*
X40402Y883174D01*
X40240Y883298D01*
X40027Y883423D01*
X39777Y883536D01*
X39490Y883611D01*
X39340Y883623D01*
X39177Y883636D01*
D02*
G37*
G36*
X11585D02*
X11497D01*
X11435Y883623D01*
X11360Y883611D01*
X11272Y883598D01*
X11072Y883548D01*
X10847Y883474D01*
X10597Y883361D01*
X10472Y883286D01*
X10360Y883198D01*
X10235Y883086D01*
X10122Y882974D01*
Y882961D01*
X10097Y882949D01*
X10072Y882899D01*
X10035Y882849D01*
X9985Y882774D01*
X9935Y882699D01*
X9885Y882599D01*
X9835Y882474D01*
X9785Y882349D01*
X9735Y882199D01*
X9685Y882036D01*
X9635Y881849D01*
X9597Y881661D01*
X9572Y881449D01*
X9560Y881211D01*
X9548Y880974D01*
Y880962D01*
Y880912D01*
Y880849D01*
X9560Y880762D01*
Y880649D01*
X9572Y880524D01*
X9597Y880374D01*
X9622Y880224D01*
X9685Y879912D01*
X9785Y879575D01*
X9935Y879262D01*
X10022Y879125D01*
X10122Y878987D01*
X10135Y878975D01*
X10147Y878962D01*
X10185Y878925D01*
X10222Y878887D01*
X10360Y878775D01*
X10522Y878662D01*
X10735Y878537D01*
X10985Y878425D01*
X11272Y878350D01*
X11422Y878337D01*
X11585Y878325D01*
X11672D01*
X11734Y878337D01*
X11810Y878350D01*
X11897Y878362D01*
X12097Y878412D01*
X12322Y878487D01*
X12572Y878600D01*
X12697Y878675D01*
X12822Y878775D01*
X12934Y878875D01*
X13047Y878987D01*
X13059Y879000D01*
X13072Y879025D01*
X13097Y879062D01*
X13134Y879112D01*
X13184Y879187D01*
X13234Y879275D01*
X13284Y879374D01*
X13347Y879487D01*
X13397Y879624D01*
X13447Y879774D01*
X13497Y879937D01*
X13547Y880124D01*
X13584Y880324D01*
X13609Y880537D01*
X13634Y880762D01*
Y881012D01*
Y881024D01*
Y881074D01*
Y881137D01*
X13621Y881224D01*
Y881337D01*
X13609Y881449D01*
X13584Y881587D01*
X13559Y881736D01*
X13497Y882049D01*
X13384Y882374D01*
X13247Y882686D01*
X13147Y882836D01*
X13047Y882961D01*
X13034Y882974D01*
X13022Y882986D01*
X12984Y883024D01*
X12947Y883061D01*
X12809Y883174D01*
X12647Y883298D01*
X12434Y883423D01*
X12184Y883536D01*
X11897Y883611D01*
X11747Y883623D01*
X11585Y883636D01*
D02*
G37*
G36*
X19208Y883686D02*
X19133D01*
X19083Y883673D01*
X18933Y883648D01*
X18758Y883598D01*
X18545Y883511D01*
X18433Y883461D01*
X18320Y883386D01*
X18208Y883298D01*
X18095Y883211D01*
X17983Y883099D01*
X17870Y882974D01*
Y882961D01*
X17845Y882936D01*
X17820Y882899D01*
X17783Y882849D01*
X17733Y882774D01*
X17683Y882686D01*
X17633Y882574D01*
X17583Y882461D01*
X17533Y882324D01*
X17483Y882174D01*
X17433Y881999D01*
X17383Y881824D01*
X17346Y881624D01*
X17321Y881412D01*
X17308Y881174D01*
X17296Y880937D01*
Y880924D01*
Y880874D01*
Y880812D01*
X17308Y880724D01*
Y880612D01*
X17321Y880474D01*
X17346Y880337D01*
X17358Y880187D01*
X17433Y879862D01*
X17521Y879537D01*
X17658Y879225D01*
X17733Y879087D01*
X17833Y878962D01*
X17845Y878950D01*
X17858Y878937D01*
X17933Y878862D01*
X18045Y878762D01*
X18208Y878650D01*
X18395Y878525D01*
X18620Y878425D01*
X18883Y878350D01*
X19020Y878337D01*
X19158Y878325D01*
X19233D01*
X19295Y878337D01*
X19358Y878350D01*
X19432Y878362D01*
X19620Y878412D01*
X19832Y878487D01*
X20057Y878600D01*
X20170Y878675D01*
X20282Y878775D01*
X20395Y878875D01*
X20507Y878987D01*
X20520Y879000D01*
X20532Y879025D01*
X20557Y879062D01*
X20595Y879112D01*
X20632Y879187D01*
X20682Y879275D01*
X20732Y879374D01*
X20795Y879487D01*
X20845Y879624D01*
X20895Y879774D01*
X20945Y879949D01*
X20982Y880137D01*
X21020Y880337D01*
X21045Y880549D01*
X21070Y880787D01*
Y881037D01*
Y881049D01*
Y881099D01*
Y881162D01*
X21057Y881249D01*
Y881361D01*
X21045Y881487D01*
X21020Y881636D01*
X21007Y881786D01*
X20932Y882099D01*
X20832Y882436D01*
X20707Y882749D01*
X20620Y882899D01*
X20520Y883024D01*
Y883036D01*
X20495Y883049D01*
X20420Y883124D01*
X20307Y883236D01*
X20145Y883361D01*
X19957Y883474D01*
X19732Y883586D01*
X19483Y883661D01*
X19345Y883673D01*
X19208Y883686D01*
D02*
G37*
%LPD*%
G36*
X115613Y937430D02*
X114176D01*
X113063Y940342D01*
X109039D01*
X107990Y937430D01*
X106653D01*
X110314Y947040D01*
X111701D01*
X115613Y937430D01*
D02*
G37*
G36*
X128697Y944528D02*
X128897Y944516D01*
X129122Y944491D01*
X129372Y944453D01*
X129597Y944403D01*
X129822Y944328D01*
X129834D01*
X129847Y944316D01*
X129909Y944291D01*
X130009Y944241D01*
X130134Y944178D01*
X130272Y944103D01*
X130409Y944016D01*
X130534Y943903D01*
X130646Y943791D01*
X130659Y943778D01*
X130684Y943741D01*
X130734Y943666D01*
X130796Y943578D01*
X130859Y943466D01*
X130921Y943328D01*
X130971Y943178D01*
X131021Y943004D01*
Y942991D01*
X131034Y942941D01*
X131046Y942866D01*
X131059Y942754D01*
Y942604D01*
X131071Y942416D01*
X131084Y942191D01*
Y941916D01*
Y940342D01*
Y940329D01*
Y940267D01*
Y940192D01*
Y940079D01*
Y939954D01*
Y939804D01*
Y939642D01*
X131096Y939467D01*
Y939117D01*
X131109Y938780D01*
X131121Y938617D01*
Y938480D01*
X131134Y938367D01*
X131146Y938267D01*
Y938242D01*
X131159Y938192D01*
X131184Y938105D01*
X131209Y938005D01*
X131259Y937867D01*
X131309Y937730D01*
X131371Y937580D01*
X131446Y937430D01*
X130209D01*
X130197Y937442D01*
X130184Y937493D01*
X130147Y937568D01*
X130122Y937680D01*
X130072Y937805D01*
X130047Y937955D01*
X130009Y938117D01*
X129984Y938305D01*
X129972D01*
X129959Y938280D01*
X129922Y938255D01*
X129872Y938217D01*
X129747Y938117D01*
X129572Y937992D01*
X129384Y937867D01*
X129172Y937730D01*
X128934Y937605D01*
X128709Y937505D01*
X128697D01*
X128685Y937493D01*
X128647Y937480D01*
X128610Y937467D01*
X128485Y937430D01*
X128322Y937393D01*
X128135Y937355D01*
X127910Y937318D01*
X127672Y937292D01*
X127422Y937280D01*
X127310D01*
X127235Y937292D01*
X127135D01*
X127022Y937305D01*
X126772Y937355D01*
X126485Y937418D01*
X126198Y937517D01*
X125910Y937655D01*
X125785Y937730D01*
X125660Y937830D01*
X125648Y937842D01*
X125635Y937855D01*
X125560Y937930D01*
X125473Y938055D01*
X125360Y938217D01*
X125248Y938430D01*
X125148Y938667D01*
X125073Y938942D01*
X125060Y939092D01*
X125048Y939255D01*
Y939279D01*
Y939342D01*
X125060Y939442D01*
X125073Y939567D01*
X125098Y939704D01*
X125148Y939867D01*
X125198Y940029D01*
X125273Y940192D01*
X125285Y940217D01*
X125310Y940267D01*
X125373Y940342D01*
X125435Y940442D01*
X125523Y940542D01*
X125635Y940654D01*
X125748Y940767D01*
X125885Y940867D01*
X125898Y940879D01*
X125948Y940904D01*
X126035Y940954D01*
X126135Y941017D01*
X126260Y941079D01*
X126398Y941142D01*
X126560Y941204D01*
X126735Y941254D01*
X126748D01*
X126798Y941266D01*
X126885Y941292D01*
X126997Y941304D01*
X127147Y941341D01*
X127322Y941367D01*
X127535Y941392D01*
X127785Y941429D01*
X127797D01*
X127847Y941441D01*
X127922D01*
X128022Y941467D01*
X128135Y941479D01*
X128272Y941491D01*
X128422Y941516D01*
X128584Y941541D01*
X128922Y941604D01*
X129272Y941679D01*
X129597Y941754D01*
X129747Y941804D01*
X129884Y941841D01*
Y941854D01*
Y941879D01*
Y941916D01*
X129897Y941966D01*
Y942066D01*
Y942116D01*
Y942141D01*
Y942154D01*
Y942179D01*
Y942216D01*
Y942254D01*
X129884Y942391D01*
X129859Y942541D01*
X129809Y942716D01*
X129759Y942879D01*
X129672Y943041D01*
X129559Y943166D01*
X129534Y943178D01*
X129472Y943229D01*
X129372Y943291D01*
X129222Y943366D01*
X129022Y943441D01*
X128797Y943503D01*
X128522Y943553D01*
X128210Y943566D01*
X128072D01*
X127922Y943553D01*
X127747Y943528D01*
X127535Y943491D01*
X127335Y943441D01*
X127135Y943366D01*
X126972Y943266D01*
X126960Y943253D01*
X126910Y943216D01*
X126835Y943141D01*
X126760Y943029D01*
X126660Y942891D01*
X126573Y942716D01*
X126473Y942491D01*
X126398Y942241D01*
X125248Y942404D01*
Y942416D01*
X125260Y942441D01*
Y942479D01*
X125273Y942529D01*
X125310Y942666D01*
X125373Y942829D01*
X125435Y943016D01*
X125523Y943216D01*
X125635Y943416D01*
X125760Y943591D01*
X125773Y943616D01*
X125823Y943666D01*
X125910Y943741D01*
X126023Y943853D01*
X126173Y943966D01*
X126348Y944078D01*
X126560Y944191D01*
X126798Y944291D01*
X126810D01*
X126835Y944303D01*
X126873Y944316D01*
X126923Y944328D01*
X126985Y944353D01*
X127060Y944366D01*
X127260Y944416D01*
X127485Y944466D01*
X127760Y944503D01*
X128060Y944528D01*
X128385Y944541D01*
X128610D01*
X128697Y944528D01*
D02*
G37*
G36*
X22174Y937430D02*
X21124D01*
Y938455D01*
X21112Y938442D01*
X21087Y938405D01*
X21037Y938342D01*
X20975Y938267D01*
X20887Y938180D01*
X20787Y938080D01*
X20675Y937980D01*
X20537Y937867D01*
X20387Y937755D01*
X20225Y937655D01*
X20037Y937555D01*
X19850Y937467D01*
X19637Y937393D01*
X19412Y937330D01*
X19162Y937292D01*
X18913Y937280D01*
X18813D01*
X18688Y937292D01*
X18538Y937305D01*
X18363Y937330D01*
X18175Y937380D01*
X17963Y937430D01*
X17763Y937505D01*
X17738Y937517D01*
X17675Y937542D01*
X17576Y937605D01*
X17463Y937667D01*
X17338Y937755D01*
X17200Y937855D01*
X17076Y937967D01*
X16963Y938092D01*
X16951Y938105D01*
X16926Y938155D01*
X16876Y938230D01*
X16826Y938342D01*
X16763Y938467D01*
X16701Y938617D01*
X16651Y938792D01*
X16601Y938980D01*
Y938992D01*
X16588Y939042D01*
X16576Y939130D01*
Y939255D01*
X16563Y939405D01*
X16551Y939592D01*
X16538Y939817D01*
Y940079D01*
Y944391D01*
X17713D01*
Y940529D01*
Y940517D01*
Y940492D01*
Y940442D01*
Y940379D01*
Y940304D01*
Y940217D01*
X17725Y940029D01*
Y939817D01*
X17738Y939617D01*
X17750Y939429D01*
X17763Y939342D01*
X17775Y939279D01*
Y939255D01*
X17800Y939204D01*
X17825Y939117D01*
X17875Y939017D01*
X17938Y938905D01*
X18025Y938780D01*
X18125Y938667D01*
X18250Y938555D01*
X18263Y938542D01*
X18313Y938517D01*
X18388Y938467D01*
X18500Y938430D01*
X18625Y938380D01*
X18775Y938330D01*
X18950Y938305D01*
X19138Y938292D01*
X19225D01*
X19338Y938305D01*
X19462Y938330D01*
X19612Y938355D01*
X19787Y938405D01*
X19962Y938467D01*
X20137Y938555D01*
X20162Y938567D01*
X20212Y938605D01*
X20300Y938667D01*
X20400Y938755D01*
X20512Y938855D01*
X20612Y938980D01*
X20712Y939130D01*
X20800Y939292D01*
X20812Y939317D01*
X20837Y939380D01*
X20862Y939492D01*
X20900Y939642D01*
X20937Y939829D01*
X20975Y940067D01*
X20987Y940342D01*
X21000Y940654D01*
Y944391D01*
X22174D01*
Y937430D01*
D02*
G37*
G36*
X60227D02*
X59052D01*
Y947040D01*
X60227D01*
Y937430D01*
D02*
G37*
G36*
X89544Y944391D02*
X90732D01*
Y943478D01*
X89544D01*
Y939405D01*
Y939380D01*
Y939317D01*
Y939230D01*
X89557Y939130D01*
Y939017D01*
X89570Y938905D01*
X89582Y938817D01*
X89594Y938742D01*
X89607Y938717D01*
X89644Y938667D01*
X89707Y938592D01*
X89795Y938517D01*
X89807D01*
X89819Y938505D01*
X89857Y938492D01*
X89907Y938480D01*
X90032Y938455D01*
X90207Y938442D01*
X90344D01*
X90419Y938455D01*
X90519D01*
X90619Y938467D01*
X90732Y938480D01*
X90894Y937442D01*
X90869D01*
X90807Y937430D01*
X90719Y937418D01*
X90594Y937393D01*
X90457Y937380D01*
X90307Y937355D01*
X89994Y937343D01*
X89894D01*
X89769Y937355D01*
X89632Y937367D01*
X89469Y937393D01*
X89307Y937430D01*
X89145Y937480D01*
X89007Y937542D01*
X88995Y937555D01*
X88945Y937580D01*
X88895Y937617D01*
X88820Y937680D01*
X88732Y937755D01*
X88645Y937855D01*
X88570Y937955D01*
X88507Y938067D01*
Y938080D01*
X88482Y938142D01*
X88470Y938230D01*
X88445Y938367D01*
X88432Y938455D01*
X88420Y938555D01*
X88407Y938667D01*
X88395Y938805D01*
X88382Y938942D01*
Y939105D01*
X88370Y939279D01*
Y939467D01*
Y943478D01*
X87495D01*
Y944391D01*
X88370D01*
Y946103D01*
X89544Y946815D01*
Y944391D01*
D02*
G37*
G36*
X27273Y944528D02*
X27473Y944516D01*
X27698Y944491D01*
X27948Y944453D01*
X28173Y944403D01*
X28398Y944328D01*
X28410D01*
X28423Y944316D01*
X28485Y944291D01*
X28585Y944241D01*
X28710Y944178D01*
X28848Y944103D01*
X28985Y944016D01*
X29110Y943903D01*
X29223Y943791D01*
X29235Y943778D01*
X29260Y943741D01*
X29310Y943666D01*
X29372Y943578D01*
X29435Y943466D01*
X29497Y943328D01*
X29547Y943178D01*
X29597Y943004D01*
Y942991D01*
X29610Y942941D01*
X29622Y942866D01*
X29635Y942754D01*
Y942604D01*
X29647Y942416D01*
X29660Y942191D01*
Y941916D01*
Y940342D01*
Y940329D01*
Y940267D01*
Y940192D01*
Y940079D01*
Y939954D01*
Y939804D01*
Y939642D01*
X29672Y939467D01*
Y939117D01*
X29685Y938780D01*
X29697Y938617D01*
Y938480D01*
X29710Y938367D01*
X29722Y938267D01*
Y938242D01*
X29735Y938192D01*
X29760Y938105D01*
X29785Y938005D01*
X29835Y937867D01*
X29885Y937730D01*
X29947Y937580D01*
X30022Y937430D01*
X28785D01*
X28773Y937442D01*
X28760Y937493D01*
X28723Y937568D01*
X28698Y937680D01*
X28648Y937805D01*
X28623Y937955D01*
X28585Y938117D01*
X28560Y938305D01*
X28548D01*
X28535Y938280D01*
X28498Y938255D01*
X28448Y938217D01*
X28323Y938117D01*
X28148Y937992D01*
X27960Y937867D01*
X27748Y937730D01*
X27510Y937605D01*
X27285Y937505D01*
X27273D01*
X27260Y937493D01*
X27223Y937480D01*
X27185Y937467D01*
X27060Y937430D01*
X26898Y937393D01*
X26711Y937355D01*
X26486Y937318D01*
X26248Y937292D01*
X25998Y937280D01*
X25886D01*
X25811Y937292D01*
X25711D01*
X25598Y937305D01*
X25348Y937355D01*
X25061Y937418D01*
X24774Y937517D01*
X24486Y937655D01*
X24361Y937730D01*
X24236Y937830D01*
X24224Y937842D01*
X24211Y937855D01*
X24136Y937930D01*
X24049Y938055D01*
X23936Y938217D01*
X23824Y938430D01*
X23724Y938667D01*
X23649Y938942D01*
X23636Y939092D01*
X23624Y939255D01*
Y939279D01*
Y939342D01*
X23636Y939442D01*
X23649Y939567D01*
X23674Y939704D01*
X23724Y939867D01*
X23774Y940029D01*
X23849Y940192D01*
X23861Y940217D01*
X23886Y940267D01*
X23949Y940342D01*
X24011Y940442D01*
X24099Y940542D01*
X24211Y940654D01*
X24324Y940767D01*
X24461Y940867D01*
X24474Y940879D01*
X24524Y940904D01*
X24611Y940954D01*
X24711Y941017D01*
X24836Y941079D01*
X24974Y941142D01*
X25136Y941204D01*
X25311Y941254D01*
X25324D01*
X25373Y941266D01*
X25461Y941292D01*
X25573Y941304D01*
X25723Y941341D01*
X25898Y941367D01*
X26111Y941392D01*
X26361Y941429D01*
X26373D01*
X26423Y941441D01*
X26498D01*
X26598Y941467D01*
X26711Y941479D01*
X26848Y941491D01*
X26998Y941516D01*
X27160Y941541D01*
X27498Y941604D01*
X27848Y941679D01*
X28173Y941754D01*
X28323Y941804D01*
X28460Y941841D01*
Y941854D01*
Y941879D01*
Y941916D01*
X28473Y941966D01*
Y942066D01*
Y942116D01*
Y942141D01*
Y942154D01*
Y942179D01*
Y942216D01*
Y942254D01*
X28460Y942391D01*
X28435Y942541D01*
X28385Y942716D01*
X28335Y942879D01*
X28248Y943041D01*
X28135Y943166D01*
X28110Y943178D01*
X28048Y943229D01*
X27948Y943291D01*
X27798Y943366D01*
X27598Y943441D01*
X27373Y943503D01*
X27098Y943553D01*
X26786Y943566D01*
X26648D01*
X26498Y943553D01*
X26323Y943528D01*
X26111Y943491D01*
X25911Y943441D01*
X25711Y943366D01*
X25548Y943266D01*
X25536Y943253D01*
X25486Y943216D01*
X25411Y943141D01*
X25336Y943029D01*
X25236Y942891D01*
X25148Y942716D01*
X25048Y942491D01*
X24974Y942241D01*
X23824Y942404D01*
Y942416D01*
X23836Y942441D01*
Y942479D01*
X23849Y942529D01*
X23886Y942666D01*
X23949Y942829D01*
X24011Y943016D01*
X24099Y943216D01*
X24211Y943416D01*
X24336Y943591D01*
X24349Y943616D01*
X24399Y943666D01*
X24486Y943741D01*
X24599Y943853D01*
X24749Y943966D01*
X24924Y944078D01*
X25136Y944191D01*
X25373Y944291D01*
X25386D01*
X25411Y944303D01*
X25448Y944316D01*
X25498Y944328D01*
X25561Y944353D01*
X25636Y944366D01*
X25836Y944416D01*
X26061Y944466D01*
X26336Y944503D01*
X26636Y944528D01*
X26961Y944541D01*
X27185D01*
X27273Y944528D01*
D02*
G37*
G36*
X57265Y937430D02*
X56091D01*
Y944391D01*
X57265D01*
Y937430D01*
D02*
G37*
G36*
X135970Y937318D02*
Y937305D01*
X135958Y937268D01*
X135933Y937205D01*
X135895Y937130D01*
X135870Y937043D01*
X135820Y936930D01*
X135733Y936693D01*
X135620Y936430D01*
X135508Y936168D01*
X135408Y935930D01*
X135358Y935830D01*
X135308Y935743D01*
X135295Y935718D01*
X135258Y935656D01*
X135183Y935543D01*
X135095Y935418D01*
X134995Y935281D01*
X134870Y935143D01*
X134733Y935006D01*
X134583Y934893D01*
X134571Y934881D01*
X134508Y934856D01*
X134433Y934806D01*
X134308Y934756D01*
X134171Y934706D01*
X134008Y934656D01*
X133821Y934631D01*
X133621Y934618D01*
X133558D01*
X133483Y934631D01*
X133396Y934643D01*
X133283Y934656D01*
X133146Y934681D01*
X133008Y934718D01*
X132858Y934768D01*
X132733Y935868D01*
X132746D01*
X132796Y935855D01*
X132871Y935830D01*
X132958Y935818D01*
X133058Y935793D01*
X133171Y935768D01*
X133396Y935755D01*
X133458D01*
X133533Y935768D01*
X133621D01*
X133833Y935818D01*
X133933Y935843D01*
X134021Y935893D01*
X134033D01*
X134058Y935918D01*
X134108Y935943D01*
X134158Y935980D01*
X134283Y936093D01*
X134408Y936255D01*
Y936268D01*
X134433Y936293D01*
X134458Y936343D01*
X134495Y936430D01*
X134545Y936555D01*
X134608Y936705D01*
X134683Y936905D01*
X134720Y937018D01*
X134770Y937143D01*
X134783Y937155D01*
X134795Y937218D01*
X134833Y937305D01*
X134883Y937430D01*
X132234Y944391D01*
X133483D01*
X134945Y940367D01*
Y940354D01*
X134958Y940329D01*
X134970Y940292D01*
X134995Y940229D01*
X135020Y940167D01*
X135045Y940079D01*
X135108Y939879D01*
X135183Y939642D01*
X135270Y939367D01*
X135358Y939067D01*
X135445Y938755D01*
Y938767D01*
X135458Y938792D01*
X135470Y938830D01*
X135483Y938892D01*
X135508Y938967D01*
X135533Y939055D01*
X135583Y939255D01*
X135658Y939492D01*
X135745Y939754D01*
X135845Y940042D01*
X135945Y940329D01*
X137432Y944391D01*
X138607D01*
X135970Y937318D01*
D02*
G37*
G36*
X119274Y944516D02*
X119424Y944491D01*
X119612Y944441D01*
X119824Y944378D01*
X120037Y944278D01*
X120274Y944153D01*
X119862Y943066D01*
X119837Y943079D01*
X119787Y943103D01*
X119699Y943141D01*
X119587Y943191D01*
X119462Y943241D01*
X119312Y943279D01*
X119149Y943304D01*
X118987Y943316D01*
X118925D01*
X118849Y943304D01*
X118750Y943291D01*
X118650Y943253D01*
X118525Y943216D01*
X118412Y943154D01*
X118287Y943079D01*
X118275Y943066D01*
X118237Y943041D01*
X118187Y942979D01*
X118125Y942904D01*
X118050Y942816D01*
X117975Y942704D01*
X117912Y942579D01*
X117850Y942429D01*
Y942416D01*
X117837Y942404D01*
Y942366D01*
X117825Y942316D01*
X117787Y942191D01*
X117762Y942029D01*
X117725Y941816D01*
X117687Y941591D01*
X117675Y941329D01*
X117662Y941054D01*
Y937430D01*
X116488D01*
Y944391D01*
X117550D01*
Y943328D01*
X117562Y943354D01*
X117587Y943391D01*
X117612Y943441D01*
X117700Y943566D01*
X117787Y943716D01*
X117900Y943891D01*
X118025Y944053D01*
X118162Y944191D01*
X118287Y944303D01*
X118300Y944316D01*
X118350Y944341D01*
X118425Y944378D01*
X118512Y944428D01*
X118625Y944466D01*
X118762Y944503D01*
X118899Y944528D01*
X119050Y944541D01*
X119149D01*
X119274Y944516D01*
D02*
G37*
G36*
X123748D02*
X123898Y944491D01*
X124086Y944441D01*
X124298Y944378D01*
X124511Y944278D01*
X124748Y944153D01*
X124336Y943066D01*
X124311Y943079D01*
X124261Y943103D01*
X124173Y943141D01*
X124061Y943191D01*
X123936Y943241D01*
X123786Y943279D01*
X123623Y943304D01*
X123461Y943316D01*
X123398D01*
X123323Y943304D01*
X123223Y943291D01*
X123123Y943253D01*
X122999Y943216D01*
X122886Y943154D01*
X122761Y943079D01*
X122748Y943066D01*
X122711Y943041D01*
X122661Y942979D01*
X122599Y942904D01*
X122524Y942816D01*
X122449Y942704D01*
X122386Y942579D01*
X122324Y942429D01*
Y942416D01*
X122311Y942404D01*
Y942366D01*
X122299Y942316D01*
X122261Y942191D01*
X122236Y942029D01*
X122199Y941816D01*
X122161Y941591D01*
X122149Y941329D01*
X122136Y941054D01*
Y937430D01*
X120962D01*
Y944391D01*
X122024D01*
Y943328D01*
X122036Y943354D01*
X122061Y943391D01*
X122086Y943441D01*
X122174Y943566D01*
X122261Y943716D01*
X122374Y943891D01*
X122499Y944053D01*
X122636Y944191D01*
X122761Y944303D01*
X122774Y944316D01*
X122823Y944341D01*
X122899Y944378D01*
X122986Y944428D01*
X123098Y944466D01*
X123236Y944503D01*
X123373Y944528D01*
X123523Y944541D01*
X123623D01*
X123748Y944516D01*
D02*
G37*
G36*
X3891Y947190D02*
X3991D01*
X4116Y947178D01*
X4254Y947165D01*
X4541Y947115D01*
X4854Y947053D01*
X5179Y946965D01*
X5491Y946853D01*
X5504D01*
X5529Y946840D01*
X5566Y946815D01*
X5628Y946790D01*
X5778Y946703D01*
X5953Y946590D01*
X6166Y946453D01*
X6366Y946278D01*
X6578Y946065D01*
X6753Y945828D01*
Y945815D01*
X6778Y945803D01*
X6791Y945765D01*
X6828Y945715D01*
X6853Y945653D01*
X6891Y945578D01*
X6978Y945390D01*
X7066Y945165D01*
X7141Y944916D01*
X7203Y944628D01*
X7228Y944328D01*
X6003Y944241D01*
Y944253D01*
Y944278D01*
X5991Y944328D01*
X5978Y944391D01*
X5966Y944466D01*
X5941Y944553D01*
X5878Y944753D01*
X5791Y944966D01*
X5678Y945191D01*
X5529Y945415D01*
X5329Y945603D01*
X5304Y945628D01*
X5266Y945640D01*
X5229Y945678D01*
X5166Y945715D01*
X5091Y945753D01*
X5004Y945790D01*
X4916Y945840D01*
X4804Y945878D01*
X4679Y945915D01*
X4541Y945953D01*
X4391Y945990D01*
X4229Y946028D01*
X4054Y946040D01*
X3866Y946065D01*
X3479D01*
X3379Y946053D01*
X3279Y946040D01*
X3029Y946015D01*
X2754Y945965D01*
X2479Y945890D01*
X2217Y945778D01*
X2092Y945715D01*
X1992Y945640D01*
X1967Y945615D01*
X1904Y945565D01*
X1830Y945478D01*
X1729Y945353D01*
X1629Y945203D01*
X1555Y945028D01*
X1492Y944828D01*
X1467Y944616D01*
Y944591D01*
Y944528D01*
X1492Y944441D01*
X1517Y944316D01*
X1555Y944178D01*
X1617Y944041D01*
X1705Y943903D01*
X1830Y943766D01*
X1855Y943753D01*
X1880Y943728D01*
X1917Y943716D01*
X1967Y943678D01*
X2029Y943641D01*
X2117Y943603D01*
X2204Y943566D01*
X2329Y943516D01*
X2467Y943454D01*
X2617Y943403D01*
X2792Y943341D01*
X2992Y943279D01*
X3217Y943216D01*
X3467Y943154D01*
X3742Y943091D01*
X3754D01*
X3804Y943079D01*
X3891Y943054D01*
X3991Y943029D01*
X4116Y943004D01*
X4266Y942966D01*
X4416Y942929D01*
X4591Y942879D01*
X4941Y942791D01*
X5291Y942691D01*
X5454Y942629D01*
X5616Y942579D01*
X5753Y942529D01*
X5866Y942479D01*
X5878D01*
X5903Y942466D01*
X5941Y942441D01*
X6003Y942404D01*
X6153Y942329D01*
X6341Y942216D01*
X6541Y942066D01*
X6741Y941904D01*
X6941Y941704D01*
X7103Y941491D01*
Y941479D01*
X7116Y941467D01*
X7141Y941429D01*
X7166Y941392D01*
X7228Y941266D01*
X7316Y941104D01*
X7391Y940904D01*
X7453Y940667D01*
X7503Y940417D01*
X7516Y940129D01*
Y940117D01*
Y940092D01*
Y940054D01*
X7503Y940004D01*
Y939929D01*
X7491Y939854D01*
X7466Y939667D01*
X7403Y939442D01*
X7328Y939204D01*
X7216Y938942D01*
X7066Y938692D01*
Y938680D01*
X7041Y938667D01*
X7016Y938630D01*
X6991Y938580D01*
X6878Y938455D01*
X6741Y938305D01*
X6566Y938142D01*
X6353Y937967D01*
X6091Y937792D01*
X5803Y937642D01*
X5791D01*
X5766Y937630D01*
X5716Y937605D01*
X5666Y937580D01*
X5579Y937555D01*
X5491Y937530D01*
X5391Y937493D01*
X5266Y937455D01*
X5004Y937393D01*
X4691Y937330D01*
X4341Y937280D01*
X3966Y937268D01*
X3841D01*
X3754Y937280D01*
X3641D01*
X3504Y937292D01*
X3367Y937305D01*
X3204Y937318D01*
X2867Y937355D01*
X2492Y937430D01*
X2129Y937517D01*
X1779Y937642D01*
X1767D01*
X1742Y937655D01*
X1692Y937680D01*
X1629Y937717D01*
X1567Y937755D01*
X1480Y937805D01*
X1280Y937930D01*
X1055Y938092D01*
X830Y938292D01*
X605Y938530D01*
X405Y938792D01*
Y938805D01*
X380Y938830D01*
X355Y938867D01*
X330Y938930D01*
X292Y939005D01*
X242Y939080D01*
X205Y939180D01*
X155Y939292D01*
X55Y939555D01*
X-33Y939842D01*
X-95Y940179D01*
X-120Y940529D01*
X1080Y940629D01*
Y940617D01*
Y940592D01*
X1092Y940554D01*
Y940504D01*
X1117Y940379D01*
X1155Y940204D01*
X1205Y940017D01*
X1280Y939817D01*
X1367Y939617D01*
X1467Y939429D01*
X1480Y939405D01*
X1530Y939354D01*
X1604Y939267D01*
X1705Y939167D01*
X1842Y939042D01*
X2004Y938917D01*
X2204Y938792D01*
X2429Y938680D01*
X2442D01*
X2454Y938667D01*
X2492Y938655D01*
X2542Y938642D01*
X2604Y938617D01*
X2679Y938592D01*
X2867Y938542D01*
X3079Y938492D01*
X3329Y938442D01*
X3604Y938417D01*
X3904Y938405D01*
X4029D01*
X4166Y938417D01*
X4341Y938430D01*
X4529Y938455D01*
X4754Y938492D01*
X4966Y938542D01*
X5179Y938617D01*
X5191D01*
X5204Y938630D01*
X5266Y938655D01*
X5366Y938705D01*
X5491Y938767D01*
X5628Y938855D01*
X5766Y938955D01*
X5903Y939067D01*
X6016Y939204D01*
X6028Y939217D01*
X6053Y939267D01*
X6103Y939354D01*
X6153Y939454D01*
X6203Y939579D01*
X6253Y939717D01*
X6278Y939867D01*
X6291Y940029D01*
Y940054D01*
Y940104D01*
X6278Y940192D01*
X6253Y940292D01*
X6228Y940417D01*
X6178Y940554D01*
X6103Y940692D01*
X6016Y940817D01*
X6003Y940829D01*
X5966Y940879D01*
X5903Y940942D01*
X5816Y941017D01*
X5691Y941104D01*
X5541Y941191D01*
X5366Y941292D01*
X5154Y941379D01*
X5129Y941392D01*
X5079Y941404D01*
X5029Y941429D01*
X4966Y941441D01*
X4891Y941467D01*
X4791Y941491D01*
X4691Y941529D01*
X4566Y941554D01*
X4429Y941591D01*
X4266Y941641D01*
X4091Y941679D01*
X3891Y941729D01*
X3679Y941779D01*
X3442Y941841D01*
X3429D01*
X3379Y941854D01*
X3317Y941879D01*
X3229Y941891D01*
X3117Y941929D01*
X3004Y941954D01*
X2717Y942041D01*
X2417Y942129D01*
X2104Y942241D01*
X1830Y942341D01*
X1705Y942404D01*
X1592Y942454D01*
X1579D01*
X1567Y942466D01*
X1530Y942491D01*
X1480Y942516D01*
X1355Y942591D01*
X1205Y942704D01*
X1042Y942829D01*
X867Y942979D01*
X705Y943154D01*
X567Y943341D01*
Y943354D01*
X555Y943366D01*
X517Y943441D01*
X467Y943541D01*
X405Y943691D01*
X342Y943866D01*
X292Y944078D01*
X255Y944303D01*
X242Y944541D01*
Y944553D01*
Y944578D01*
Y944616D01*
X255Y944666D01*
X267Y944803D01*
X292Y944991D01*
X342Y945203D01*
X417Y945428D01*
X517Y945665D01*
X655Y945903D01*
Y945915D01*
X680Y945928D01*
X730Y946003D01*
X830Y946128D01*
X955Y946265D01*
X1130Y946415D01*
X1330Y946578D01*
X1579Y946728D01*
X1855Y946865D01*
X1867D01*
X1892Y946878D01*
X1929Y946903D01*
X1992Y946915D01*
X2067Y946940D01*
X2154Y946978D01*
X2254Y947003D01*
X2367Y947040D01*
X2629Y947090D01*
X2929Y947152D01*
X3267Y947190D01*
X3616Y947203D01*
X3792D01*
X3891Y947190D01*
D02*
G37*
G36*
X102129Y944516D02*
X102279Y944491D01*
X102466Y944441D01*
X102679Y944378D01*
X102891Y944278D01*
X103128Y944153D01*
X102716Y943066D01*
X102691Y943079D01*
X102641Y943103D01*
X102554Y943141D01*
X102441Y943191D01*
X102316Y943241D01*
X102166Y943279D01*
X102004Y943304D01*
X101841Y943316D01*
X101779D01*
X101704Y943304D01*
X101604Y943291D01*
X101504Y943253D01*
X101379Y943216D01*
X101266Y943154D01*
X101142Y943079D01*
X101129Y943066D01*
X101092Y943041D01*
X101042Y942979D01*
X100979Y942904D01*
X100904Y942816D01*
X100829Y942704D01*
X100767Y942579D01*
X100704Y942429D01*
Y942416D01*
X100692Y942404D01*
Y942366D01*
X100679Y942316D01*
X100642Y942191D01*
X100617Y942029D01*
X100579Y941816D01*
X100542Y941591D01*
X100529Y941329D01*
X100517Y941054D01*
Y937430D01*
X99342D01*
Y944391D01*
X100404D01*
Y943328D01*
X100417Y943354D01*
X100442Y943391D01*
X100467Y943441D01*
X100554Y943566D01*
X100642Y943716D01*
X100754Y943891D01*
X100879Y944053D01*
X101017Y944191D01*
X101142Y944303D01*
X101154Y944316D01*
X101204Y944341D01*
X101279Y944378D01*
X101367Y944428D01*
X101479Y944466D01*
X101616Y944503D01*
X101754Y944528D01*
X101904Y944541D01*
X102004D01*
X102129Y944516D01*
D02*
G37*
G36*
X50979Y943129D02*
X55191Y937430D01*
X53504D01*
X50080Y942266D01*
X48517Y940754D01*
Y937430D01*
X47243D01*
Y947040D01*
X48517D01*
Y942279D01*
X53291Y947040D01*
X55016D01*
X50979Y943129D01*
D02*
G37*
G36*
X76973Y944528D02*
X77060D01*
X77160Y944516D01*
X77398Y944466D01*
X77648Y944403D01*
X77910Y944303D01*
X78172Y944153D01*
X78285Y944066D01*
X78397Y943966D01*
X78410Y943953D01*
X78422Y943941D01*
X78447Y943903D01*
X78485Y943853D01*
X78522Y943791D01*
X78572Y943716D01*
X78622Y943628D01*
X78685Y943528D01*
X78735Y943416D01*
X78785Y943279D01*
X78835Y943141D01*
X78872Y942979D01*
X78910Y942804D01*
X78935Y942616D01*
X78960Y942404D01*
Y942191D01*
Y937430D01*
X77785D01*
Y941804D01*
Y941816D01*
Y941829D01*
Y941866D01*
Y941916D01*
Y942041D01*
X77772Y942191D01*
X77760Y942354D01*
X77735Y942529D01*
X77710Y942679D01*
X77673Y942816D01*
Y942829D01*
X77648Y942866D01*
X77623Y942929D01*
X77573Y942991D01*
X77523Y943079D01*
X77448Y943154D01*
X77360Y943241D01*
X77248Y943316D01*
X77235Y943328D01*
X77198Y943354D01*
X77135Y943379D01*
X77048Y943416D01*
X76948Y943454D01*
X76823Y943491D01*
X76698Y943503D01*
X76548Y943516D01*
X76473D01*
X76423Y943503D01*
X76285Y943491D01*
X76111Y943454D01*
X75911Y943391D01*
X75711Y943304D01*
X75498Y943178D01*
X75311Y943016D01*
X75286Y942991D01*
X75236Y942929D01*
X75161Y942804D01*
X75073Y942641D01*
X75023Y942541D01*
X74973Y942429D01*
X74936Y942291D01*
X74898Y942154D01*
X74873Y942004D01*
X74848Y941841D01*
X74823Y941654D01*
Y941467D01*
Y937430D01*
X73649D01*
Y941941D01*
Y941954D01*
Y941979D01*
Y942016D01*
Y942066D01*
X73636Y942216D01*
X73611Y942379D01*
X73574Y942579D01*
X73524Y942766D01*
X73461Y942954D01*
X73361Y943116D01*
X73349Y943129D01*
X73311Y943178D01*
X73236Y943241D01*
X73136Y943316D01*
X73011Y943391D01*
X72849Y943454D01*
X72649Y943503D01*
X72424Y943516D01*
X72336D01*
X72249Y943503D01*
X72124Y943478D01*
X71974Y943454D01*
X71824Y943403D01*
X71662Y943341D01*
X71499Y943253D01*
X71487Y943241D01*
X71424Y943204D01*
X71349Y943141D01*
X71262Y943054D01*
X71162Y942954D01*
X71062Y942816D01*
X70962Y942654D01*
X70874Y942479D01*
X70862Y942454D01*
X70849Y942391D01*
X70812Y942266D01*
X70787Y942116D01*
X70749Y941904D01*
X70712Y941654D01*
X70699Y941367D01*
X70687Y941029D01*
Y937430D01*
X69512D01*
Y944391D01*
X70562D01*
Y943403D01*
X70574Y943428D01*
X70624Y943491D01*
X70699Y943578D01*
X70799Y943703D01*
X70924Y943828D01*
X71074Y943966D01*
X71249Y944103D01*
X71437Y944228D01*
X71449D01*
X71462Y944241D01*
X71537Y944278D01*
X71649Y944328D01*
X71799Y944391D01*
X71986Y944441D01*
X72186Y944491D01*
X72424Y944528D01*
X72674Y944541D01*
X72799D01*
X72949Y944528D01*
X73124Y944503D01*
X73324Y944466D01*
X73536Y944403D01*
X73736Y944328D01*
X73936Y944216D01*
X73961Y944203D01*
X74023Y944153D01*
X74111Y944078D01*
X74211Y943978D01*
X74336Y943853D01*
X74448Y943703D01*
X74561Y943516D01*
X74648Y943316D01*
X74661Y943328D01*
X74686Y943366D01*
X74736Y943428D01*
X74798Y943503D01*
X74886Y943603D01*
X74986Y943703D01*
X75098Y943816D01*
X75223Y943928D01*
X75373Y944041D01*
X75536Y944153D01*
X75711Y944253D01*
X75898Y944353D01*
X76111Y944428D01*
X76323Y944491D01*
X76560Y944528D01*
X76798Y944541D01*
X76898D01*
X76973Y944528D01*
D02*
G37*
G36*
X34259Y944516D02*
X34409Y944491D01*
X34596Y944441D01*
X34808Y944378D01*
X35021Y944278D01*
X35258Y944153D01*
X34846Y943066D01*
X34821Y943079D01*
X34771Y943103D01*
X34684Y943141D01*
X34571Y943191D01*
X34446Y943241D01*
X34296Y943279D01*
X34134Y943304D01*
X33971Y943316D01*
X33909D01*
X33834Y943304D01*
X33734Y943291D01*
X33634Y943253D01*
X33509Y943216D01*
X33396Y943154D01*
X33271Y943079D01*
X33259Y943066D01*
X33221Y943041D01*
X33172Y942979D01*
X33109Y942904D01*
X33034Y942816D01*
X32959Y942704D01*
X32896Y942579D01*
X32834Y942429D01*
Y942416D01*
X32822Y942404D01*
Y942366D01*
X32809Y942316D01*
X32772Y942191D01*
X32747Y942029D01*
X32709Y941816D01*
X32672Y941591D01*
X32659Y941329D01*
X32647Y941054D01*
Y937430D01*
X31472D01*
Y944391D01*
X32534D01*
Y943328D01*
X32547Y943354D01*
X32572Y943391D01*
X32597Y943441D01*
X32684Y943566D01*
X32772Y943716D01*
X32884Y943891D01*
X33009Y944053D01*
X33147Y944191D01*
X33271Y944303D01*
X33284Y944316D01*
X33334Y944341D01*
X33409Y944378D01*
X33496Y944428D01*
X33609Y944466D01*
X33746Y944503D01*
X33884Y944528D01*
X34034Y944541D01*
X34134D01*
X34259Y944516D01*
D02*
G37*
G36*
X11777Y957430D02*
X10602D01*
Y964941D01*
X10577Y964928D01*
X10527Y964878D01*
X10427Y964791D01*
X10302Y964691D01*
X10140Y964566D01*
X9940Y964428D01*
X9728Y964278D01*
X9477Y964128D01*
X9465D01*
X9452Y964116D01*
X9415Y964091D01*
X9365Y964066D01*
X9228Y963991D01*
X9065Y963903D01*
X8878Y963803D01*
X8665Y963703D01*
X8453Y963603D01*
X8240Y963516D01*
Y964666D01*
X8253D01*
X8290Y964691D01*
X8340Y964716D01*
X8403Y964753D01*
X8490Y964791D01*
X8590Y964853D01*
X8828Y964978D01*
X9090Y965141D01*
X9390Y965340D01*
X9678Y965553D01*
X9965Y965790D01*
X9977Y965803D01*
X10002Y965815D01*
X10040Y965853D01*
X10090Y965903D01*
X10215Y966028D01*
X10377Y966203D01*
X10540Y966390D01*
X10715Y966615D01*
X10877Y966840D01*
X11015Y967077D01*
X11777D01*
Y957430D01*
D02*
G37*
G36*
X42057Y967065D02*
X42182Y967053D01*
X42319Y967040D01*
X42469Y967015D01*
X42632Y966978D01*
X42981Y966890D01*
X43156Y966828D01*
X43344Y966753D01*
X43531Y966665D01*
X43706Y966553D01*
X43869Y966440D01*
X44031Y966303D01*
X44044Y966290D01*
X44069Y966265D01*
X44106Y966228D01*
X44156Y966165D01*
X44219Y966090D01*
X44294Y966003D01*
X44356Y965903D01*
X44444Y965778D01*
X44519Y965653D01*
X44581Y965503D01*
X44718Y965178D01*
X44769Y965003D01*
X44806Y964816D01*
X44831Y964616D01*
X44844Y964403D01*
Y964378D01*
Y964303D01*
X44831Y964191D01*
X44819Y964041D01*
X44781Y963878D01*
X44743Y963678D01*
X44681Y963478D01*
X44606Y963266D01*
X44594Y963241D01*
X44556Y963166D01*
X44506Y963054D01*
X44419Y962916D01*
X44306Y962741D01*
X44169Y962541D01*
X44006Y962316D01*
X43819Y962091D01*
Y962079D01*
X43794Y962066D01*
X43756Y962029D01*
X43719Y961979D01*
X43656Y961916D01*
X43581Y961841D01*
X43494Y961754D01*
X43381Y961654D01*
X43269Y961542D01*
X43131Y961416D01*
X42981Y961266D01*
X42819Y961117D01*
X42632Y960954D01*
X42444Y960792D01*
X42219Y960604D01*
X41994Y960404D01*
X41982Y960392D01*
X41944Y960367D01*
X41894Y960317D01*
X41819Y960267D01*
X41744Y960192D01*
X41644Y960104D01*
X41432Y959917D01*
X41194Y959717D01*
X40970Y959517D01*
X40869Y959429D01*
X40782Y959342D01*
X40694Y959255D01*
X40632Y959192D01*
X40620Y959180D01*
X40582Y959142D01*
X40532Y959080D01*
X40457Y958992D01*
X40382Y958905D01*
X40295Y958792D01*
X40132Y958567D01*
X44856D01*
Y957430D01*
X38495D01*
Y957455D01*
Y957505D01*
Y957580D01*
X38508Y957692D01*
X38520Y957817D01*
X38545Y957955D01*
X38583Y958092D01*
X38633Y958242D01*
Y958255D01*
X38645Y958267D01*
X38658Y958305D01*
X38682Y958355D01*
X38733Y958480D01*
X38820Y958642D01*
X38932Y958842D01*
X39058Y959055D01*
X39220Y959279D01*
X39407Y959517D01*
X39420Y959529D01*
X39432Y959542D01*
X39470Y959579D01*
X39507Y959629D01*
X39632Y959767D01*
X39807Y959942D01*
X40020Y960154D01*
X40282Y960404D01*
X40595Y960679D01*
X40957Y960979D01*
X40970Y960992D01*
X41020Y961042D01*
X41107Y961104D01*
X41207Y961191D01*
X41332Y961304D01*
X41482Y961429D01*
X41644Y961566D01*
X41807Y961716D01*
X42157Y962041D01*
X42507Y962379D01*
X42669Y962554D01*
X42819Y962716D01*
X42957Y962866D01*
X43069Y963016D01*
X43081Y963029D01*
X43094Y963054D01*
X43119Y963091D01*
X43156Y963141D01*
X43194Y963216D01*
X43244Y963291D01*
X43356Y963478D01*
X43456Y963691D01*
X43544Y963928D01*
X43606Y964191D01*
X43631Y964316D01*
Y964441D01*
Y964453D01*
Y964478D01*
Y964503D01*
X43619Y964553D01*
X43606Y964691D01*
X43569Y964853D01*
X43506Y965041D01*
X43419Y965228D01*
X43294Y965428D01*
X43119Y965615D01*
X43094Y965640D01*
X43031Y965690D01*
X42919Y965765D01*
X42769Y965865D01*
X42582Y965953D01*
X42357Y966028D01*
X42094Y966078D01*
X41807Y966103D01*
X41719D01*
X41669Y966090D01*
X41594D01*
X41507Y966078D01*
X41319Y966040D01*
X41107Y965978D01*
X40869Y965890D01*
X40644Y965765D01*
X40445Y965590D01*
X40420Y965565D01*
X40370Y965503D01*
X40282Y965378D01*
X40195Y965228D01*
X40095Y965016D01*
X40007Y964778D01*
X39957Y964503D01*
X39932Y964178D01*
X38720Y964303D01*
Y964316D01*
X38733Y964366D01*
Y964428D01*
X38745Y964528D01*
X38770Y964641D01*
X38795Y964766D01*
X38832Y964916D01*
X38883Y965066D01*
X38995Y965403D01*
X39070Y965578D01*
X39157Y965740D01*
X39257Y965915D01*
X39370Y966078D01*
X39495Y966228D01*
X39645Y966365D01*
X39657Y966378D01*
X39682Y966390D01*
X39732Y966428D01*
X39795Y966478D01*
X39882Y966528D01*
X39982Y966590D01*
X40095Y966653D01*
X40232Y966728D01*
X40382Y966790D01*
X40545Y966853D01*
X40719Y966915D01*
X40919Y966965D01*
X41119Y967015D01*
X41344Y967053D01*
X41582Y967065D01*
X41832Y967077D01*
X41969D01*
X42057Y967065D01*
D02*
G37*
G36*
X58028Y957430D02*
X56853D01*
Y964941D01*
X56828Y964928D01*
X56778Y964878D01*
X56678Y964791D01*
X56553Y964691D01*
X56391Y964566D01*
X56191Y964428D01*
X55978Y964278D01*
X55728Y964128D01*
X55716D01*
X55703Y964116D01*
X55666Y964091D01*
X55616Y964066D01*
X55478Y963991D01*
X55316Y963903D01*
X55128Y963803D01*
X54916Y963703D01*
X54703Y963603D01*
X54491Y963516D01*
Y964666D01*
X54503D01*
X54541Y964691D01*
X54591Y964716D01*
X54654Y964753D01*
X54741Y964791D01*
X54841Y964853D01*
X55078Y964978D01*
X55341Y965141D01*
X55641Y965340D01*
X55928Y965553D01*
X56216Y965790D01*
X56228Y965803D01*
X56253Y965815D01*
X56290Y965853D01*
X56340Y965903D01*
X56466Y966028D01*
X56628Y966203D01*
X56790Y966390D01*
X56965Y966615D01*
X57128Y966840D01*
X57265Y967077D01*
X58028D01*
Y957430D01*
D02*
G37*
G36*
X64376Y967065D02*
X64451D01*
X64638Y967040D01*
X64851Y967003D01*
X65076Y966940D01*
X65313Y966865D01*
X65538Y966765D01*
X65551D01*
X65563Y966753D01*
X65638Y966703D01*
X65738Y966640D01*
X65876Y966540D01*
X66026Y966403D01*
X66188Y966253D01*
X66350Y966078D01*
X66500Y965865D01*
Y965853D01*
X66513Y965840D01*
X66538Y965803D01*
X66563Y965765D01*
X66625Y965640D01*
X66713Y965465D01*
X66813Y965253D01*
X66913Y965016D01*
X67000Y964728D01*
X67088Y964428D01*
Y964416D01*
X67100Y964391D01*
X67113Y964341D01*
X67125Y964278D01*
X67138Y964191D01*
X67163Y964091D01*
X67175Y963966D01*
X67200Y963828D01*
X67225Y963678D01*
X67238Y963503D01*
X67263Y963328D01*
X67275Y963116D01*
X67288Y962904D01*
X67300Y962679D01*
X67313Y962429D01*
Y962166D01*
Y962141D01*
Y962091D01*
Y962004D01*
Y961879D01*
X67300Y961741D01*
Y961579D01*
X67288Y961392D01*
X67275Y961191D01*
X67225Y960754D01*
X67163Y960292D01*
X67075Y959842D01*
X67025Y959629D01*
X66963Y959429D01*
Y959417D01*
X66950Y959380D01*
X66925Y959330D01*
X66900Y959255D01*
X66863Y959167D01*
X66813Y959067D01*
X66700Y958842D01*
X66550Y958580D01*
X66375Y958317D01*
X66163Y958055D01*
X65913Y957830D01*
X65901D01*
X65888Y957805D01*
X65838Y957780D01*
X65788Y957742D01*
X65726Y957705D01*
X65638Y957655D01*
X65551Y957605D01*
X65438Y957555D01*
X65188Y957442D01*
X64888Y957355D01*
X64551Y957292D01*
X64363Y957280D01*
X64176Y957268D01*
X64113D01*
X64039Y957280D01*
X63951D01*
X63826Y957292D01*
X63701Y957318D01*
X63551Y957355D01*
X63389Y957393D01*
X63214Y957442D01*
X63039Y957505D01*
X62851Y957592D01*
X62664Y957680D01*
X62489Y957792D01*
X62314Y957930D01*
X62151Y958080D01*
X61989Y958255D01*
X61977Y958267D01*
X61952Y958317D01*
X61902Y958380D01*
X61839Y958480D01*
X61777Y958617D01*
X61689Y958780D01*
X61614Y958967D01*
X61527Y959192D01*
X61439Y959454D01*
X61352Y959742D01*
X61264Y960054D01*
X61202Y960417D01*
X61139Y960804D01*
X61089Y961217D01*
X61064Y961679D01*
X61052Y962166D01*
Y962191D01*
Y962241D01*
Y962329D01*
Y962454D01*
X61064Y962591D01*
X61077Y962754D01*
Y962941D01*
X61102Y963141D01*
X61139Y963578D01*
X61202Y964041D01*
X61289Y964491D01*
X61339Y964703D01*
X61402Y964903D01*
Y964916D01*
X61414Y964953D01*
X61439Y965003D01*
X61464Y965078D01*
X61502Y965165D01*
X61552Y965266D01*
X61664Y965503D01*
X61814Y965753D01*
X61989Y966028D01*
X62201Y966290D01*
X62439Y966515D01*
X62452Y966528D01*
X62477Y966540D01*
X62514Y966565D01*
X62564Y966603D01*
X62626Y966640D01*
X62714Y966690D01*
X62801Y966740D01*
X62914Y966803D01*
X63164Y966903D01*
X63464Y966990D01*
X63801Y967053D01*
X63989Y967077D01*
X64301D01*
X64376Y967065D01*
D02*
G37*
G36*
X3204D02*
X3279D01*
X3467Y967040D01*
X3679Y967003D01*
X3904Y966940D01*
X4141Y966865D01*
X4366Y966765D01*
X4379D01*
X4391Y966753D01*
X4466Y966703D01*
X4566Y966640D01*
X4704Y966540D01*
X4854Y966403D01*
X5016Y966253D01*
X5179Y966078D01*
X5329Y965865D01*
Y965853D01*
X5341Y965840D01*
X5366Y965803D01*
X5391Y965765D01*
X5454Y965640D01*
X5541Y965465D01*
X5641Y965253D01*
X5741Y965016D01*
X5828Y964728D01*
X5916Y964428D01*
Y964416D01*
X5928Y964391D01*
X5941Y964341D01*
X5953Y964278D01*
X5966Y964191D01*
X5991Y964091D01*
X6003Y963966D01*
X6028Y963828D01*
X6053Y963678D01*
X6066Y963503D01*
X6091Y963328D01*
X6103Y963116D01*
X6116Y962904D01*
X6128Y962679D01*
X6141Y962429D01*
Y962166D01*
Y962141D01*
Y962091D01*
Y962004D01*
Y961879D01*
X6128Y961741D01*
Y961579D01*
X6116Y961392D01*
X6103Y961191D01*
X6053Y960754D01*
X5991Y960292D01*
X5903Y959842D01*
X5853Y959629D01*
X5791Y959429D01*
Y959417D01*
X5778Y959380D01*
X5753Y959330D01*
X5728Y959255D01*
X5691Y959167D01*
X5641Y959067D01*
X5529Y958842D01*
X5379Y958580D01*
X5204Y958317D01*
X4991Y958055D01*
X4741Y957830D01*
X4729D01*
X4716Y957805D01*
X4666Y957780D01*
X4616Y957742D01*
X4554Y957705D01*
X4466Y957655D01*
X4379Y957605D01*
X4266Y957555D01*
X4016Y957442D01*
X3717Y957355D01*
X3379Y957292D01*
X3192Y957280D01*
X3004Y957268D01*
X2942D01*
X2867Y957280D01*
X2779D01*
X2654Y957292D01*
X2529Y957318D01*
X2379Y957355D01*
X2217Y957393D01*
X2042Y957442D01*
X1867Y957505D01*
X1680Y957592D01*
X1492Y957680D01*
X1317Y957792D01*
X1142Y957930D01*
X980Y958080D01*
X817Y958255D01*
X805Y958267D01*
X780Y958317D01*
X730Y958380D01*
X667Y958480D01*
X605Y958617D01*
X517Y958780D01*
X442Y958967D01*
X355Y959192D01*
X267Y959454D01*
X180Y959742D01*
X92Y960054D01*
X30Y960417D01*
X-33Y960804D01*
X-82Y961217D01*
X-108Y961679D01*
X-120Y962166D01*
Y962191D01*
Y962241D01*
Y962329D01*
Y962454D01*
X-108Y962591D01*
X-95Y962754D01*
Y962941D01*
X-70Y963141D01*
X-33Y963578D01*
X30Y964041D01*
X117Y964491D01*
X167Y964703D01*
X230Y964903D01*
Y964916D01*
X242Y964953D01*
X267Y965003D01*
X292Y965078D01*
X330Y965165D01*
X380Y965266D01*
X492Y965503D01*
X642Y965753D01*
X817Y966028D01*
X1030Y966290D01*
X1267Y966515D01*
X1280Y966528D01*
X1305Y966540D01*
X1342Y966565D01*
X1392Y966603D01*
X1455Y966640D01*
X1542Y966690D01*
X1629Y966740D01*
X1742Y966803D01*
X1992Y966903D01*
X2292Y966990D01*
X2629Y967053D01*
X2817Y967077D01*
X3129D01*
X3204Y967065D01*
D02*
G37*
G36*
X22599D02*
X22674D01*
X22862Y967040D01*
X23074Y967003D01*
X23299Y966940D01*
X23536Y966865D01*
X23761Y966765D01*
X23774D01*
X23786Y966753D01*
X23861Y966703D01*
X23961Y966640D01*
X24099Y966540D01*
X24249Y966403D01*
X24411Y966253D01*
X24574Y966078D01*
X24724Y965865D01*
Y965853D01*
X24736Y965840D01*
X24761Y965803D01*
X24786Y965765D01*
X24849Y965640D01*
X24936Y965465D01*
X25036Y965253D01*
X25136Y965016D01*
X25224Y964728D01*
X25311Y964428D01*
Y964416D01*
X25324Y964391D01*
X25336Y964341D01*
X25348Y964278D01*
X25361Y964191D01*
X25386Y964091D01*
X25398Y963966D01*
X25423Y963828D01*
X25448Y963678D01*
X25461Y963503D01*
X25486Y963328D01*
X25498Y963116D01*
X25511Y962904D01*
X25523Y962679D01*
X25536Y962429D01*
Y962166D01*
Y962141D01*
Y962091D01*
Y962004D01*
Y961879D01*
X25523Y961741D01*
Y961579D01*
X25511Y961392D01*
X25498Y961191D01*
X25448Y960754D01*
X25386Y960292D01*
X25299Y959842D01*
X25248Y959629D01*
X25186Y959429D01*
Y959417D01*
X25173Y959380D01*
X25148Y959330D01*
X25124Y959255D01*
X25086Y959167D01*
X25036Y959067D01*
X24924Y958842D01*
X24774Y958580D01*
X24599Y958317D01*
X24386Y958055D01*
X24136Y957830D01*
X24124D01*
X24111Y957805D01*
X24061Y957780D01*
X24011Y957742D01*
X23949Y957705D01*
X23861Y957655D01*
X23774Y957605D01*
X23661Y957555D01*
X23412Y957442D01*
X23112Y957355D01*
X22774Y957292D01*
X22587Y957280D01*
X22399Y957268D01*
X22337D01*
X22262Y957280D01*
X22174D01*
X22049Y957292D01*
X21924Y957318D01*
X21774Y957355D01*
X21612Y957393D01*
X21437Y957442D01*
X21262Y957505D01*
X21075Y957592D01*
X20887Y957680D01*
X20712Y957792D01*
X20537Y957930D01*
X20375Y958080D01*
X20212Y958255D01*
X20200Y958267D01*
X20175Y958317D01*
X20125Y958380D01*
X20062Y958480D01*
X20000Y958617D01*
X19912Y958780D01*
X19837Y958967D01*
X19750Y959192D01*
X19662Y959454D01*
X19575Y959742D01*
X19488Y960054D01*
X19425Y960417D01*
X19362Y960804D01*
X19312Y961217D01*
X19288Y961679D01*
X19275Y962166D01*
Y962191D01*
Y962241D01*
Y962329D01*
Y962454D01*
X19288Y962591D01*
X19300Y962754D01*
Y962941D01*
X19325Y963141D01*
X19362Y963578D01*
X19425Y964041D01*
X19512Y964491D01*
X19562Y964703D01*
X19625Y964903D01*
Y964916D01*
X19637Y964953D01*
X19662Y965003D01*
X19687Y965078D01*
X19725Y965165D01*
X19775Y965266D01*
X19887Y965503D01*
X20037Y965753D01*
X20212Y966028D01*
X20425Y966290D01*
X20662Y966515D01*
X20675Y966528D01*
X20700Y966540D01*
X20737Y966565D01*
X20787Y966603D01*
X20850Y966640D01*
X20937Y966690D01*
X21025Y966740D01*
X21137Y966803D01*
X21387Y966903D01*
X21687Y966990D01*
X22024Y967053D01*
X22212Y967077D01*
X22524D01*
X22599Y967065D01*
D02*
G37*
G36*
X49455D02*
X49530D01*
X49717Y967040D01*
X49930Y967003D01*
X50155Y966940D01*
X50392Y966865D01*
X50617Y966765D01*
X50630D01*
X50642Y966753D01*
X50717Y966703D01*
X50817Y966640D01*
X50954Y966540D01*
X51104Y966403D01*
X51267Y966253D01*
X51429Y966078D01*
X51579Y965865D01*
Y965853D01*
X51592Y965840D01*
X51617Y965803D01*
X51642Y965765D01*
X51704Y965640D01*
X51792Y965465D01*
X51892Y965253D01*
X51992Y965016D01*
X52079Y964728D01*
X52167Y964428D01*
Y964416D01*
X52179Y964391D01*
X52192Y964341D01*
X52204Y964278D01*
X52217Y964191D01*
X52242Y964091D01*
X52254Y963966D01*
X52279Y963828D01*
X52304Y963678D01*
X52317Y963503D01*
X52342Y963328D01*
X52354Y963116D01*
X52366Y962904D01*
X52379Y962679D01*
X52392Y962429D01*
Y962166D01*
Y962141D01*
Y962091D01*
Y962004D01*
Y961879D01*
X52379Y961741D01*
Y961579D01*
X52366Y961392D01*
X52354Y961191D01*
X52304Y960754D01*
X52242Y960292D01*
X52154Y959842D01*
X52104Y959629D01*
X52042Y959429D01*
Y959417D01*
X52029Y959380D01*
X52004Y959330D01*
X51979Y959255D01*
X51942Y959167D01*
X51892Y959067D01*
X51779Y958842D01*
X51629Y958580D01*
X51454Y958317D01*
X51242Y958055D01*
X50992Y957830D01*
X50979D01*
X50967Y957805D01*
X50917Y957780D01*
X50867Y957742D01*
X50804Y957705D01*
X50717Y957655D01*
X50630Y957605D01*
X50517Y957555D01*
X50267Y957442D01*
X49967Y957355D01*
X49630Y957292D01*
X49442Y957280D01*
X49255Y957268D01*
X49192D01*
X49117Y957280D01*
X49030D01*
X48905Y957292D01*
X48780Y957318D01*
X48630Y957355D01*
X48467Y957393D01*
X48293Y957442D01*
X48118Y957505D01*
X47930Y957592D01*
X47743Y957680D01*
X47568Y957792D01*
X47393Y957930D01*
X47230Y958080D01*
X47068Y958255D01*
X47055Y958267D01*
X47030Y958317D01*
X46980Y958380D01*
X46918Y958480D01*
X46856Y958617D01*
X46768Y958780D01*
X46693Y958967D01*
X46606Y959192D01*
X46518Y959454D01*
X46431Y959742D01*
X46343Y960054D01*
X46281Y960417D01*
X46218Y960804D01*
X46168Y961217D01*
X46143Y961679D01*
X46131Y962166D01*
Y962191D01*
Y962241D01*
Y962329D01*
Y962454D01*
X46143Y962591D01*
X46156Y962754D01*
Y962941D01*
X46181Y963141D01*
X46218Y963578D01*
X46281Y964041D01*
X46368Y964491D01*
X46418Y964703D01*
X46481Y964903D01*
Y964916D01*
X46493Y964953D01*
X46518Y965003D01*
X46543Y965078D01*
X46581Y965165D01*
X46631Y965266D01*
X46743Y965503D01*
X46893Y965753D01*
X47068Y966028D01*
X47280Y966290D01*
X47518Y966515D01*
X47530Y966528D01*
X47555Y966540D01*
X47593Y966565D01*
X47643Y966603D01*
X47705Y966640D01*
X47793Y966690D01*
X47880Y966740D01*
X47993Y966803D01*
X48243Y966903D01*
X48542Y966990D01*
X48880Y967053D01*
X49067Y967077D01*
X49380D01*
X49455Y967065D01*
D02*
G37*
G36*
X18288Y960317D02*
X14664D01*
Y961504D01*
X18288D01*
Y960317D01*
D02*
G37*
G36*
X65113Y944528D02*
X65238Y944516D01*
X65376Y944491D01*
X65538Y944466D01*
X65713Y944428D01*
X65888Y944378D01*
X66076Y944303D01*
X66276Y944228D01*
X66475Y944141D01*
X66675Y944028D01*
X66863Y943903D01*
X67050Y943753D01*
X67225Y943591D01*
X67238Y943578D01*
X67263Y943553D01*
X67313Y943491D01*
X67363Y943416D01*
X67438Y943328D01*
X67513Y943204D01*
X67600Y943066D01*
X67688Y942916D01*
X67763Y942741D01*
X67850Y942554D01*
X67925Y942341D01*
X68000Y942104D01*
X68050Y941854D01*
X68100Y941591D01*
X68125Y941304D01*
X68137Y941004D01*
Y940992D01*
Y940942D01*
Y940879D01*
Y940779D01*
X68125Y940667D01*
X68113Y940542D01*
X68100Y940392D01*
X68088Y940242D01*
X68038Y939904D01*
X67963Y939555D01*
X67863Y939204D01*
X67800Y939042D01*
X67725Y938892D01*
Y938880D01*
X67713Y938855D01*
X67688Y938817D01*
X67650Y938767D01*
X67563Y938630D01*
X67425Y938455D01*
X67263Y938267D01*
X67063Y938067D01*
X66825Y937880D01*
X66550Y937705D01*
X66538D01*
X66513Y937692D01*
X66475Y937667D01*
X66413Y937642D01*
X66350Y937605D01*
X66263Y937568D01*
X66051Y937493D01*
X65813Y937418D01*
X65526Y937343D01*
X65213Y937292D01*
X64876Y937280D01*
X64813D01*
X64738Y937292D01*
X64638D01*
X64513Y937305D01*
X64376Y937330D01*
X64214Y937355D01*
X64039Y937393D01*
X63851Y937442D01*
X63664Y937505D01*
X63476Y937580D01*
X63276Y937667D01*
X63076Y937780D01*
X62889Y937905D01*
X62701Y938042D01*
X62526Y938205D01*
X62514Y938217D01*
X62489Y938255D01*
X62439Y938305D01*
X62389Y938380D01*
X62314Y938480D01*
X62239Y938592D01*
X62164Y938730D01*
X62077Y938892D01*
X61989Y939080D01*
X61914Y939279D01*
X61839Y939492D01*
X61764Y939742D01*
X61714Y940004D01*
X61664Y940279D01*
X61639Y940579D01*
X61627Y940904D01*
Y940929D01*
Y940992D01*
X61639Y941092D01*
Y941217D01*
X61664Y941379D01*
X61689Y941566D01*
X61714Y941766D01*
X61764Y941979D01*
X61814Y942216D01*
X61889Y942454D01*
X61977Y942691D01*
X62077Y942929D01*
X62201Y943154D01*
X62339Y943379D01*
X62501Y943578D01*
X62689Y943766D01*
X62701Y943778D01*
X62726Y943803D01*
X62776Y943841D01*
X62851Y943891D01*
X62939Y943941D01*
X63039Y944016D01*
X63164Y944078D01*
X63301Y944153D01*
X63451Y944228D01*
X63614Y944291D01*
X63801Y944366D01*
X63989Y944416D01*
X64201Y944466D01*
X64413Y944503D01*
X64638Y944528D01*
X64876Y944541D01*
X65013D01*
X65113Y944528D01*
D02*
G37*
G36*
X83784D02*
X83896Y944516D01*
X84033Y944491D01*
X84196Y944466D01*
X84358Y944428D01*
X84533Y944378D01*
X84721Y944303D01*
X84908Y944228D01*
X85096Y944141D01*
X85296Y944028D01*
X85483Y943903D01*
X85658Y943753D01*
X85833Y943591D01*
X85845Y943578D01*
X85871Y943541D01*
X85920Y943491D01*
X85970Y943416D01*
X86033Y943316D01*
X86108Y943204D01*
X86195Y943066D01*
X86283Y942904D01*
X86358Y942716D01*
X86445Y942516D01*
X86520Y942304D01*
X86583Y942066D01*
X86633Y941804D01*
X86683Y941529D01*
X86708Y941229D01*
X86720Y940917D01*
Y940892D01*
Y940842D01*
Y940742D01*
X86708Y940604D01*
X81522D01*
Y940592D01*
Y940554D01*
X81534Y940492D01*
X81547Y940417D01*
X81559Y940317D01*
X81572Y940204D01*
X81622Y939954D01*
X81709Y939667D01*
X81821Y939380D01*
X81972Y939105D01*
X82059Y938980D01*
X82159Y938855D01*
X82171Y938842D01*
X82184Y938830D01*
X82221Y938805D01*
X82259Y938767D01*
X82396Y938667D01*
X82559Y938555D01*
X82771Y938442D01*
X83021Y938355D01*
X83309Y938280D01*
X83459Y938267D01*
X83621Y938255D01*
X83734D01*
X83846Y938267D01*
X84008Y938292D01*
X84171Y938342D01*
X84358Y938392D01*
X84546Y938480D01*
X84721Y938592D01*
X84746Y938605D01*
X84796Y938655D01*
X84883Y938742D01*
X84983Y938855D01*
X85096Y939005D01*
X85221Y939204D01*
X85346Y939429D01*
X85446Y939692D01*
X86670Y939529D01*
Y939517D01*
X86658Y939480D01*
X86645Y939429D01*
X86608Y939354D01*
X86583Y939267D01*
X86533Y939155D01*
X86433Y938917D01*
X86283Y938655D01*
X86095Y938380D01*
X85871Y938105D01*
X85608Y937867D01*
X85596D01*
X85570Y937842D01*
X85533Y937817D01*
X85471Y937780D01*
X85396Y937730D01*
X85296Y937680D01*
X85196Y937630D01*
X85071Y937580D01*
X84933Y937517D01*
X84783Y937467D01*
X84621Y937418D01*
X84446Y937367D01*
X84058Y937305D01*
X83846Y937292D01*
X83621Y937280D01*
X83559D01*
X83471Y937292D01*
X83371D01*
X83246Y937305D01*
X83096Y937330D01*
X82921Y937355D01*
X82746Y937393D01*
X82559Y937442D01*
X82359Y937505D01*
X82159Y937580D01*
X81959Y937680D01*
X81759Y937780D01*
X81559Y937905D01*
X81372Y938055D01*
X81197Y938217D01*
X81184Y938230D01*
X81159Y938267D01*
X81109Y938317D01*
X81059Y938392D01*
X80997Y938492D01*
X80922Y938605D01*
X80834Y938742D01*
X80759Y938892D01*
X80672Y939080D01*
X80584Y939267D01*
X80509Y939492D01*
X80447Y939717D01*
X80397Y939979D01*
X80347Y940242D01*
X80322Y940529D01*
X80309Y940842D01*
Y940867D01*
Y940917D01*
X80322Y941017D01*
Y941129D01*
X80334Y941279D01*
X80359Y941454D01*
X80384Y941641D01*
X80422Y941841D01*
X80472Y942054D01*
X80534Y942279D01*
X80597Y942504D01*
X80684Y942729D01*
X80797Y942954D01*
X80909Y943178D01*
X81047Y943379D01*
X81209Y943566D01*
X81222Y943578D01*
X81247Y943603D01*
X81297Y943653D01*
X81372Y943716D01*
X81459Y943791D01*
X81572Y943878D01*
X81697Y943966D01*
X81834Y944053D01*
X81996Y944141D01*
X82171Y944228D01*
X82371Y944316D01*
X82571Y944391D01*
X82796Y944453D01*
X83034Y944503D01*
X83284Y944528D01*
X83546Y944541D01*
X83684D01*
X83784Y944528D01*
D02*
G37*
G36*
X94968D02*
X95081Y944516D01*
X95218Y944491D01*
X95380Y944466D01*
X95543Y944428D01*
X95718Y944378D01*
X95905Y944303D01*
X96093Y944228D01*
X96280Y944141D01*
X96480Y944028D01*
X96668Y943903D01*
X96843Y943753D01*
X97018Y943591D01*
X97030Y943578D01*
X97055Y943541D01*
X97105Y943491D01*
X97155Y943416D01*
X97218Y943316D01*
X97292Y943204D01*
X97380Y943066D01*
X97467Y942904D01*
X97542Y942716D01*
X97630Y942516D01*
X97705Y942304D01*
X97767Y942066D01*
X97817Y941804D01*
X97867Y941529D01*
X97892Y941229D01*
X97905Y940917D01*
Y940892D01*
Y940842D01*
Y940742D01*
X97892Y940604D01*
X92706D01*
Y940592D01*
Y940554D01*
X92719Y940492D01*
X92731Y940417D01*
X92744Y940317D01*
X92756Y940204D01*
X92806Y939954D01*
X92894Y939667D01*
X93006Y939380D01*
X93156Y939105D01*
X93244Y938980D01*
X93344Y938855D01*
X93356Y938842D01*
X93369Y938830D01*
X93406Y938805D01*
X93443Y938767D01*
X93581Y938667D01*
X93743Y938555D01*
X93956Y938442D01*
X94206Y938355D01*
X94493Y938280D01*
X94643Y938267D01*
X94806Y938255D01*
X94918D01*
X95031Y938267D01*
X95193Y938292D01*
X95356Y938342D01*
X95543Y938392D01*
X95730Y938480D01*
X95905Y938592D01*
X95930Y938605D01*
X95980Y938655D01*
X96068Y938742D01*
X96168Y938855D01*
X96280Y939005D01*
X96405Y939204D01*
X96530Y939429D01*
X96630Y939692D01*
X97855Y939529D01*
Y939517D01*
X97842Y939480D01*
X97830Y939429D01*
X97792Y939354D01*
X97767Y939267D01*
X97717Y939155D01*
X97618Y938917D01*
X97467Y938655D01*
X97280Y938380D01*
X97055Y938105D01*
X96793Y937867D01*
X96780D01*
X96755Y937842D01*
X96718Y937817D01*
X96655Y937780D01*
X96580Y937730D01*
X96480Y937680D01*
X96380Y937630D01*
X96255Y937580D01*
X96118Y937517D01*
X95968Y937467D01*
X95805Y937418D01*
X95631Y937367D01*
X95243Y937305D01*
X95031Y937292D01*
X94806Y937280D01*
X94743D01*
X94656Y937292D01*
X94556D01*
X94431Y937305D01*
X94281Y937330D01*
X94106Y937355D01*
X93931Y937393D01*
X93743Y937442D01*
X93544Y937505D01*
X93344Y937580D01*
X93144Y937680D01*
X92944Y937780D01*
X92744Y937905D01*
X92556Y938055D01*
X92381Y938217D01*
X92369Y938230D01*
X92344Y938267D01*
X92294Y938317D01*
X92244Y938392D01*
X92181Y938492D01*
X92106Y938605D01*
X92019Y938742D01*
X91944Y938892D01*
X91856Y939080D01*
X91769Y939267D01*
X91694Y939492D01*
X91631Y939717D01*
X91581Y939979D01*
X91531Y940242D01*
X91507Y940529D01*
X91494Y940842D01*
Y940867D01*
Y940917D01*
X91507Y941017D01*
Y941129D01*
X91519Y941279D01*
X91544Y941454D01*
X91569Y941641D01*
X91607Y941841D01*
X91657Y942054D01*
X91719Y942279D01*
X91782Y942504D01*
X91869Y942729D01*
X91981Y942954D01*
X92094Y943178D01*
X92231Y943379D01*
X92394Y943566D01*
X92406Y943578D01*
X92431Y943603D01*
X92481Y943653D01*
X92556Y943716D01*
X92644Y943791D01*
X92756Y943878D01*
X92881Y943966D01*
X93019Y944053D01*
X93181Y944141D01*
X93356Y944228D01*
X93556Y944316D01*
X93756Y944391D01*
X93981Y944453D01*
X94218Y944503D01*
X94468Y944528D01*
X94731Y944541D01*
X94868D01*
X94968Y944528D01*
D02*
G37*
G36*
X39032D02*
X39145Y944516D01*
X39282Y944491D01*
X39445Y944466D01*
X39607Y944428D01*
X39782Y944378D01*
X39970Y944303D01*
X40157Y944228D01*
X40345Y944141D01*
X40545Y944028D01*
X40732Y943903D01*
X40907Y943753D01*
X41082Y943591D01*
X41094Y943578D01*
X41119Y943541D01*
X41169Y943491D01*
X41219Y943416D01*
X41282Y943316D01*
X41357Y943204D01*
X41444Y943066D01*
X41532Y942904D01*
X41607Y942716D01*
X41694Y942516D01*
X41769Y942304D01*
X41832Y942066D01*
X41882Y941804D01*
X41932Y941529D01*
X41957Y941229D01*
X41969Y940917D01*
Y940892D01*
Y940842D01*
Y940742D01*
X41957Y940604D01*
X36771D01*
Y940592D01*
Y940554D01*
X36783Y940492D01*
X36795Y940417D01*
X36808Y940317D01*
X36820Y940204D01*
X36871Y939954D01*
X36958Y939667D01*
X37071Y939380D01*
X37220Y939105D01*
X37308Y938980D01*
X37408Y938855D01*
X37420Y938842D01*
X37433Y938830D01*
X37470Y938805D01*
X37508Y938767D01*
X37645Y938667D01*
X37808Y938555D01*
X38020Y938442D01*
X38270Y938355D01*
X38558Y938280D01*
X38707Y938267D01*
X38870Y938255D01*
X38983D01*
X39095Y938267D01*
X39257Y938292D01*
X39420Y938342D01*
X39607Y938392D01*
X39795Y938480D01*
X39970Y938592D01*
X39995Y938605D01*
X40045Y938655D01*
X40132Y938742D01*
X40232Y938855D01*
X40345Y939005D01*
X40470Y939204D01*
X40595Y939429D01*
X40694Y939692D01*
X41919Y939529D01*
Y939517D01*
X41907Y939480D01*
X41894Y939429D01*
X41857Y939354D01*
X41832Y939267D01*
X41782Y939155D01*
X41682Y938917D01*
X41532Y938655D01*
X41344Y938380D01*
X41119Y938105D01*
X40857Y937867D01*
X40844D01*
X40820Y937842D01*
X40782Y937817D01*
X40719Y937780D01*
X40644Y937730D01*
X40545Y937680D01*
X40445Y937630D01*
X40320Y937580D01*
X40182Y937517D01*
X40032Y937467D01*
X39870Y937418D01*
X39695Y937367D01*
X39307Y937305D01*
X39095Y937292D01*
X38870Y937280D01*
X38807D01*
X38720Y937292D01*
X38620D01*
X38495Y937305D01*
X38345Y937330D01*
X38170Y937355D01*
X37995Y937393D01*
X37808Y937442D01*
X37608Y937505D01*
X37408Y937580D01*
X37208Y937680D01*
X37008Y937780D01*
X36808Y937905D01*
X36621Y938055D01*
X36446Y938217D01*
X36433Y938230D01*
X36408Y938267D01*
X36358Y938317D01*
X36308Y938392D01*
X36246Y938492D01*
X36171Y938605D01*
X36083Y938742D01*
X36008Y938892D01*
X35921Y939080D01*
X35833Y939267D01*
X35758Y939492D01*
X35696Y939717D01*
X35646Y939979D01*
X35596Y940242D01*
X35571Y940529D01*
X35558Y940842D01*
Y940867D01*
Y940917D01*
X35571Y941017D01*
Y941129D01*
X35583Y941279D01*
X35608Y941454D01*
X35633Y941641D01*
X35671Y941841D01*
X35721Y942054D01*
X35783Y942279D01*
X35846Y942504D01*
X35933Y942729D01*
X36046Y942954D01*
X36158Y943178D01*
X36296Y943379D01*
X36458Y943566D01*
X36471Y943578D01*
X36496Y943603D01*
X36546Y943653D01*
X36621Y943716D01*
X36708Y943791D01*
X36820Y943878D01*
X36946Y943966D01*
X37083Y944053D01*
X37245Y944141D01*
X37420Y944228D01*
X37620Y944316D01*
X37820Y944391D01*
X38045Y944453D01*
X38283Y944503D01*
X38533Y944528D01*
X38795Y944541D01*
X38932D01*
X39032Y944528D01*
D02*
G37*
G36*
X37683Y960317D02*
X34059D01*
Y961504D01*
X37683D01*
Y960317D01*
D02*
G37*
G36*
X30310Y967065D02*
X30410Y967053D01*
X30522Y967040D01*
X30647Y967028D01*
X30785Y967003D01*
X31072Y966928D01*
X31384Y966815D01*
X31547Y966740D01*
X31697Y966653D01*
X31847Y966553D01*
X31984Y966440D01*
X31997Y966428D01*
X32022Y966415D01*
X32047Y966378D01*
X32097Y966328D01*
X32159Y966253D01*
X32222Y966178D01*
X32297Y966090D01*
X32372Y965978D01*
X32447Y965865D01*
X32522Y965728D01*
X32584Y965590D01*
X32659Y965428D01*
X32784Y965091D01*
X32822Y964891D01*
X32859Y964691D01*
X31684Y964603D01*
Y964616D01*
X31672Y964628D01*
Y964666D01*
X31659Y964716D01*
X31622Y964841D01*
X31572Y964991D01*
X31509Y965153D01*
X31422Y965315D01*
X31334Y965465D01*
X31235Y965603D01*
X31209Y965628D01*
X31147Y965678D01*
X31047Y965765D01*
X30910Y965853D01*
X30735Y965940D01*
X30535Y966028D01*
X30297Y966078D01*
X30047Y966103D01*
X29947D01*
X29847Y966090D01*
X29710Y966065D01*
X29560Y966028D01*
X29385Y965965D01*
X29223Y965890D01*
X29048Y965778D01*
X29023Y965765D01*
X28960Y965703D01*
X28860Y965615D01*
X28735Y965478D01*
X28598Y965315D01*
X28448Y965116D01*
X28310Y964878D01*
X28173Y964603D01*
Y964591D01*
X28160Y964566D01*
X28148Y964528D01*
X28123Y964466D01*
X28098Y964378D01*
X28073Y964278D01*
X28048Y964166D01*
X28010Y964041D01*
X27985Y963891D01*
X27960Y963716D01*
X27935Y963541D01*
X27910Y963341D01*
X27885Y963129D01*
X27860Y962891D01*
X27848Y962641D01*
Y962391D01*
X27873Y962404D01*
X27923Y962491D01*
X28010Y962604D01*
X28135Y962741D01*
X28285Y962904D01*
X28460Y963054D01*
X28660Y963216D01*
X28885Y963341D01*
X28898D01*
X28910Y963354D01*
X28948Y963366D01*
X28997Y963391D01*
X29110Y963441D01*
X29272Y963503D01*
X29472Y963566D01*
X29685Y963616D01*
X29922Y963653D01*
X30172Y963666D01*
X30285D01*
X30372Y963653D01*
X30472Y963641D01*
X30597Y963616D01*
X30722Y963591D01*
X30872Y963553D01*
X31022Y963516D01*
X31184Y963454D01*
X31347Y963379D01*
X31522Y963304D01*
X31697Y963191D01*
X31859Y963079D01*
X32022Y962941D01*
X32184Y962791D01*
X32197Y962779D01*
X32222Y962754D01*
X32259Y962704D01*
X32322Y962629D01*
X32384Y962541D01*
X32447Y962441D01*
X32522Y962316D01*
X32609Y962179D01*
X32684Y962029D01*
X32759Y961854D01*
X32822Y961679D01*
X32896Y961479D01*
X32947Y961254D01*
X32984Y961029D01*
X33009Y960792D01*
X33022Y960542D01*
Y960529D01*
Y960504D01*
Y960454D01*
Y960392D01*
X33009Y960304D01*
X32996Y960217D01*
X32971Y959992D01*
X32922Y959742D01*
X32859Y959454D01*
X32759Y959167D01*
X32622Y958867D01*
Y958855D01*
X32609Y958830D01*
X32584Y958792D01*
X32547Y958742D01*
X32459Y958605D01*
X32347Y958430D01*
X32184Y958242D01*
X32009Y958042D01*
X31797Y957855D01*
X31547Y957680D01*
X31534D01*
X31522Y957667D01*
X31484Y957643D01*
X31434Y957617D01*
X31359Y957580D01*
X31284Y957555D01*
X31097Y957480D01*
X30872Y957393D01*
X30610Y957330D01*
X30322Y957280D01*
X30010Y957268D01*
X29947D01*
X29872Y957280D01*
X29760D01*
X29635Y957305D01*
X29497Y957330D01*
X29335Y957355D01*
X29160Y957405D01*
X28972Y957455D01*
X28773Y957530D01*
X28573Y957617D01*
X28373Y957717D01*
X28173Y957842D01*
X27973Y957992D01*
X27785Y958155D01*
X27598Y958342D01*
X27585Y958355D01*
X27560Y958392D01*
X27510Y958455D01*
X27448Y958555D01*
X27385Y958667D01*
X27311Y958817D01*
X27223Y958992D01*
X27136Y959192D01*
X27048Y959429D01*
X26961Y959692D01*
X26886Y959992D01*
X26823Y960304D01*
X26761Y960667D01*
X26711Y961054D01*
X26686Y961467D01*
X26673Y961916D01*
Y961929D01*
Y961954D01*
Y961991D01*
Y962041D01*
Y962104D01*
X26686Y962179D01*
Y962366D01*
X26711Y962604D01*
X26723Y962866D01*
X26761Y963154D01*
X26798Y963466D01*
X26861Y963791D01*
X26923Y964128D01*
X27011Y964466D01*
X27111Y964803D01*
X27223Y965128D01*
X27360Y965428D01*
X27523Y965715D01*
X27698Y965965D01*
X27710Y965978D01*
X27735Y966015D01*
X27785Y966065D01*
X27860Y966140D01*
X27948Y966228D01*
X28060Y966315D01*
X28198Y966415D01*
X28335Y966528D01*
X28498Y966628D01*
X28685Y966728D01*
X28885Y966815D01*
X29097Y966903D01*
X29335Y966978D01*
X29585Y967028D01*
X29847Y967065D01*
X30122Y967077D01*
X30235D01*
X30310Y967065D01*
D02*
G37*
G36*
X11739Y944528D02*
X11827D01*
X11939Y944503D01*
X12064Y944478D01*
X12202Y944453D01*
X12352Y944403D01*
X12514Y944353D01*
X12677Y944278D01*
X12839Y944191D01*
X13014Y944078D01*
X13177Y943953D01*
X13339Y943816D01*
X13489Y943641D01*
X13639Y943454D01*
Y944391D01*
X14701D01*
Y934768D01*
X13527D01*
Y938180D01*
X13514Y938167D01*
X13477Y938117D01*
X13414Y938042D01*
X13326Y937955D01*
X13214Y937855D01*
X13089Y937742D01*
X12927Y937630D01*
X12752Y937530D01*
X12727Y937517D01*
X12664Y937493D01*
X12564Y937455D01*
X12439Y937405D01*
X12289Y937355D01*
X12114Y937318D01*
X11914Y937292D01*
X11715Y937280D01*
X11665D01*
X11589Y937292D01*
X11502D01*
X11402Y937305D01*
X11277Y937330D01*
X11127Y937367D01*
X10977Y937405D01*
X10815Y937455D01*
X10640Y937517D01*
X10465Y937605D01*
X10277Y937692D01*
X10102Y937805D01*
X9915Y937942D01*
X9740Y938092D01*
X9565Y938267D01*
X9553Y938280D01*
X9528Y938317D01*
X9477Y938367D01*
X9427Y938455D01*
X9365Y938555D01*
X9290Y938667D01*
X9203Y938817D01*
X9128Y938980D01*
X9040Y939155D01*
X8953Y939354D01*
X8878Y939579D01*
X8815Y939817D01*
X8765Y940079D01*
X8715Y940354D01*
X8690Y940654D01*
X8678Y940967D01*
Y940979D01*
Y941017D01*
Y941067D01*
Y941142D01*
X8690Y941242D01*
X8703Y941341D01*
Y941467D01*
X8728Y941591D01*
X8765Y941891D01*
X8828Y942204D01*
X8915Y942529D01*
X9040Y942841D01*
Y942854D01*
X9053Y942879D01*
X9078Y942916D01*
X9103Y942979D01*
X9190Y943129D01*
X9303Y943316D01*
X9452Y943516D01*
X9640Y943728D01*
X9852Y943928D01*
X10090Y944103D01*
X10102D01*
X10127Y944128D01*
X10165Y944141D01*
X10215Y944178D01*
X10277Y944203D01*
X10352Y944241D01*
X10540Y944328D01*
X10765Y944403D01*
X11027Y944478D01*
X11315Y944528D01*
X11615Y944541D01*
X11677D01*
X11739Y944528D01*
D02*
G37*
G36*
X49067Y907190D02*
X49192Y907178D01*
X49342Y907165D01*
X49505Y907140D01*
X49680Y907115D01*
X50055Y907028D01*
X50255Y906965D01*
X50467Y906890D01*
X50667Y906803D01*
X50867Y906715D01*
X51067Y906590D01*
X51254Y906465D01*
X51267Y906453D01*
X51292Y906428D01*
X51354Y906390D01*
X51417Y906328D01*
X51492Y906253D01*
X51592Y906165D01*
X51692Y906053D01*
X51804Y905928D01*
X51917Y905790D01*
X52029Y905640D01*
X52142Y905465D01*
X52254Y905291D01*
X52367Y905090D01*
X52467Y904878D01*
X52566Y904641D01*
X52642Y904403D01*
X51392Y904103D01*
Y904116D01*
X51379Y904153D01*
X51354Y904203D01*
X51329Y904278D01*
X51292Y904366D01*
X51254Y904466D01*
X51142Y904691D01*
X51004Y904941D01*
X50842Y905191D01*
X50642Y905428D01*
X50529Y905528D01*
X50417Y905628D01*
X50405D01*
X50392Y905653D01*
X50355Y905678D01*
X50305Y905703D01*
X50242Y905740D01*
X50167Y905778D01*
X49980Y905878D01*
X49742Y905965D01*
X49467Y906040D01*
X49155Y906090D01*
X48805Y906115D01*
X48692D01*
X48618Y906103D01*
X48530D01*
X48418Y906090D01*
X48293Y906065D01*
X48155Y906053D01*
X47868Y905990D01*
X47555Y905890D01*
X47243Y905753D01*
X47093Y905678D01*
X46943Y905578D01*
X46930D01*
X46905Y905553D01*
X46868Y905528D01*
X46818Y905478D01*
X46693Y905366D01*
X46543Y905203D01*
X46368Y905003D01*
X46193Y904753D01*
X46031Y904478D01*
X45906Y904153D01*
Y904141D01*
X45893Y904116D01*
X45881Y904066D01*
X45856Y904003D01*
X45831Y903916D01*
X45806Y903816D01*
X45781Y903703D01*
X45756Y903591D01*
X45706Y903304D01*
X45656Y902991D01*
X45618Y902654D01*
X45606Y902304D01*
Y902291D01*
Y902254D01*
Y902191D01*
Y902104D01*
X45618Y901991D01*
X45631Y901866D01*
Y901729D01*
X45656Y901579D01*
X45693Y901242D01*
X45756Y900892D01*
X45843Y900517D01*
X45956Y900167D01*
Y900154D01*
X45968Y900129D01*
X45993Y900079D01*
X46031Y900017D01*
X46068Y899942D01*
X46106Y899854D01*
X46231Y899654D01*
X46393Y899429D01*
X46581Y899205D01*
X46806Y898992D01*
X47068Y898805D01*
X47080D01*
X47105Y898780D01*
X47143Y898767D01*
X47205Y898730D01*
X47268Y898705D01*
X47355Y898667D01*
X47555Y898580D01*
X47805Y898492D01*
X48080Y898430D01*
X48380Y898380D01*
X48705Y898355D01*
X48805D01*
X48880Y898367D01*
X48980Y898380D01*
X49080Y898392D01*
X49205Y898405D01*
X49330Y898430D01*
X49617Y898505D01*
X49917Y898617D01*
X50080Y898680D01*
X50230Y898767D01*
X50380Y898855D01*
X50517Y898967D01*
X50529Y898980D01*
X50554Y898992D01*
X50592Y899030D01*
X50642Y899080D01*
X50692Y899142D01*
X50767Y899230D01*
X50842Y899317D01*
X50917Y899429D01*
X51004Y899542D01*
X51092Y899679D01*
X51167Y899829D01*
X51254Y899992D01*
X51329Y900179D01*
X51404Y900367D01*
X51467Y900567D01*
X51529Y900792D01*
X52804Y900467D01*
Y900454D01*
X52779Y900404D01*
X52754Y900317D01*
X52729Y900204D01*
X52679Y900079D01*
X52617Y899929D01*
X52554Y899767D01*
X52467Y899579D01*
X52379Y899392D01*
X52267Y899192D01*
X52154Y899005D01*
X52017Y898805D01*
X51879Y898605D01*
X51717Y898417D01*
X51542Y898242D01*
X51354Y898080D01*
X51342Y898067D01*
X51304Y898042D01*
X51254Y898005D01*
X51167Y897955D01*
X51067Y897892D01*
X50942Y897817D01*
X50805Y897755D01*
X50655Y897680D01*
X50467Y897592D01*
X50280Y897530D01*
X50067Y897455D01*
X49842Y897393D01*
X49605Y897343D01*
X49355Y897305D01*
X49092Y897280D01*
X48818Y897268D01*
X48667D01*
X48555Y897280D01*
X48430Y897292D01*
X48268Y897305D01*
X48105Y897318D01*
X47918Y897343D01*
X47518Y897418D01*
X47093Y897530D01*
X46880Y897605D01*
X46668Y897692D01*
X46468Y897780D01*
X46281Y897892D01*
X46268Y897905D01*
X46243Y897917D01*
X46193Y897955D01*
X46118Y898017D01*
X46043Y898080D01*
X45943Y898155D01*
X45843Y898255D01*
X45731Y898367D01*
X45606Y898480D01*
X45493Y898617D01*
X45368Y898767D01*
X45243Y898942D01*
X45118Y899117D01*
X45006Y899305D01*
X44893Y899517D01*
X44794Y899729D01*
Y899742D01*
X44769Y899779D01*
X44743Y899854D01*
X44718Y899942D01*
X44681Y900054D01*
X44631Y900179D01*
X44594Y900329D01*
X44544Y900504D01*
X44494Y900692D01*
X44456Y900892D01*
X44406Y901104D01*
X44369Y901317D01*
X44319Y901804D01*
X44294Y902304D01*
Y902316D01*
Y902366D01*
Y902454D01*
X44306Y902554D01*
Y902691D01*
X44319Y902841D01*
X44344Y903004D01*
X44369Y903191D01*
X44394Y903391D01*
X44431Y903603D01*
X44531Y904041D01*
X44668Y904478D01*
X44756Y904703D01*
X44856Y904916D01*
X44868Y904928D01*
X44881Y904966D01*
X44918Y905028D01*
X44969Y905103D01*
X45019Y905191D01*
X45093Y905303D01*
X45181Y905415D01*
X45281Y905553D01*
X45506Y905828D01*
X45793Y906103D01*
X46118Y906378D01*
X46306Y906503D01*
X46493Y906615D01*
X46506Y906628D01*
X46543Y906640D01*
X46606Y906665D01*
X46680Y906703D01*
X46781Y906753D01*
X46893Y906803D01*
X47030Y906853D01*
X47180Y906915D01*
X47355Y906965D01*
X47530Y907015D01*
X47930Y907115D01*
X48368Y907178D01*
X48593Y907203D01*
X48967D01*
X49067Y907190D01*
D02*
G37*
G36*
X26111Y917430D02*
X24674D01*
X23561Y920342D01*
X19538D01*
X18488Y917430D01*
X17151D01*
X20812Y927040D01*
X22199D01*
X26111Y917430D01*
D02*
G37*
G36*
X38782D02*
X37345D01*
X36233Y920342D01*
X32209D01*
X31160Y917430D01*
X29822D01*
X33484Y927040D01*
X34871D01*
X38782Y917430D01*
D02*
G37*
G36*
X81247Y900317D02*
X77623D01*
Y901504D01*
X81247D01*
Y900317D01*
D02*
G37*
G36*
X3617Y903129D02*
X7828Y897430D01*
X6141D01*
X2717Y902266D01*
X1155Y900754D01*
Y897430D01*
X-120D01*
Y907040D01*
X1155D01*
Y902279D01*
X5929Y907040D01*
X7653D01*
X3617Y903129D01*
D02*
G37*
G36*
X85433Y907065D02*
X85521D01*
X85708Y907040D01*
X85933Y906990D01*
X86170Y906940D01*
X86420Y906853D01*
X86670Y906740D01*
X86683D01*
X86695Y906728D01*
X86733Y906703D01*
X86783Y906678D01*
X86895Y906603D01*
X87045Y906503D01*
X87208Y906365D01*
X87383Y906203D01*
X87545Y906028D01*
X87683Y905815D01*
Y905803D01*
X87695Y905790D01*
X87745Y905715D01*
X87795Y905590D01*
X87870Y905441D01*
X87933Y905253D01*
X87995Y905041D01*
X88032Y904816D01*
X88045Y904578D01*
Y904566D01*
Y904553D01*
Y904478D01*
X88032Y904353D01*
X88007Y904203D01*
X87957Y904028D01*
X87907Y903841D01*
X87820Y903641D01*
X87708Y903441D01*
X87695Y903416D01*
X87645Y903354D01*
X87570Y903266D01*
X87458Y903154D01*
X87320Y903016D01*
X87145Y902879D01*
X86945Y902754D01*
X86720Y902629D01*
X86733D01*
X86758Y902616D01*
X86808Y902604D01*
X86858Y902591D01*
X86933Y902566D01*
X87020Y902529D01*
X87208Y902454D01*
X87420Y902341D01*
X87633Y902191D01*
X87858Y902016D01*
X88045Y901804D01*
Y901791D01*
X88070Y901779D01*
X88095Y901741D01*
X88120Y901691D01*
X88157Y901629D01*
X88195Y901566D01*
X88282Y901379D01*
X88370Y901154D01*
X88445Y900892D01*
X88495Y900604D01*
X88520Y900267D01*
Y900254D01*
Y900217D01*
Y900142D01*
X88507Y900054D01*
X88495Y899942D01*
X88470Y899817D01*
X88445Y899679D01*
X88407Y899529D01*
X88357Y899367D01*
X88295Y899192D01*
X88220Y899017D01*
X88132Y898830D01*
X88020Y898655D01*
X87895Y898467D01*
X87758Y898292D01*
X87595Y898130D01*
X87583Y898117D01*
X87558Y898092D01*
X87508Y898055D01*
X87433Y897992D01*
X87345Y897930D01*
X87233Y897855D01*
X87108Y897780D01*
X86970Y897705D01*
X86808Y897617D01*
X86633Y897542D01*
X86445Y897467D01*
X86233Y897405D01*
X86020Y897343D01*
X85783Y897305D01*
X85546Y897280D01*
X85283Y897268D01*
X85158D01*
X85071Y897280D01*
X84971Y897292D01*
X84846Y897305D01*
X84696Y897330D01*
X84546Y897367D01*
X84221Y897455D01*
X84046Y897517D01*
X83871Y897580D01*
X83684Y897667D01*
X83509Y897767D01*
X83346Y897880D01*
X83184Y898017D01*
X83171Y898030D01*
X83146Y898055D01*
X83109Y898092D01*
X83046Y898155D01*
X82984Y898230D01*
X82909Y898317D01*
X82834Y898430D01*
X82746Y898542D01*
X82671Y898680D01*
X82584Y898830D01*
X82509Y898992D01*
X82434Y899167D01*
X82359Y899354D01*
X82309Y899542D01*
X82259Y899754D01*
X82234Y899979D01*
X83409Y900142D01*
Y900129D01*
X83421Y900092D01*
X83434Y900042D01*
X83446Y899979D01*
X83471Y899892D01*
X83496Y899804D01*
X83571Y899579D01*
X83659Y899342D01*
X83784Y899105D01*
X83921Y898867D01*
X83996Y898767D01*
X84083Y898680D01*
X84108Y898667D01*
X84171Y898617D01*
X84271Y898542D01*
X84421Y898467D01*
X84596Y898380D01*
X84796Y898317D01*
X85033Y898267D01*
X85283Y898242D01*
X85371D01*
X85421Y898255D01*
X85496D01*
X85583Y898267D01*
X85771Y898317D01*
X85996Y898380D01*
X86233Y898480D01*
X86470Y898630D01*
X86583Y898717D01*
X86695Y898817D01*
X86708Y898830D01*
X86720Y898842D01*
X86745Y898880D01*
X86783Y898917D01*
X86883Y899042D01*
X86983Y899217D01*
X87083Y899417D01*
X87183Y899667D01*
X87245Y899942D01*
X87270Y900092D01*
Y900242D01*
Y900254D01*
Y900279D01*
Y900317D01*
X87258Y900379D01*
Y900442D01*
X87245Y900529D01*
X87208Y900717D01*
X87145Y900929D01*
X87045Y901154D01*
X86908Y901367D01*
X86833Y901479D01*
X86733Y901579D01*
X86708Y901604D01*
X86633Y901666D01*
X86520Y901741D01*
X86370Y901841D01*
X86170Y901941D01*
X85946Y902016D01*
X85683Y902079D01*
X85383Y902104D01*
X85246D01*
X85158Y902091D01*
X85033Y902079D01*
X84883Y902054D01*
X84721Y902016D01*
X84546Y901979D01*
X84683Y903016D01*
X84708D01*
X84746Y903004D01*
X84808Y902991D01*
X84946D01*
X84996Y903004D01*
X85146Y903016D01*
X85321Y903041D01*
X85533Y903091D01*
X85758Y903154D01*
X85996Y903253D01*
X86220Y903379D01*
X86233D01*
X86245Y903403D01*
X86320Y903454D01*
X86420Y903553D01*
X86533Y903678D01*
X86645Y903853D01*
X86733Y904066D01*
X86808Y904316D01*
X86820Y904453D01*
X86833Y904603D01*
Y904616D01*
Y904628D01*
X86820Y904716D01*
X86808Y904828D01*
X86783Y904978D01*
X86720Y905141D01*
X86645Y905315D01*
X86533Y905503D01*
X86383Y905665D01*
X86358Y905690D01*
X86308Y905740D01*
X86208Y905803D01*
X86083Y905890D01*
X85920Y905965D01*
X85721Y906040D01*
X85508Y906090D01*
X85258Y906103D01*
X85196D01*
X85146Y906090D01*
X85008Y906078D01*
X84846Y906053D01*
X84671Y905990D01*
X84471Y905915D01*
X84283Y905815D01*
X84096Y905665D01*
X84071Y905640D01*
X84021Y905590D01*
X83946Y905490D01*
X83858Y905340D01*
X83758Y905165D01*
X83659Y904941D01*
X83584Y904678D01*
X83521Y904378D01*
X82346Y904591D01*
Y904603D01*
X82359Y904641D01*
X82371Y904703D01*
X82396Y904791D01*
X82421Y904878D01*
X82459Y905003D01*
X82496Y905128D01*
X82546Y905266D01*
X82684Y905553D01*
X82846Y905853D01*
X83059Y906153D01*
X83184Y906290D01*
X83321Y906415D01*
X83334Y906428D01*
X83359Y906440D01*
X83396Y906478D01*
X83459Y906515D01*
X83534Y906565D01*
X83621Y906628D01*
X83734Y906690D01*
X83846Y906753D01*
X83983Y906803D01*
X84121Y906865D01*
X84446Y906978D01*
X84821Y907053D01*
X85021Y907065D01*
X85233Y907077D01*
X85371D01*
X85433Y907065D01*
D02*
G37*
G36*
X43519Y927028D02*
X43756D01*
X44031Y927003D01*
X44319Y926978D01*
X44594Y926940D01*
X44831Y926890D01*
X44844D01*
X44868Y926878D01*
X44918Y926865D01*
X44969Y926853D01*
X45043Y926828D01*
X45131Y926803D01*
X45318Y926740D01*
X45543Y926640D01*
X45781Y926528D01*
X46018Y926378D01*
X46243Y926203D01*
X46256Y926190D01*
X46281Y926178D01*
X46318Y926140D01*
X46368Y926090D01*
X46431Y926028D01*
X46506Y925953D01*
X46581Y925865D01*
X46668Y925765D01*
X46856Y925528D01*
X47043Y925240D01*
X47230Y924928D01*
X47380Y924566D01*
Y924553D01*
X47393Y924516D01*
X47418Y924466D01*
X47443Y924391D01*
X47468Y924291D01*
X47505Y924178D01*
X47543Y924053D01*
X47580Y923903D01*
X47605Y923741D01*
X47643Y923566D01*
X47680Y923379D01*
X47705Y923178D01*
X47755Y922741D01*
X47768Y922279D01*
Y922266D01*
Y922229D01*
Y922179D01*
Y922091D01*
X47755Y922004D01*
Y921891D01*
X47743Y921766D01*
X47730Y921629D01*
X47705Y921329D01*
X47655Y921004D01*
X47593Y920667D01*
X47505Y920342D01*
Y920329D01*
X47493Y920304D01*
X47480Y920254D01*
X47455Y920204D01*
X47430Y920129D01*
X47405Y920042D01*
X47330Y919854D01*
X47243Y919630D01*
X47130Y919392D01*
X46993Y919155D01*
X46856Y918942D01*
X46843Y918917D01*
X46781Y918855D01*
X46705Y918755D01*
X46593Y918630D01*
X46468Y918492D01*
X46318Y918342D01*
X46143Y918205D01*
X45968Y918067D01*
X45943Y918055D01*
X45881Y918017D01*
X45781Y917955D01*
X45643Y917892D01*
X45481Y917817D01*
X45281Y917730D01*
X45056Y917655D01*
X44819Y917592D01*
X44806D01*
X44794Y917580D01*
X44756D01*
X44706Y917568D01*
X44644Y917555D01*
X44569Y917542D01*
X44381Y917517D01*
X44156Y917480D01*
X43894Y917455D01*
X43594Y917442D01*
X43281Y917430D01*
X39820D01*
Y927040D01*
X43406D01*
X43519Y927028D01*
D02*
G37*
G36*
X53916Y927190D02*
X54041Y927178D01*
X54191Y927165D01*
X54354Y927140D01*
X54528Y927115D01*
X54903Y927028D01*
X55103Y926965D01*
X55316Y926890D01*
X55516Y926803D01*
X55716Y926715D01*
X55916Y926590D01*
X56103Y926465D01*
X56116Y926453D01*
X56141Y926428D01*
X56203Y926390D01*
X56266Y926328D01*
X56341Y926253D01*
X56441Y926165D01*
X56540Y926053D01*
X56653Y925928D01*
X56765Y925790D01*
X56878Y925640D01*
X56990Y925465D01*
X57103Y925291D01*
X57215Y925091D01*
X57315Y924878D01*
X57415Y924641D01*
X57490Y924403D01*
X56241Y924103D01*
Y924116D01*
X56228Y924153D01*
X56203Y924203D01*
X56178Y924278D01*
X56141Y924366D01*
X56103Y924466D01*
X55991Y924691D01*
X55853Y924941D01*
X55691Y925191D01*
X55491Y925428D01*
X55378Y925528D01*
X55266Y925628D01*
X55253D01*
X55241Y925653D01*
X55203Y925678D01*
X55153Y925703D01*
X55091Y925740D01*
X55016Y925778D01*
X54828Y925878D01*
X54591Y925965D01*
X54316Y926040D01*
X54004Y926090D01*
X53654Y926115D01*
X53541D01*
X53466Y926103D01*
X53379D01*
X53266Y926090D01*
X53141Y926065D01*
X53004Y926053D01*
X52716Y925990D01*
X52404Y925890D01*
X52092Y925753D01*
X51942Y925678D01*
X51792Y925578D01*
X51779D01*
X51754Y925553D01*
X51717Y925528D01*
X51667Y925478D01*
X51542Y925366D01*
X51392Y925203D01*
X51217Y925003D01*
X51042Y924753D01*
X50880Y924478D01*
X50754Y924153D01*
Y924141D01*
X50742Y924116D01*
X50729Y924066D01*
X50704Y924003D01*
X50679Y923916D01*
X50655Y923816D01*
X50630Y923703D01*
X50605Y923591D01*
X50554Y923304D01*
X50504Y922991D01*
X50467Y922654D01*
X50455Y922304D01*
Y922291D01*
Y922254D01*
Y922191D01*
Y922104D01*
X50467Y921991D01*
X50480Y921866D01*
Y921729D01*
X50504Y921579D01*
X50542Y921242D01*
X50605Y920892D01*
X50692Y920517D01*
X50805Y920167D01*
Y920154D01*
X50817Y920129D01*
X50842Y920079D01*
X50880Y920017D01*
X50917Y919942D01*
X50954Y919854D01*
X51079Y919654D01*
X51242Y919429D01*
X51429Y919205D01*
X51654Y918992D01*
X51917Y918805D01*
X51929D01*
X51954Y918780D01*
X51992Y918767D01*
X52054Y918730D01*
X52117Y918705D01*
X52204Y918667D01*
X52404Y918580D01*
X52654Y918492D01*
X52929Y918430D01*
X53229Y918380D01*
X53554Y918355D01*
X53654D01*
X53729Y918367D01*
X53829Y918380D01*
X53929Y918392D01*
X54054Y918405D01*
X54179Y918430D01*
X54466Y918505D01*
X54766Y918617D01*
X54928Y918680D01*
X55078Y918767D01*
X55228Y918855D01*
X55366Y918967D01*
X55378Y918980D01*
X55403Y918992D01*
X55441Y919030D01*
X55491Y919080D01*
X55541Y919142D01*
X55616Y919230D01*
X55691Y919317D01*
X55766Y919429D01*
X55853Y919542D01*
X55941Y919679D01*
X56016Y919829D01*
X56103Y919992D01*
X56178Y920179D01*
X56253Y920367D01*
X56316Y920567D01*
X56378Y920792D01*
X57653Y920467D01*
Y920454D01*
X57628Y920404D01*
X57603Y920317D01*
X57578Y920204D01*
X57528Y920079D01*
X57465Y919929D01*
X57403Y919767D01*
X57315Y919579D01*
X57228Y919392D01*
X57115Y919192D01*
X57003Y919005D01*
X56865Y918805D01*
X56728Y918605D01*
X56565Y918417D01*
X56391Y918242D01*
X56203Y918080D01*
X56191Y918067D01*
X56153Y918042D01*
X56103Y918005D01*
X56016Y917955D01*
X55916Y917892D01*
X55791Y917817D01*
X55653Y917755D01*
X55503Y917680D01*
X55316Y917592D01*
X55128Y917530D01*
X54916Y917455D01*
X54691Y917393D01*
X54454Y917343D01*
X54204Y917305D01*
X53941Y917280D01*
X53666Y917268D01*
X53516D01*
X53404Y917280D01*
X53279Y917293D01*
X53116Y917305D01*
X52954Y917318D01*
X52766Y917343D01*
X52367Y917418D01*
X51942Y917530D01*
X51729Y917605D01*
X51517Y917692D01*
X51317Y917780D01*
X51129Y917892D01*
X51117Y917905D01*
X51092Y917917D01*
X51042Y917955D01*
X50967Y918017D01*
X50892Y918080D01*
X50792Y918155D01*
X50692Y918255D01*
X50580Y918367D01*
X50455Y918480D01*
X50342Y918617D01*
X50217Y918767D01*
X50092Y918942D01*
X49967Y919117D01*
X49855Y919305D01*
X49742Y919517D01*
X49642Y919729D01*
Y919742D01*
X49617Y919779D01*
X49592Y919854D01*
X49567Y919942D01*
X49530Y920054D01*
X49480Y920179D01*
X49442Y920329D01*
X49392Y920504D01*
X49342Y920692D01*
X49305Y920892D01*
X49255Y921104D01*
X49217Y921317D01*
X49167Y921804D01*
X49142Y922304D01*
Y922316D01*
Y922366D01*
Y922454D01*
X49155Y922554D01*
Y922691D01*
X49167Y922841D01*
X49192Y923004D01*
X49217Y923191D01*
X49242Y923391D01*
X49280Y923603D01*
X49380Y924041D01*
X49517Y924478D01*
X49605Y924703D01*
X49705Y924916D01*
X49717Y924928D01*
X49730Y924966D01*
X49767Y925028D01*
X49817Y925103D01*
X49867Y925191D01*
X49942Y925303D01*
X50030Y925415D01*
X50130Y925553D01*
X50355Y925828D01*
X50642Y926103D01*
X50967Y926378D01*
X51154Y926503D01*
X51342Y926615D01*
X51354Y926628D01*
X51392Y926640D01*
X51454Y926665D01*
X51529Y926703D01*
X51629Y926753D01*
X51742Y926803D01*
X51879Y926853D01*
X52029Y926915D01*
X52204Y926965D01*
X52379Y927015D01*
X52779Y927115D01*
X53216Y927178D01*
X53441Y927203D01*
X53816D01*
X53916Y927190D01*
D02*
G37*
G36*
X76285D02*
X76410Y927178D01*
X76560Y927165D01*
X76723Y927140D01*
X76898Y927115D01*
X77273Y927028D01*
X77473Y926965D01*
X77685Y926890D01*
X77885Y926803D01*
X78085Y926715D01*
X78285Y926590D01*
X78472Y926465D01*
X78485Y926453D01*
X78510Y926428D01*
X78572Y926390D01*
X78635Y926328D01*
X78710Y926253D01*
X78810Y926165D01*
X78910Y926053D01*
X79022Y925928D01*
X79135Y925790D01*
X79247Y925640D01*
X79360Y925465D01*
X79472Y925291D01*
X79585Y925091D01*
X79685Y924878D01*
X79784Y924641D01*
X79859Y924403D01*
X78610Y924103D01*
Y924116D01*
X78597Y924153D01*
X78572Y924203D01*
X78547Y924278D01*
X78510Y924366D01*
X78472Y924466D01*
X78360Y924691D01*
X78222Y924941D01*
X78060Y925191D01*
X77860Y925428D01*
X77748Y925528D01*
X77635Y925628D01*
X77623D01*
X77610Y925653D01*
X77573Y925678D01*
X77523Y925703D01*
X77460Y925740D01*
X77385Y925778D01*
X77198Y925878D01*
X76960Y925965D01*
X76685Y926040D01*
X76373Y926090D01*
X76023Y926115D01*
X75911D01*
X75836Y926103D01*
X75748D01*
X75636Y926090D01*
X75511Y926065D01*
X75373Y926053D01*
X75086Y925990D01*
X74773Y925890D01*
X74461Y925753D01*
X74311Y925678D01*
X74161Y925578D01*
X74149D01*
X74124Y925553D01*
X74086Y925528D01*
X74036Y925478D01*
X73911Y925366D01*
X73761Y925203D01*
X73586Y925003D01*
X73411Y924753D01*
X73249Y924478D01*
X73124Y924153D01*
Y924141D01*
X73111Y924116D01*
X73099Y924066D01*
X73074Y924003D01*
X73049Y923916D01*
X73024Y923816D01*
X72999Y923703D01*
X72974Y923591D01*
X72924Y923304D01*
X72874Y922991D01*
X72836Y922654D01*
X72824Y922304D01*
Y922291D01*
Y922254D01*
Y922191D01*
Y922104D01*
X72836Y921991D01*
X72849Y921866D01*
Y921729D01*
X72874Y921579D01*
X72911Y921242D01*
X72974Y920892D01*
X73061Y920517D01*
X73174Y920167D01*
Y920154D01*
X73186Y920129D01*
X73211Y920079D01*
X73249Y920017D01*
X73286Y919942D01*
X73324Y919854D01*
X73449Y919654D01*
X73611Y919429D01*
X73799Y919205D01*
X74023Y918992D01*
X74286Y918805D01*
X74299D01*
X74323Y918780D01*
X74361Y918767D01*
X74423Y918730D01*
X74486Y918705D01*
X74573Y918667D01*
X74773Y918580D01*
X75023Y918492D01*
X75298Y918430D01*
X75598Y918380D01*
X75923Y918355D01*
X76023D01*
X76098Y918367D01*
X76198Y918380D01*
X76298Y918392D01*
X76423Y918405D01*
X76548Y918430D01*
X76835Y918505D01*
X77135Y918617D01*
X77298Y918680D01*
X77448Y918767D01*
X77598Y918855D01*
X77735Y918967D01*
X77748Y918980D01*
X77773Y918992D01*
X77810Y919030D01*
X77860Y919080D01*
X77910Y919142D01*
X77985Y919230D01*
X78060Y919317D01*
X78135Y919429D01*
X78222Y919542D01*
X78310Y919679D01*
X78385Y919829D01*
X78472Y919992D01*
X78547Y920179D01*
X78622Y920367D01*
X78685Y920567D01*
X78747Y920792D01*
X80022Y920467D01*
Y920454D01*
X79997Y920404D01*
X79972Y920317D01*
X79947Y920204D01*
X79897Y920079D01*
X79834Y919929D01*
X79772Y919767D01*
X79685Y919579D01*
X79597Y919392D01*
X79485Y919192D01*
X79372Y919005D01*
X79235Y918805D01*
X79097Y918605D01*
X78935Y918417D01*
X78760Y918242D01*
X78572Y918080D01*
X78560Y918067D01*
X78522Y918042D01*
X78472Y918005D01*
X78385Y917955D01*
X78285Y917892D01*
X78160Y917817D01*
X78022Y917755D01*
X77873Y917680D01*
X77685Y917592D01*
X77498Y917530D01*
X77285Y917455D01*
X77060Y917393D01*
X76823Y917343D01*
X76573Y917305D01*
X76310Y917280D01*
X76035Y917268D01*
X75886D01*
X75773Y917280D01*
X75648Y917293D01*
X75486Y917305D01*
X75323Y917318D01*
X75136Y917343D01*
X74736Y917418D01*
X74311Y917530D01*
X74099Y917605D01*
X73886Y917692D01*
X73686Y917780D01*
X73499Y917892D01*
X73486Y917905D01*
X73461Y917917D01*
X73411Y917955D01*
X73336Y918017D01*
X73261Y918080D01*
X73161Y918155D01*
X73061Y918255D01*
X72949Y918367D01*
X72824Y918480D01*
X72711Y918617D01*
X72586Y918767D01*
X72461Y918942D01*
X72337Y919117D01*
X72224Y919305D01*
X72112Y919517D01*
X72011Y919729D01*
Y919742D01*
X71986Y919779D01*
X71962Y919854D01*
X71937Y919942D01*
X71899Y920054D01*
X71849Y920179D01*
X71812Y920329D01*
X71762Y920504D01*
X71712Y920692D01*
X71674Y920892D01*
X71624Y921104D01*
X71587Y921317D01*
X71537Y921804D01*
X71512Y922304D01*
Y922316D01*
Y922366D01*
Y922454D01*
X71524Y922554D01*
Y922691D01*
X71537Y922841D01*
X71562Y923004D01*
X71587Y923191D01*
X71612Y923391D01*
X71649Y923603D01*
X71749Y924041D01*
X71887Y924478D01*
X71974Y924703D01*
X72074Y924916D01*
X72087Y924928D01*
X72099Y924966D01*
X72137Y925028D01*
X72186Y925103D01*
X72236Y925191D01*
X72312Y925303D01*
X72399Y925415D01*
X72499Y925553D01*
X72724Y925828D01*
X73011Y926103D01*
X73336Y926378D01*
X73524Y926503D01*
X73711Y926615D01*
X73724Y926628D01*
X73761Y926640D01*
X73824Y926665D01*
X73899Y926703D01*
X73998Y926753D01*
X74111Y926803D01*
X74248Y926853D01*
X74398Y926915D01*
X74573Y926965D01*
X74748Y927015D01*
X75148Y927115D01*
X75586Y927178D01*
X75811Y927203D01*
X76185D01*
X76285Y927190D01*
D02*
G37*
G36*
X3891D02*
X3992D01*
X4116Y927178D01*
X4254Y927165D01*
X4541Y927115D01*
X4854Y927053D01*
X5179Y926965D01*
X5491Y926853D01*
X5504D01*
X5529Y926840D01*
X5566Y926815D01*
X5628Y926790D01*
X5778Y926703D01*
X5954Y926590D01*
X6166Y926453D01*
X6366Y926278D01*
X6578Y926065D01*
X6753Y925828D01*
Y925815D01*
X6778Y925803D01*
X6791Y925765D01*
X6828Y925715D01*
X6853Y925653D01*
X6891Y925578D01*
X6978Y925390D01*
X7066Y925165D01*
X7141Y924916D01*
X7203Y924628D01*
X7228Y924328D01*
X6003Y924241D01*
Y924253D01*
Y924278D01*
X5991Y924328D01*
X5978Y924391D01*
X5966Y924466D01*
X5941Y924553D01*
X5878Y924753D01*
X5791Y924966D01*
X5678Y925191D01*
X5529Y925415D01*
X5329Y925603D01*
X5304Y925628D01*
X5266Y925640D01*
X5229Y925678D01*
X5166Y925715D01*
X5091Y925753D01*
X5004Y925790D01*
X4916Y925840D01*
X4804Y925878D01*
X4679Y925915D01*
X4541Y925953D01*
X4391Y925990D01*
X4229Y926028D01*
X4054Y926040D01*
X3866Y926065D01*
X3479D01*
X3379Y926053D01*
X3279Y926040D01*
X3029Y926015D01*
X2754Y925965D01*
X2479Y925890D01*
X2217Y925778D01*
X2092Y925715D01*
X1992Y925640D01*
X1967Y925615D01*
X1904Y925565D01*
X1830Y925478D01*
X1729Y925353D01*
X1630Y925203D01*
X1555Y925028D01*
X1492Y924828D01*
X1467Y924616D01*
Y924591D01*
Y924528D01*
X1492Y924441D01*
X1517Y924316D01*
X1555Y924178D01*
X1617Y924041D01*
X1705Y923903D01*
X1830Y923766D01*
X1855Y923753D01*
X1880Y923728D01*
X1917Y923716D01*
X1967Y923678D01*
X2030Y923641D01*
X2117Y923603D01*
X2204Y923566D01*
X2329Y923516D01*
X2467Y923454D01*
X2617Y923403D01*
X2792Y923341D01*
X2992Y923279D01*
X3217Y923216D01*
X3467Y923154D01*
X3742Y923091D01*
X3754D01*
X3804Y923079D01*
X3891Y923054D01*
X3992Y923029D01*
X4116Y923004D01*
X4266Y922966D01*
X4416Y922929D01*
X4591Y922879D01*
X4941Y922791D01*
X5291Y922691D01*
X5454Y922629D01*
X5616Y922579D01*
X5753Y922529D01*
X5866Y922479D01*
X5878D01*
X5903Y922466D01*
X5941Y922441D01*
X6003Y922404D01*
X6153Y922329D01*
X6341Y922216D01*
X6541Y922066D01*
X6741Y921904D01*
X6941Y921704D01*
X7103Y921491D01*
Y921479D01*
X7116Y921467D01*
X7141Y921429D01*
X7166Y921392D01*
X7228Y921266D01*
X7316Y921104D01*
X7391Y920904D01*
X7453Y920667D01*
X7503Y920417D01*
X7516Y920129D01*
Y920117D01*
Y920092D01*
Y920054D01*
X7503Y920004D01*
Y919929D01*
X7491Y919854D01*
X7466Y919667D01*
X7403Y919442D01*
X7328Y919205D01*
X7216Y918942D01*
X7066Y918692D01*
Y918680D01*
X7041Y918667D01*
X7016Y918630D01*
X6991Y918580D01*
X6878Y918455D01*
X6741Y918305D01*
X6566Y918142D01*
X6353Y917967D01*
X6091Y917792D01*
X5803Y917643D01*
X5791D01*
X5766Y917630D01*
X5716Y917605D01*
X5666Y917580D01*
X5579Y917555D01*
X5491Y917530D01*
X5391Y917493D01*
X5266Y917455D01*
X5004Y917393D01*
X4691Y917330D01*
X4341Y917280D01*
X3966Y917268D01*
X3841D01*
X3754Y917280D01*
X3641D01*
X3504Y917293D01*
X3367Y917305D01*
X3204Y917318D01*
X2867Y917355D01*
X2492Y917430D01*
X2129Y917517D01*
X1779Y917643D01*
X1767D01*
X1742Y917655D01*
X1692Y917680D01*
X1630Y917717D01*
X1567Y917755D01*
X1480Y917805D01*
X1280Y917930D01*
X1055Y918092D01*
X830Y918292D01*
X605Y918530D01*
X405Y918792D01*
Y918805D01*
X380Y918830D01*
X355Y918867D01*
X330Y918930D01*
X292Y919005D01*
X242Y919080D01*
X205Y919180D01*
X155Y919292D01*
X55Y919555D01*
X-33Y919842D01*
X-95Y920179D01*
X-120Y920529D01*
X1080Y920629D01*
Y920617D01*
Y920592D01*
X1092Y920554D01*
Y920504D01*
X1117Y920379D01*
X1155Y920204D01*
X1205Y920017D01*
X1280Y919817D01*
X1367Y919617D01*
X1467Y919429D01*
X1480Y919405D01*
X1530Y919354D01*
X1605Y919267D01*
X1705Y919167D01*
X1842Y919042D01*
X2005Y918917D01*
X2204Y918792D01*
X2429Y918680D01*
X2442D01*
X2454Y918667D01*
X2492Y918655D01*
X2542Y918642D01*
X2604Y918617D01*
X2679Y918592D01*
X2867Y918542D01*
X3079Y918492D01*
X3329Y918442D01*
X3604Y918417D01*
X3904Y918405D01*
X4029D01*
X4166Y918417D01*
X4341Y918430D01*
X4529Y918455D01*
X4754Y918492D01*
X4966Y918542D01*
X5179Y918617D01*
X5191D01*
X5204Y918630D01*
X5266Y918655D01*
X5366Y918705D01*
X5491Y918767D01*
X5628Y918855D01*
X5766Y918955D01*
X5903Y919067D01*
X6016Y919205D01*
X6028Y919217D01*
X6053Y919267D01*
X6103Y919354D01*
X6153Y919454D01*
X6203Y919579D01*
X6253Y919717D01*
X6278Y919867D01*
X6291Y920029D01*
Y920054D01*
Y920104D01*
X6278Y920192D01*
X6253Y920292D01*
X6228Y920417D01*
X6178Y920554D01*
X6103Y920692D01*
X6016Y920817D01*
X6003Y920829D01*
X5966Y920879D01*
X5903Y920942D01*
X5816Y921017D01*
X5691Y921104D01*
X5541Y921192D01*
X5366Y921292D01*
X5154Y921379D01*
X5129Y921392D01*
X5079Y921404D01*
X5029Y921429D01*
X4966Y921441D01*
X4891Y921467D01*
X4791Y921491D01*
X4691Y921529D01*
X4566Y921554D01*
X4429Y921591D01*
X4266Y921641D01*
X4091Y921679D01*
X3891Y921729D01*
X3679Y921779D01*
X3442Y921841D01*
X3429D01*
X3379Y921854D01*
X3317Y921879D01*
X3229Y921891D01*
X3117Y921929D01*
X3004Y921954D01*
X2717Y922041D01*
X2417Y922129D01*
X2104Y922241D01*
X1830Y922341D01*
X1705Y922404D01*
X1592Y922454D01*
X1580D01*
X1567Y922466D01*
X1530Y922491D01*
X1480Y922516D01*
X1355Y922591D01*
X1205Y922704D01*
X1042Y922829D01*
X867Y922979D01*
X705Y923154D01*
X567Y923341D01*
Y923354D01*
X555Y923366D01*
X517Y923441D01*
X467Y923541D01*
X405Y923691D01*
X342Y923866D01*
X292Y924078D01*
X255Y924303D01*
X242Y924541D01*
Y924553D01*
Y924578D01*
Y924616D01*
X255Y924666D01*
X267Y924803D01*
X292Y924991D01*
X342Y925203D01*
X417Y925428D01*
X517Y925665D01*
X655Y925903D01*
Y925915D01*
X680Y925928D01*
X730Y926003D01*
X830Y926128D01*
X955Y926265D01*
X1130Y926415D01*
X1330Y926578D01*
X1580Y926728D01*
X1855Y926865D01*
X1867D01*
X1892Y926878D01*
X1929Y926903D01*
X1992Y926915D01*
X2067Y926940D01*
X2154Y926978D01*
X2254Y927003D01*
X2367Y927040D01*
X2629Y927090D01*
X2929Y927152D01*
X3267Y927190D01*
X3617Y927203D01*
X3792D01*
X3891Y927190D01*
D02*
G37*
G36*
X67100Y927028D02*
X67325Y927015D01*
X67575Y927003D01*
X67813Y926978D01*
X68013Y926940D01*
X68050D01*
X68075Y926928D01*
X68125Y926915D01*
X68263Y926890D01*
X68425Y926840D01*
X68612Y926778D01*
X68800Y926703D01*
X69000Y926603D01*
X69187Y926490D01*
X69212Y926478D01*
X69262Y926428D01*
X69362Y926353D01*
X69462Y926253D01*
X69587Y926128D01*
X69725Y925965D01*
X69850Y925778D01*
X69962Y925565D01*
Y925553D01*
X69975Y925540D01*
X69987Y925503D01*
X70012Y925465D01*
X70062Y925340D01*
X70112Y925178D01*
X70162Y924978D01*
X70212Y924753D01*
X70250Y924516D01*
X70262Y924253D01*
Y924241D01*
Y924203D01*
Y924141D01*
X70250Y924053D01*
X70237Y923941D01*
X70224Y923816D01*
X70199Y923678D01*
X70162Y923541D01*
X70075Y923204D01*
X70012Y923041D01*
X69925Y922866D01*
X69837Y922691D01*
X69737Y922516D01*
X69612Y922341D01*
X69475Y922179D01*
X69462Y922166D01*
X69437Y922141D01*
X69387Y922104D01*
X69325Y922041D01*
X69237Y921979D01*
X69125Y921916D01*
X68987Y921829D01*
X68837Y921754D01*
X68650Y921679D01*
X68450Y921604D01*
X68212Y921529D01*
X67963Y921467D01*
X67675Y921404D01*
X67363Y921367D01*
X67025Y921341D01*
X66663Y921329D01*
X64214D01*
Y917430D01*
X62939D01*
Y927040D01*
X66888D01*
X67100Y927028D01*
D02*
G37*
G36*
X85408D02*
X85521D01*
X85771Y927003D01*
X86045Y926965D01*
X86345Y926915D01*
X86633Y926840D01*
X86895Y926740D01*
X86908D01*
X86920Y926728D01*
X86958Y926715D01*
X87008Y926690D01*
X87120Y926615D01*
X87270Y926515D01*
X87445Y926390D01*
X87607Y926240D01*
X87782Y926053D01*
X87933Y925840D01*
Y925828D01*
X87945Y925815D01*
X87995Y925740D01*
X88057Y925615D01*
X88132Y925453D01*
X88195Y925266D01*
X88257Y925053D01*
X88307Y924828D01*
X88320Y924578D01*
Y924566D01*
Y924553D01*
Y924516D01*
Y924478D01*
X88307Y924353D01*
X88282Y924203D01*
X88232Y924016D01*
X88182Y923816D01*
X88095Y923616D01*
X87983Y923403D01*
X87970Y923379D01*
X87920Y923316D01*
X87845Y923216D01*
X87732Y923091D01*
X87583Y922954D01*
X87408Y922816D01*
X87208Y922666D01*
X86970Y922541D01*
X86983D01*
X87008Y922529D01*
X87058Y922516D01*
X87120Y922491D01*
X87183Y922466D01*
X87270Y922429D01*
X87470Y922329D01*
X87683Y922204D01*
X87907Y922054D01*
X88120Y921866D01*
X88307Y921654D01*
Y921641D01*
X88332Y921629D01*
X88357Y921591D01*
X88382Y921542D01*
X88457Y921416D01*
X88545Y921242D01*
X88632Y921029D01*
X88707Y920779D01*
X88757Y920504D01*
X88782Y920204D01*
Y920192D01*
Y920179D01*
Y920142D01*
Y920092D01*
X88770Y919967D01*
X88745Y919792D01*
X88707Y919604D01*
X88657Y919392D01*
X88595Y919180D01*
X88495Y918955D01*
X88482Y918930D01*
X88445Y918855D01*
X88382Y918755D01*
X88295Y918630D01*
X88195Y918480D01*
X88070Y918330D01*
X87933Y918192D01*
X87782Y918055D01*
X87770Y918042D01*
X87708Y918005D01*
X87620Y917942D01*
X87495Y917880D01*
X87345Y917805D01*
X87170Y917717D01*
X86958Y917643D01*
X86733Y917580D01*
X86708D01*
X86670Y917568D01*
X86620Y917555D01*
X86558Y917542D01*
X86483Y917530D01*
X86308Y917505D01*
X86083Y917480D01*
X85821Y917455D01*
X85521Y917442D01*
X85183Y917430D01*
X81534D01*
Y927040D01*
X85321D01*
X85408Y927028D01*
D02*
G37*
G36*
X12939Y923129D02*
X17151Y917430D01*
X15464D01*
X12039Y922266D01*
X10477Y920754D01*
Y917430D01*
X9203D01*
Y927040D01*
X10477D01*
Y922279D01*
X15251Y927040D01*
X16976D01*
X12939Y923129D01*
D02*
G37*
G36*
X33934Y897430D02*
X32497D01*
X31384Y900342D01*
X27360D01*
X26311Y897430D01*
X24974D01*
X28635Y907040D01*
X30022D01*
X33934Y897430D01*
D02*
G37*
G36*
X38670Y907028D02*
X38907D01*
X39182Y907003D01*
X39470Y906978D01*
X39745Y906940D01*
X39982Y906890D01*
X39995D01*
X40020Y906878D01*
X40070Y906865D01*
X40120Y906853D01*
X40195Y906828D01*
X40282Y906803D01*
X40470Y906740D01*
X40695Y906640D01*
X40932Y906528D01*
X41169Y906378D01*
X41394Y906203D01*
X41407Y906190D01*
X41432Y906178D01*
X41469Y906140D01*
X41519Y906090D01*
X41582Y906028D01*
X41657Y905953D01*
X41732Y905865D01*
X41819Y905765D01*
X42007Y905528D01*
X42194Y905240D01*
X42382Y904928D01*
X42532Y904566D01*
Y904553D01*
X42544Y904516D01*
X42569Y904466D01*
X42594Y904391D01*
X42619Y904291D01*
X42657Y904178D01*
X42694Y904053D01*
X42731Y903903D01*
X42757Y903741D01*
X42794Y903566D01*
X42832Y903379D01*
X42856Y903178D01*
X42906Y902741D01*
X42919Y902279D01*
Y902266D01*
Y902229D01*
Y902179D01*
Y902091D01*
X42906Y902004D01*
Y901891D01*
X42894Y901766D01*
X42881Y901629D01*
X42856Y901329D01*
X42807Y901004D01*
X42744Y900667D01*
X42657Y900342D01*
Y900329D01*
X42644Y900304D01*
X42632Y900254D01*
X42607Y900204D01*
X42582Y900129D01*
X42557Y900042D01*
X42482Y899854D01*
X42394Y899629D01*
X42282Y899392D01*
X42144Y899155D01*
X42007Y898942D01*
X41994Y898917D01*
X41932Y898855D01*
X41857Y898755D01*
X41744Y898630D01*
X41619Y898492D01*
X41469Y898342D01*
X41294Y898205D01*
X41119Y898067D01*
X41094Y898055D01*
X41032Y898017D01*
X40932Y897955D01*
X40795Y897892D01*
X40632Y897817D01*
X40432Y897730D01*
X40207Y897655D01*
X39970Y897592D01*
X39957D01*
X39945Y897580D01*
X39907D01*
X39857Y897568D01*
X39795Y897555D01*
X39720Y897542D01*
X39532Y897517D01*
X39307Y897480D01*
X39045Y897455D01*
X38745Y897442D01*
X38433Y897430D01*
X34971D01*
Y907040D01*
X38558D01*
X38670Y907028D01*
D02*
G37*
G36*
X74736Y897430D02*
X73561D01*
Y904941D01*
X73536Y904928D01*
X73486Y904878D01*
X73386Y904791D01*
X73261Y904691D01*
X73099Y904566D01*
X72899Y904428D01*
X72686Y904278D01*
X72436Y904128D01*
X72424D01*
X72411Y904116D01*
X72374Y904091D01*
X72324Y904066D01*
X72186Y903991D01*
X72024Y903903D01*
X71837Y903803D01*
X71624Y903703D01*
X71412Y903603D01*
X71199Y903516D01*
Y904666D01*
X71212D01*
X71249Y904691D01*
X71299Y904716D01*
X71362Y904753D01*
X71449Y904791D01*
X71549Y904853D01*
X71787Y904978D01*
X72049Y905141D01*
X72349Y905340D01*
X72636Y905553D01*
X72924Y905790D01*
X72936Y905803D01*
X72961Y905815D01*
X72999Y905853D01*
X73049Y905903D01*
X73174Y906028D01*
X73336Y906203D01*
X73499Y906390D01*
X73674Y906615D01*
X73836Y906840D01*
X73973Y907077D01*
X74736D01*
Y897430D01*
D02*
G37*
G36*
X24699Y905903D02*
X21537D01*
Y897430D01*
X20262D01*
Y905903D01*
X17101D01*
Y907040D01*
X24699D01*
Y905903D01*
D02*
G37*
G36*
X57265Y945690D02*
X56091D01*
Y947040D01*
X57265D01*
Y945690D01*
D02*
G37*
G36*
X60939Y894768D02*
X53129D01*
Y895618D01*
X60939D01*
Y894768D01*
D02*
G37*
G36*
X16788Y897430D02*
X15351D01*
X14239Y900342D01*
X10215D01*
X9165Y897430D01*
X7828D01*
X11489Y907040D01*
X12877D01*
X16788Y897430D01*
D02*
G37*
G36*
X65888D02*
X64563D01*
X60839Y907040D01*
X62227D01*
X64726Y900054D01*
Y900042D01*
X64738Y900017D01*
X64751Y899967D01*
X64776Y899917D01*
X64801Y899842D01*
X64826Y899754D01*
X64901Y899542D01*
X64976Y899305D01*
X65063Y899042D01*
X65151Y898755D01*
X65226Y898480D01*
Y898492D01*
X65238Y898517D01*
X65251Y898555D01*
X65263Y898617D01*
X65288Y898692D01*
X65313Y898767D01*
X65376Y898967D01*
X65451Y899205D01*
X65538Y899480D01*
X65638Y899767D01*
X65751Y900054D01*
X68350Y907040D01*
X69637D01*
X65888Y897430D01*
D02*
G37*
%LPC*%
G36*
X2992Y966103D02*
X2917D01*
X2854Y966090D01*
X2704Y966065D01*
X2529Y966015D01*
X2317Y965928D01*
X2104Y965803D01*
X1992Y965728D01*
X1892Y965640D01*
X1792Y965528D01*
X1692Y965403D01*
X1680Y965390D01*
X1667Y965366D01*
X1642Y965303D01*
X1604Y965228D01*
X1555Y965128D01*
X1505Y965003D01*
X1455Y964853D01*
X1392Y964666D01*
X1342Y964466D01*
X1280Y964228D01*
X1230Y963966D01*
X1192Y963666D01*
X1142Y963341D01*
X1117Y962979D01*
X1105Y962591D01*
X1092Y962166D01*
Y962154D01*
Y962141D01*
Y962066D01*
Y961941D01*
X1105Y961779D01*
Y961591D01*
X1117Y961379D01*
X1142Y961142D01*
X1167Y960879D01*
X1230Y960354D01*
X1267Y960092D01*
X1330Y959842D01*
X1392Y959592D01*
X1467Y959380D01*
X1542Y959180D01*
X1642Y959017D01*
X1655Y959005D01*
X1667Y958980D01*
X1705Y958942D01*
X1742Y958892D01*
X1855Y958767D01*
X2017Y958630D01*
X2217Y958492D01*
X2454Y958367D01*
X2579Y958317D01*
X2717Y958280D01*
X2854Y958255D01*
X3004Y958242D01*
X3079D01*
X3142Y958255D01*
X3204Y958267D01*
X3292Y958280D01*
X3479Y958342D01*
X3692Y958430D01*
X3804Y958492D01*
X3916Y958567D01*
X4041Y958655D01*
X4154Y958767D01*
X4266Y958880D01*
X4366Y959017D01*
X4379Y959030D01*
X4391Y959055D01*
X4416Y959105D01*
X4454Y959180D01*
X4491Y959267D01*
X4541Y959392D01*
X4591Y959529D01*
X4654Y959704D01*
X4704Y959904D01*
X4754Y960129D01*
X4804Y960392D01*
X4841Y960679D01*
X4879Y961004D01*
X4904Y961354D01*
X4929Y961741D01*
Y962166D01*
Y962179D01*
Y962191D01*
Y962266D01*
Y962391D01*
X4916Y962554D01*
Y962741D01*
X4904Y962954D01*
X4879Y963204D01*
X4854Y963454D01*
X4791Y963978D01*
X4741Y964241D01*
X4691Y964503D01*
X4629Y964741D01*
X4554Y964953D01*
X4466Y965153D01*
X4366Y965315D01*
Y965328D01*
X4341Y965353D01*
X4316Y965390D01*
X4266Y965441D01*
X4154Y965565D01*
X3991Y965715D01*
X3792Y965853D01*
X3554Y965978D01*
X3429Y966028D01*
X3292Y966065D01*
X3142Y966090D01*
X2992Y966103D01*
D02*
G37*
G36*
X34146Y926040D02*
Y926028D01*
X34134Y926003D01*
X34121Y925953D01*
X34109Y925878D01*
X34096Y925790D01*
X34071Y925690D01*
X34046Y925578D01*
X34009Y925453D01*
X33934Y925178D01*
X33846Y924866D01*
X33746Y924528D01*
X33621Y924191D01*
X32572Y921379D01*
X35833D01*
X34834Y924028D01*
Y924041D01*
X34809Y924078D01*
X34784Y924141D01*
X34759Y924228D01*
X34721Y924328D01*
X34671Y924453D01*
X34621Y924591D01*
X34571Y924741D01*
X34459Y925053D01*
X34346Y925390D01*
X34246Y925728D01*
X34146Y926040D01*
D02*
G37*
G36*
X22387Y966103D02*
X22312D01*
X22249Y966090D01*
X22099Y966065D01*
X21924Y966015D01*
X21712Y965928D01*
X21499Y965803D01*
X21387Y965728D01*
X21287Y965640D01*
X21187Y965528D01*
X21087Y965403D01*
X21075Y965390D01*
X21062Y965366D01*
X21037Y965303D01*
X21000Y965228D01*
X20950Y965128D01*
X20900Y965003D01*
X20850Y964853D01*
X20787Y964666D01*
X20737Y964466D01*
X20675Y964228D01*
X20625Y963966D01*
X20587Y963666D01*
X20537Y963341D01*
X20512Y962979D01*
X20500Y962591D01*
X20487Y962166D01*
Y962154D01*
Y962141D01*
Y962066D01*
Y961941D01*
X20500Y961779D01*
Y961591D01*
X20512Y961379D01*
X20537Y961142D01*
X20562Y960879D01*
X20625Y960354D01*
X20662Y960092D01*
X20725Y959842D01*
X20787Y959592D01*
X20862Y959380D01*
X20937Y959180D01*
X21037Y959017D01*
X21050Y959005D01*
X21062Y958980D01*
X21100Y958942D01*
X21137Y958892D01*
X21249Y958767D01*
X21412Y958630D01*
X21612Y958492D01*
X21849Y958367D01*
X21974Y958317D01*
X22112Y958280D01*
X22249Y958255D01*
X22399Y958242D01*
X22474D01*
X22537Y958255D01*
X22599Y958267D01*
X22687Y958280D01*
X22874Y958342D01*
X23087Y958430D01*
X23199Y958492D01*
X23312Y958567D01*
X23437Y958655D01*
X23549Y958767D01*
X23661Y958880D01*
X23761Y959017D01*
X23774Y959030D01*
X23786Y959055D01*
X23811Y959105D01*
X23849Y959180D01*
X23886Y959267D01*
X23936Y959392D01*
X23986Y959529D01*
X24049Y959704D01*
X24099Y959904D01*
X24149Y960129D01*
X24199Y960392D01*
X24236Y960679D01*
X24274Y961004D01*
X24299Y961354D01*
X24324Y961741D01*
Y962166D01*
Y962179D01*
Y962191D01*
Y962266D01*
Y962391D01*
X24311Y962554D01*
Y962741D01*
X24299Y962954D01*
X24274Y963204D01*
X24249Y963454D01*
X24186Y963978D01*
X24136Y964241D01*
X24086Y964503D01*
X24024Y964741D01*
X23949Y964953D01*
X23861Y965153D01*
X23761Y965315D01*
Y965328D01*
X23736Y965353D01*
X23711Y965390D01*
X23661Y965441D01*
X23549Y965565D01*
X23386Y965715D01*
X23187Y965853D01*
X22949Y965978D01*
X22824Y966028D01*
X22687Y966065D01*
X22537Y966090D01*
X22387Y966103D01*
D02*
G37*
G36*
X49242D02*
X49167D01*
X49105Y966090D01*
X48955Y966065D01*
X48780Y966015D01*
X48568Y965928D01*
X48355Y965803D01*
X48243Y965728D01*
X48143Y965640D01*
X48043Y965528D01*
X47943Y965403D01*
X47930Y965390D01*
X47918Y965366D01*
X47893Y965303D01*
X47855Y965228D01*
X47805Y965128D01*
X47755Y965003D01*
X47705Y964853D01*
X47643Y964666D01*
X47593Y964466D01*
X47530Y964228D01*
X47480Y963966D01*
X47443Y963666D01*
X47393Y963341D01*
X47368Y962979D01*
X47355Y962591D01*
X47343Y962166D01*
Y962154D01*
Y962141D01*
Y962066D01*
Y961941D01*
X47355Y961779D01*
Y961591D01*
X47368Y961379D01*
X47393Y961142D01*
X47418Y960879D01*
X47480Y960354D01*
X47518Y960092D01*
X47580Y959842D01*
X47643Y959592D01*
X47718Y959380D01*
X47793Y959180D01*
X47893Y959017D01*
X47905Y959005D01*
X47918Y958980D01*
X47955Y958942D01*
X47993Y958892D01*
X48105Y958767D01*
X48268Y958630D01*
X48467Y958492D01*
X48705Y958367D01*
X48830Y958317D01*
X48967Y958280D01*
X49105Y958255D01*
X49255Y958242D01*
X49330D01*
X49392Y958255D01*
X49455Y958267D01*
X49542Y958280D01*
X49730Y958342D01*
X49942Y958430D01*
X50055Y958492D01*
X50167Y958567D01*
X50292Y958655D01*
X50405Y958767D01*
X50517Y958880D01*
X50617Y959017D01*
X50630Y959030D01*
X50642Y959055D01*
X50667Y959105D01*
X50704Y959180D01*
X50742Y959267D01*
X50792Y959392D01*
X50842Y959529D01*
X50904Y959704D01*
X50954Y959904D01*
X51004Y960129D01*
X51054Y960392D01*
X51092Y960679D01*
X51129Y961004D01*
X51154Y961354D01*
X51179Y961741D01*
Y962166D01*
Y962179D01*
Y962191D01*
Y962266D01*
Y962391D01*
X51167Y962554D01*
Y962741D01*
X51154Y962954D01*
X51129Y963204D01*
X51104Y963454D01*
X51042Y963978D01*
X50992Y964241D01*
X50942Y964503D01*
X50879Y964741D01*
X50804Y964953D01*
X50717Y965153D01*
X50617Y965315D01*
Y965328D01*
X50592Y965353D01*
X50567Y965390D01*
X50517Y965441D01*
X50405Y965565D01*
X50242Y965715D01*
X50042Y965853D01*
X49805Y965978D01*
X49680Y966028D01*
X49542Y966065D01*
X49392Y966090D01*
X49242Y966103D01*
D02*
G37*
G36*
X30085Y962629D02*
X29860D01*
X29797Y962616D01*
X29735D01*
X29647Y962604D01*
X29472Y962554D01*
X29260Y962491D01*
X29023Y962391D01*
X28798Y962241D01*
X28685Y962154D01*
X28585Y962054D01*
Y962041D01*
X28560Y962029D01*
X28535Y961991D01*
X28498Y961954D01*
X28410Y961829D01*
X28310Y961654D01*
X28210Y961429D01*
X28123Y961179D01*
X28060Y960879D01*
X28048Y960717D01*
X28035Y960542D01*
Y960529D01*
Y960517D01*
Y960442D01*
X28048Y960317D01*
X28073Y960167D01*
X28098Y959992D01*
X28135Y959792D01*
X28198Y959579D01*
X28285Y959367D01*
X28298Y959342D01*
X28335Y959279D01*
X28398Y959180D01*
X28473Y959055D01*
X28573Y958917D01*
X28698Y958780D01*
X28848Y958655D01*
X29010Y958530D01*
X29035Y958517D01*
X29085Y958480D01*
X29185Y958442D01*
X29310Y958392D01*
X29447Y958330D01*
X29622Y958292D01*
X29797Y958255D01*
X29985Y958242D01*
X30060D01*
X30110Y958255D01*
X30247Y958280D01*
X30422Y958317D01*
X30635Y958392D01*
X30847Y958492D01*
X31060Y958642D01*
X31172Y958742D01*
X31272Y958842D01*
X31284Y958855D01*
X31297Y958867D01*
X31322Y958905D01*
X31359Y958955D01*
X31397Y959017D01*
X31447Y959092D01*
X31497Y959180D01*
X31547Y959267D01*
X31634Y959504D01*
X31722Y959792D01*
X31784Y960117D01*
X31809Y960292D01*
Y960479D01*
Y960492D01*
Y960529D01*
Y960579D01*
X31797Y960642D01*
Y960729D01*
X31784Y960829D01*
X31747Y961054D01*
X31684Y961304D01*
X31584Y961566D01*
X31447Y961816D01*
X31372Y961941D01*
X31272Y962054D01*
Y962066D01*
X31247Y962079D01*
X31172Y962141D01*
X31060Y962241D01*
X30910Y962341D01*
X30710Y962441D01*
X30485Y962541D01*
X30222Y962604D01*
X30085Y962629D01*
D02*
G37*
G36*
X28460Y940917D02*
X28448D01*
X28435Y940904D01*
X28398Y940892D01*
X28335Y940879D01*
X28273Y940854D01*
X28185Y940829D01*
X28085Y940792D01*
X27973Y940767D01*
X27848Y940729D01*
X27710Y940692D01*
X27548Y940654D01*
X27373Y940617D01*
X27185Y940579D01*
X26985Y940542D01*
X26773Y940504D01*
X26536Y940467D01*
X26498D01*
X26473Y940454D01*
X26423D01*
X26286Y940429D01*
X26136Y940404D01*
X25973Y940367D01*
X25798Y940329D01*
X25636Y940279D01*
X25511Y940229D01*
X25498D01*
X25461Y940204D01*
X25411Y940179D01*
X25336Y940142D01*
X25186Y940017D01*
X25111Y939942D01*
X25048Y939854D01*
X25036Y939842D01*
X25024Y939817D01*
X24999Y939754D01*
X24974Y939692D01*
X24936Y939604D01*
X24911Y939517D01*
X24899Y939405D01*
X24886Y939292D01*
Y939267D01*
Y939217D01*
X24911Y939130D01*
X24936Y939017D01*
X24974Y938905D01*
X25036Y938767D01*
X25124Y938642D01*
X25236Y938517D01*
X25248Y938505D01*
X25299Y938467D01*
X25386Y938417D01*
X25498Y938367D01*
X25648Y938305D01*
X25836Y938255D01*
X26048Y938217D01*
X26286Y938205D01*
X26398D01*
X26523Y938217D01*
X26686Y938242D01*
X26873Y938280D01*
X27073Y938330D01*
X27285Y938392D01*
X27485Y938492D01*
X27498D01*
X27510Y938505D01*
X27573Y938542D01*
X27673Y938617D01*
X27785Y938705D01*
X27910Y938817D01*
X28048Y938967D01*
X28173Y939117D01*
X28273Y939305D01*
X28285Y939330D01*
X28298Y939380D01*
X28335Y939467D01*
X28373Y939604D01*
X28398Y939767D01*
X28435Y939967D01*
X28448Y940204D01*
X28460Y940479D01*
Y940917D01*
D02*
G37*
G36*
X11727Y943616D02*
X11652D01*
X11602Y943603D01*
X11452Y943578D01*
X11277Y943528D01*
X11077Y943454D01*
X10852Y943341D01*
X10752Y943266D01*
X10640Y943178D01*
X10527Y943066D01*
X10427Y942954D01*
Y942941D01*
X10402Y942929D01*
X10377Y942891D01*
X10340Y942829D01*
X10302Y942766D01*
X10252Y942679D01*
X10215Y942579D01*
X10165Y942454D01*
X10115Y942329D01*
X10065Y942179D01*
X10015Y942004D01*
X9977Y941829D01*
X9940Y941629D01*
X9915Y941416D01*
X9902Y941179D01*
X9890Y940929D01*
Y940917D01*
Y940867D01*
Y940804D01*
X9902Y940704D01*
Y940604D01*
X9915Y940467D01*
X9940Y940329D01*
X9965Y940179D01*
X10027Y939854D01*
X10127Y939517D01*
X10265Y939192D01*
X10352Y939055D01*
X10452Y938917D01*
X10465Y938905D01*
X10477Y938892D01*
X10552Y938817D01*
X10677Y938705D01*
X10827Y938592D01*
X11027Y938467D01*
X11265Y938355D01*
X11515Y938280D01*
X11652Y938267D01*
X11802Y938255D01*
X11877D01*
X11927Y938267D01*
X12064Y938292D01*
X12239Y938330D01*
X12452Y938405D01*
X12664Y938530D01*
X12777Y938592D01*
X12877Y938680D01*
X12989Y938780D01*
X13089Y938892D01*
X13102Y938905D01*
X13114Y938917D01*
X13139Y938955D01*
X13177Y939017D01*
X13214Y939080D01*
X13264Y939167D01*
X13314Y939255D01*
X13364Y939380D01*
X13414Y939504D01*
X13464Y939642D01*
X13514Y939804D01*
X13551Y939979D01*
X13589Y940167D01*
X13614Y940379D01*
X13639Y940592D01*
Y940829D01*
Y940842D01*
Y940892D01*
Y940967D01*
X13627Y941054D01*
Y941167D01*
X13614Y941304D01*
X13589Y941454D01*
X13564Y941616D01*
X13501Y941954D01*
X13401Y942291D01*
X13252Y942629D01*
X13164Y942779D01*
X13064Y942916D01*
Y942929D01*
X13039Y942941D01*
X12964Y943029D01*
X12852Y943141D01*
X12689Y943266D01*
X12489Y943391D01*
X12264Y943503D01*
X12002Y943591D01*
X11864Y943603D01*
X11727Y943616D01*
D02*
G37*
G36*
X64876Y943566D02*
X64788D01*
X64726Y943553D01*
X64651Y943541D01*
X64563Y943528D01*
X64363Y943478D01*
X64138Y943403D01*
X63889Y943291D01*
X63764Y943216D01*
X63651Y943129D01*
X63526Y943016D01*
X63414Y942904D01*
Y942891D01*
X63389Y942879D01*
X63364Y942829D01*
X63326Y942779D01*
X63276Y942704D01*
X63226Y942629D01*
X63176Y942529D01*
X63126Y942404D01*
X63076Y942279D01*
X63026Y942129D01*
X62976Y941966D01*
X62926Y941779D01*
X62889Y941591D01*
X62864Y941379D01*
X62851Y941142D01*
X62839Y940904D01*
Y940892D01*
Y940842D01*
Y940779D01*
X62851Y940692D01*
Y940579D01*
X62864Y940454D01*
X62889Y940304D01*
X62914Y940154D01*
X62976Y939842D01*
X63076Y939504D01*
X63226Y939192D01*
X63314Y939055D01*
X63414Y938917D01*
X63426Y938905D01*
X63439Y938892D01*
X63476Y938855D01*
X63514Y938817D01*
X63651Y938705D01*
X63814Y938592D01*
X64026Y938467D01*
X64276Y938355D01*
X64563Y938280D01*
X64713Y938267D01*
X64876Y938255D01*
X64963D01*
X65026Y938267D01*
X65101Y938280D01*
X65188Y938292D01*
X65388Y938342D01*
X65613Y938417D01*
X65863Y938530D01*
X65988Y938605D01*
X66113Y938705D01*
X66226Y938805D01*
X66338Y938917D01*
X66350Y938930D01*
X66363Y938955D01*
X66388Y938992D01*
X66425Y939042D01*
X66475Y939117D01*
X66525Y939204D01*
X66575Y939305D01*
X66638Y939417D01*
X66688Y939555D01*
X66738Y939704D01*
X66788Y939867D01*
X66838Y940054D01*
X66875Y940254D01*
X66900Y940467D01*
X66925Y940692D01*
Y940942D01*
Y940954D01*
Y941004D01*
Y941067D01*
X66913Y941154D01*
Y941266D01*
X66900Y941379D01*
X66875Y941516D01*
X66850Y941666D01*
X66788Y941979D01*
X66675Y942304D01*
X66538Y942616D01*
X66438Y942766D01*
X66338Y942891D01*
X66325Y942904D01*
X66313Y942916D01*
X66276Y942954D01*
X66238Y942991D01*
X66101Y943103D01*
X65938Y943229D01*
X65726Y943354D01*
X65476Y943466D01*
X65188Y943541D01*
X65038Y943553D01*
X64876Y943566D01*
D02*
G37*
G36*
X129884Y940917D02*
X129872D01*
X129859Y940904D01*
X129822Y940892D01*
X129759Y940879D01*
X129697Y940854D01*
X129609Y940829D01*
X129509Y940792D01*
X129397Y940767D01*
X129272Y940729D01*
X129134Y940692D01*
X128972Y940654D01*
X128797Y940617D01*
X128610Y940579D01*
X128410Y940542D01*
X128197Y940504D01*
X127960Y940467D01*
X127922D01*
X127897Y940454D01*
X127847D01*
X127710Y940429D01*
X127560Y940404D01*
X127397Y940367D01*
X127222Y940329D01*
X127060Y940279D01*
X126935Y940229D01*
X126923D01*
X126885Y940204D01*
X126835Y940179D01*
X126760Y940142D01*
X126610Y940017D01*
X126535Y939942D01*
X126473Y939854D01*
X126460Y939842D01*
X126448Y939817D01*
X126423Y939754D01*
X126398Y939692D01*
X126360Y939604D01*
X126335Y939517D01*
X126323Y939405D01*
X126310Y939292D01*
Y939267D01*
Y939217D01*
X126335Y939130D01*
X126360Y939017D01*
X126398Y938905D01*
X126460Y938767D01*
X126547Y938642D01*
X126660Y938517D01*
X126672Y938505D01*
X126722Y938467D01*
X126810Y938417D01*
X126923Y938367D01*
X127072Y938305D01*
X127260Y938255D01*
X127472Y938217D01*
X127710Y938205D01*
X127822D01*
X127947Y938217D01*
X128110Y938242D01*
X128297Y938280D01*
X128497Y938330D01*
X128709Y938392D01*
X128909Y938492D01*
X128922D01*
X128934Y938505D01*
X128997Y938542D01*
X129097Y938617D01*
X129209Y938705D01*
X129334Y938817D01*
X129472Y938967D01*
X129597Y939117D01*
X129697Y939305D01*
X129709Y939330D01*
X129722Y939380D01*
X129759Y939467D01*
X129797Y939604D01*
X129822Y939767D01*
X129859Y939967D01*
X129872Y940204D01*
X129884Y940479D01*
Y940917D01*
D02*
G37*
G36*
X66963Y925903D02*
X64214D01*
Y922466D01*
X66800D01*
X66888Y922479D01*
X66988D01*
X67100Y922491D01*
X67363Y922529D01*
X67650Y922579D01*
X67938Y922654D01*
X68200Y922766D01*
X68325Y922841D01*
X68425Y922916D01*
X68450Y922941D01*
X68512Y923004D01*
X68587Y923104D01*
X68687Y923253D01*
X68787Y923441D01*
X68862Y923666D01*
X68925Y923916D01*
X68950Y924216D01*
Y924228D01*
Y924241D01*
Y924316D01*
X68937Y924428D01*
X68912Y924566D01*
X68875Y924728D01*
X68812Y924903D01*
X68737Y925078D01*
X68637Y925240D01*
X68625Y925266D01*
X68587Y925315D01*
X68512Y925390D01*
X68425Y925478D01*
X68313Y925578D01*
X68175Y925665D01*
X68013Y925753D01*
X67838Y925815D01*
X67825D01*
X67775Y925828D01*
X67688Y925840D01*
X67575Y925865D01*
X67413Y925878D01*
X67213Y925890D01*
X66963Y925903D01*
D02*
G37*
G36*
X85083D02*
X82809D01*
Y923004D01*
X85171D01*
X85346Y923016D01*
X85546Y923029D01*
X85745Y923041D01*
X85933Y923066D01*
X86083Y923104D01*
X86108Y923116D01*
X86158Y923129D01*
X86245Y923166D01*
X86358Y923216D01*
X86483Y923291D01*
X86595Y923366D01*
X86720Y923466D01*
X86820Y923578D01*
X86833Y923591D01*
X86858Y923641D01*
X86895Y923716D01*
X86945Y923816D01*
X86995Y923928D01*
X87033Y924078D01*
X87058Y924241D01*
X87070Y924428D01*
Y924453D01*
Y924503D01*
X87058Y924603D01*
X87045Y924716D01*
X87008Y924841D01*
X86970Y924978D01*
X86908Y925128D01*
X86833Y925266D01*
X86820Y925278D01*
X86795Y925328D01*
X86745Y925390D01*
X86670Y925465D01*
X86570Y925553D01*
X86470Y925628D01*
X86333Y925703D01*
X86183Y925765D01*
X86158Y925778D01*
X86095Y925790D01*
X85996Y925815D01*
X85845Y925840D01*
X85745Y925853D01*
X85646Y925865D01*
X85521D01*
X85383Y925878D01*
X85246Y925890D01*
X85083Y925903D01*
D02*
G37*
G36*
X94743Y943566D02*
X94668D01*
X94606Y943553D01*
X94543D01*
X94456Y943541D01*
X94268Y943503D01*
X94056Y943428D01*
X93818Y943328D01*
X93594Y943204D01*
X93481Y943116D01*
X93369Y943016D01*
X93344Y942991D01*
X93281Y942916D01*
X93194Y942804D01*
X93094Y942641D01*
X92981Y942429D01*
X92881Y942179D01*
X92806Y941904D01*
X92769Y941579D01*
X96655D01*
Y941591D01*
Y941616D01*
X96643Y941666D01*
X96630Y941716D01*
Y941791D01*
X96605Y941879D01*
X96568Y942066D01*
X96505Y942279D01*
X96430Y942491D01*
X96330Y942704D01*
X96205Y942879D01*
Y942891D01*
X96180Y942904D01*
X96143Y942941D01*
X96105Y942991D01*
X95980Y943091D01*
X95818Y943229D01*
X95605Y943354D01*
X95356Y943454D01*
X95068Y943541D01*
X94906Y943553D01*
X94743Y943566D01*
D02*
G37*
G36*
X29297Y906040D02*
Y906028D01*
X29285Y906003D01*
X29272Y905953D01*
X29260Y905878D01*
X29248Y905790D01*
X29223Y905690D01*
X29197Y905578D01*
X29160Y905453D01*
X29085Y905178D01*
X28998Y904866D01*
X28898Y904528D01*
X28773Y904191D01*
X27723Y901379D01*
X30984D01*
X29985Y904028D01*
Y904041D01*
X29960Y904078D01*
X29935Y904141D01*
X29910Y904228D01*
X29872Y904328D01*
X29822Y904453D01*
X29772Y904591D01*
X29722Y904741D01*
X29610Y905053D01*
X29497Y905390D01*
X29397Y905728D01*
X29297Y906040D01*
D02*
G37*
G36*
X83559Y943566D02*
X83484D01*
X83421Y943553D01*
X83359D01*
X83271Y943541D01*
X83084Y943503D01*
X82871Y943428D01*
X82634Y943328D01*
X82409Y943204D01*
X82296Y943116D01*
X82184Y943016D01*
X82159Y942991D01*
X82096Y942916D01*
X82009Y942804D01*
X81909Y942641D01*
X81797Y942429D01*
X81697Y942179D01*
X81622Y941904D01*
X81584Y941579D01*
X85471D01*
Y941591D01*
Y941616D01*
X85458Y941666D01*
X85446Y941716D01*
Y941791D01*
X85421Y941879D01*
X85383Y942066D01*
X85321Y942279D01*
X85246Y942491D01*
X85146Y942704D01*
X85021Y942879D01*
Y942891D01*
X84996Y942904D01*
X84958Y942941D01*
X84921Y942991D01*
X84796Y943091D01*
X84633Y943229D01*
X84421Y943354D01*
X84171Y943454D01*
X83883Y943541D01*
X83721Y943553D01*
X83559Y943566D01*
D02*
G37*
G36*
X110976Y946040D02*
Y946028D01*
X110964Y946003D01*
X110951Y945953D01*
X110939Y945878D01*
X110927Y945790D01*
X110902Y945690D01*
X110877Y945578D01*
X110839Y945453D01*
X110764Y945178D01*
X110677Y944866D01*
X110577Y944528D01*
X110452Y944191D01*
X109402Y941379D01*
X112664D01*
X111664Y944028D01*
Y944041D01*
X111639Y944078D01*
X111614Y944141D01*
X111589Y944228D01*
X111551Y944328D01*
X111501Y944453D01*
X111451Y944591D01*
X111401Y944741D01*
X111289Y945053D01*
X111177Y945390D01*
X111076Y945728D01*
X110976Y946040D01*
D02*
G37*
G36*
X38807Y943566D02*
X38733D01*
X38670Y943553D01*
X38608D01*
X38520Y943541D01*
X38333Y943503D01*
X38120Y943428D01*
X37883Y943328D01*
X37658Y943204D01*
X37545Y943116D01*
X37433Y943016D01*
X37408Y942991D01*
X37345Y942916D01*
X37258Y942804D01*
X37158Y942641D01*
X37046Y942429D01*
X36946Y942179D01*
X36871Y941904D01*
X36833Y941579D01*
X40719D01*
Y941591D01*
Y941616D01*
X40707Y941666D01*
X40694Y941716D01*
Y941791D01*
X40669Y941879D01*
X40632Y942066D01*
X40570Y942279D01*
X40495Y942491D01*
X40395Y942704D01*
X40270Y942879D01*
Y942891D01*
X40245Y942904D01*
X40207Y942941D01*
X40170Y942991D01*
X40045Y943091D01*
X39882Y943229D01*
X39670Y943354D01*
X39420Y943454D01*
X39132Y943541D01*
X38970Y943553D01*
X38807Y943566D01*
D02*
G37*
G36*
X12152Y906040D02*
Y906028D01*
X12139Y906003D01*
X12127Y905953D01*
X12114Y905878D01*
X12102Y905790D01*
X12077Y905690D01*
X12052Y905578D01*
X12014Y905453D01*
X11939Y905178D01*
X11852Y904866D01*
X11752Y904528D01*
X11627Y904191D01*
X10577Y901379D01*
X13839D01*
X12839Y904028D01*
Y904041D01*
X12814Y904078D01*
X12789Y904141D01*
X12764Y904228D01*
X12727Y904328D01*
X12677Y904453D01*
X12627Y904591D01*
X12577Y904741D01*
X12464Y905053D01*
X12352Y905390D01*
X12252Y905728D01*
X12152Y906040D01*
D02*
G37*
G36*
X21474Y926040D02*
Y926028D01*
X21462Y926003D01*
X21449Y925953D01*
X21437Y925878D01*
X21425Y925790D01*
X21400Y925690D01*
X21374Y925578D01*
X21337Y925453D01*
X21262Y925178D01*
X21175Y924866D01*
X21075Y924528D01*
X20950Y924191D01*
X19900Y921379D01*
X23161D01*
X22162Y924028D01*
Y924041D01*
X22137Y924078D01*
X22112Y924141D01*
X22087Y924228D01*
X22049Y924328D01*
X21999Y924453D01*
X21949Y924591D01*
X21899Y924741D01*
X21787Y925053D01*
X21674Y925390D01*
X21574Y925728D01*
X21474Y926040D01*
D02*
G37*
G36*
X64163Y966103D02*
X64089D01*
X64026Y966090D01*
X63876Y966065D01*
X63701Y966015D01*
X63489Y965928D01*
X63276Y965803D01*
X63164Y965728D01*
X63064Y965640D01*
X62964Y965528D01*
X62864Y965403D01*
X62851Y965390D01*
X62839Y965366D01*
X62814Y965303D01*
X62776Y965228D01*
X62726Y965128D01*
X62676Y965003D01*
X62626Y964853D01*
X62564Y964666D01*
X62514Y964466D01*
X62452Y964228D01*
X62401Y963966D01*
X62364Y963666D01*
X62314Y963341D01*
X62289Y962979D01*
X62277Y962591D01*
X62264Y962166D01*
Y962154D01*
Y962141D01*
Y962066D01*
Y961941D01*
X62277Y961779D01*
Y961591D01*
X62289Y961379D01*
X62314Y961142D01*
X62339Y960879D01*
X62401Y960354D01*
X62439Y960092D01*
X62501Y959842D01*
X62564Y959592D01*
X62639Y959380D01*
X62714Y959180D01*
X62814Y959017D01*
X62826Y959005D01*
X62839Y958980D01*
X62876Y958942D01*
X62914Y958892D01*
X63026Y958767D01*
X63189Y958630D01*
X63389Y958492D01*
X63626Y958367D01*
X63751Y958317D01*
X63889Y958280D01*
X64026Y958255D01*
X64176Y958242D01*
X64251D01*
X64314Y958255D01*
X64376Y958267D01*
X64463Y958280D01*
X64651Y958342D01*
X64863Y958430D01*
X64976Y958492D01*
X65088Y958567D01*
X65213Y958655D01*
X65326Y958767D01*
X65438Y958880D01*
X65538Y959017D01*
X65551Y959030D01*
X65563Y959055D01*
X65588Y959105D01*
X65626Y959180D01*
X65663Y959267D01*
X65713Y959392D01*
X65763Y959529D01*
X65826Y959704D01*
X65876Y959904D01*
X65926Y960129D01*
X65976Y960392D01*
X66013Y960679D01*
X66051Y961004D01*
X66076Y961354D01*
X66101Y961741D01*
Y962166D01*
Y962179D01*
Y962191D01*
Y962266D01*
Y962391D01*
X66088Y962554D01*
Y962741D01*
X66076Y962954D01*
X66051Y963204D01*
X66026Y963454D01*
X65963Y963978D01*
X65913Y964241D01*
X65863Y964503D01*
X65801Y964741D01*
X65726Y964953D01*
X65638Y965153D01*
X65538Y965315D01*
Y965328D01*
X65513Y965353D01*
X65488Y965390D01*
X65438Y965441D01*
X65326Y965565D01*
X65163Y965715D01*
X64963Y965853D01*
X64726Y965978D01*
X64601Y966028D01*
X64463Y966065D01*
X64314Y966090D01*
X64163Y966103D01*
D02*
G37*
G36*
X85021Y921866D02*
X82809D01*
Y918567D01*
X85533D01*
X85821Y918580D01*
X85946Y918592D01*
X86058Y918605D01*
X86083D01*
X86133Y918617D01*
X86208Y918642D01*
X86308Y918667D01*
X86433Y918705D01*
X86545Y918742D01*
X86670Y918805D01*
X86783Y918867D01*
X86795Y918880D01*
X86833Y918905D01*
X86883Y918942D01*
X86958Y919005D01*
X87033Y919080D01*
X87120Y919180D01*
X87195Y919279D01*
X87270Y919405D01*
X87283Y919417D01*
X87308Y919467D01*
X87333Y919542D01*
X87370Y919642D01*
X87408Y919754D01*
X87445Y919892D01*
X87458Y920054D01*
X87470Y920217D01*
Y920242D01*
Y920304D01*
X87458Y920404D01*
X87433Y920529D01*
X87395Y920679D01*
X87345Y920829D01*
X87283Y920992D01*
X87183Y921142D01*
X87170Y921154D01*
X87133Y921204D01*
X87070Y921279D01*
X86983Y921367D01*
X86870Y921454D01*
X86745Y921554D01*
X86595Y921629D01*
X86420Y921704D01*
X86395Y921716D01*
X86333Y921729D01*
X86220Y921754D01*
X86058Y921791D01*
X85871Y921816D01*
X85621Y921841D01*
X85346Y921854D01*
X85021Y921866D01*
D02*
G37*
G36*
X38470Y905903D02*
X36246D01*
Y898567D01*
X38533D01*
X38620Y898580D01*
X38832Y898592D01*
X39070Y898605D01*
X39320Y898642D01*
X39570Y898680D01*
X39782Y898742D01*
X39795D01*
X39807Y898755D01*
X39870Y898780D01*
X39970Y898817D01*
X40095Y898867D01*
X40232Y898942D01*
X40370Y899017D01*
X40520Y899117D01*
X40645Y899230D01*
X40670Y899255D01*
X40720Y899317D01*
X40795Y899417D01*
X40907Y899555D01*
X41020Y899729D01*
X41132Y899942D01*
X41244Y900179D01*
X41344Y900454D01*
Y900467D01*
X41357Y900492D01*
X41369Y900529D01*
X41382Y900592D01*
X41407Y900667D01*
X41432Y900754D01*
X41457Y900854D01*
X41482Y900967D01*
X41494Y901104D01*
X41519Y901242D01*
X41569Y901554D01*
X41594Y901916D01*
X41607Y902304D01*
Y902316D01*
Y902366D01*
Y902454D01*
X41594Y902554D01*
Y902679D01*
X41582Y902816D01*
X41569Y902979D01*
X41544Y903154D01*
X41482Y903528D01*
X41394Y903916D01*
X41269Y904278D01*
X41194Y904453D01*
X41107Y904616D01*
Y904628D01*
X41082Y904653D01*
X41057Y904691D01*
X41020Y904753D01*
X40907Y904891D01*
X40770Y905053D01*
X40595Y905240D01*
X40395Y905415D01*
X40157Y905578D01*
X40032Y905640D01*
X39907Y905703D01*
X39882Y905715D01*
X39857Y905728D01*
X39807Y905740D01*
X39757Y905753D01*
X39682Y905765D01*
X39607Y905790D01*
X39507Y905803D01*
X39407Y905828D01*
X39282Y905840D01*
X39145Y905853D01*
X38995Y905878D01*
X38832Y905890D01*
X38658D01*
X38470Y905903D01*
D02*
G37*
G36*
X43319Y925903D02*
X41094D01*
Y918567D01*
X43381D01*
X43469Y918580D01*
X43681Y918592D01*
X43919Y918605D01*
X44169Y918642D01*
X44419Y918680D01*
X44631Y918742D01*
X44644D01*
X44656Y918755D01*
X44718Y918780D01*
X44819Y918817D01*
X44943Y918867D01*
X45081Y918942D01*
X45218Y919017D01*
X45368Y919117D01*
X45493Y919230D01*
X45518Y919255D01*
X45568Y919317D01*
X45643Y919417D01*
X45756Y919555D01*
X45868Y919729D01*
X45981Y919942D01*
X46093Y920179D01*
X46193Y920454D01*
Y920467D01*
X46206Y920492D01*
X46218Y920529D01*
X46231Y920592D01*
X46256Y920667D01*
X46281Y920754D01*
X46306Y920854D01*
X46331Y920967D01*
X46343Y921104D01*
X46368Y921242D01*
X46418Y921554D01*
X46443Y921916D01*
X46456Y922304D01*
Y922316D01*
Y922366D01*
Y922454D01*
X46443Y922554D01*
Y922679D01*
X46431Y922816D01*
X46418Y922979D01*
X46393Y923154D01*
X46331Y923529D01*
X46243Y923916D01*
X46118Y924278D01*
X46043Y924453D01*
X45956Y924616D01*
Y924628D01*
X45931Y924653D01*
X45906Y924691D01*
X45868Y924753D01*
X45756Y924891D01*
X45618Y925053D01*
X45443Y925240D01*
X45243Y925415D01*
X45006Y925578D01*
X44881Y925640D01*
X44756Y925703D01*
X44731Y925715D01*
X44706Y925728D01*
X44656Y925740D01*
X44606Y925753D01*
X44531Y925765D01*
X44456Y925790D01*
X44356Y925803D01*
X44256Y925828D01*
X44131Y925840D01*
X43994Y925853D01*
X43844Y925878D01*
X43681Y925890D01*
X43506D01*
X43319Y925903D01*
D02*
G37*
%LPD*%
D61*
X0Y0D02*
X1270000D01*
X0D02*
Y858500D01*
X1270000Y0D02*
Y858500D01*
X0D02*
X1270000D01*
D79*
X-20317Y186690D02*
X-7620D01*
X-20317D02*
Y190922D01*
X-19713Y192736D01*
X-18503Y193946D01*
X-17294Y194550D01*
X-15480Y195155D01*
X-12457D01*
X-10643Y194550D01*
X-9434Y193946D01*
X-8225Y192736D01*
X-7620Y190922D01*
Y186690D01*
X-20317Y201624D02*
X-19713Y200415D01*
X-18503Y199206D01*
X-17294Y198601D01*
X-15480Y197997D01*
X-12457D01*
X-10643Y198601D01*
X-9434Y199206D01*
X-8225Y200415D01*
X-7620Y201624D01*
Y204043D01*
X-8225Y205252D01*
X-9434Y206462D01*
X-10643Y207066D01*
X-12457Y207671D01*
X-15480D01*
X-17294Y207066D01*
X-18503Y206462D01*
X-19713Y205252D01*
X-20317Y204043D01*
Y201624D01*
Y220610D02*
X-7620D01*
X-20317D02*
X-7620Y229075D01*
X-20317D02*
X-7620D01*
X-20317Y236209D02*
X-19713Y235000D01*
X-18503Y233791D01*
X-17294Y233186D01*
X-15480Y232582D01*
X-12457D01*
X-10643Y233186D01*
X-9434Y233791D01*
X-8225Y235000D01*
X-7620Y236209D01*
Y238628D01*
X-8225Y239837D01*
X-9434Y241047D01*
X-10643Y241651D01*
X-12457Y242256D01*
X-15480D01*
X-17294Y241651D01*
X-18503Y241047D01*
X-19713Y239837D01*
X-20317Y238628D01*
Y236209D01*
Y249451D02*
X-7620D01*
X-20317Y245218D02*
Y253683D01*
X-7620Y274845D02*
X-20317Y270008D01*
X-7620Y265171D01*
X-11852Y266985D02*
Y273032D01*
X-20317Y277808D02*
X-7620D01*
X-20317D02*
Y282041D01*
X-19713Y283854D01*
X-18503Y285064D01*
X-17294Y285668D01*
X-15480Y286273D01*
X-12457D01*
X-10643Y285668D01*
X-9434Y285064D01*
X-8225Y283854D01*
X-7620Y282041D01*
Y277808D01*
X-20317Y295161D02*
X-10643D01*
X-8829Y294556D01*
X-8225Y293952D01*
X-7620Y292743D01*
Y291533D01*
X-8225Y290324D01*
X-8829Y289719D01*
X-10643Y289115D01*
X-11852D01*
X-20317Y298426D02*
X-11248D01*
X-9434Y299031D01*
X-8225Y300240D01*
X-7620Y302054D01*
Y303263D01*
X-8225Y305077D01*
X-9434Y306286D01*
X-11248Y306891D01*
X-20317D01*
X-18503Y318863D02*
X-19713Y317653D01*
X-20317Y315840D01*
Y313421D01*
X-19713Y311607D01*
X-18503Y310398D01*
X-17294D01*
X-16085Y311002D01*
X-15480Y311607D01*
X-14876Y312816D01*
X-13666Y316444D01*
X-13062Y317653D01*
X-12457Y318258D01*
X-11248Y318863D01*
X-9434D01*
X-8225Y317653D01*
X-7620Y315840D01*
Y313421D01*
X-8225Y311607D01*
X-9434Y310398D01*
X-20317Y325937D02*
X-7620D01*
X-20317Y321704D02*
Y330169D01*
Y345890D02*
X-7620D01*
X-20317Y341657D02*
Y350122D01*
Y351634D02*
X-7620D01*
X-20317Y360099D02*
X-7620D01*
X-14271Y351634D02*
Y360099D01*
X-20317Y363605D02*
X-7620D01*
X-18503Y374731D02*
X-19713Y373521D01*
X-20317Y371707D01*
Y369289D01*
X-19713Y367475D01*
X-18503Y366266D01*
X-17294D01*
X-16085Y366870D01*
X-15480Y367475D01*
X-14876Y368684D01*
X-13666Y372312D01*
X-13062Y373521D01*
X-12457Y374126D01*
X-11248Y374731D01*
X-9434D01*
X-8225Y373521D01*
X-7620Y371707D01*
Y369289D01*
X-8225Y367475D01*
X-9434Y366266D01*
X-20317Y395409D02*
Y387549D01*
X-7620D01*
Y395409D01*
X-14271Y387549D02*
Y392386D01*
X-20317Y397525D02*
X-7620D01*
X-20317D02*
Y401758D01*
X-19713Y403572D01*
X-18503Y404781D01*
X-17294Y405386D01*
X-15480Y405990D01*
X-12457D01*
X-10643Y405386D01*
X-9434Y404781D01*
X-8225Y403572D01*
X-7620Y401758D01*
Y397525D01*
X-17294Y417901D02*
X-18503Y417297D01*
X-19713Y416087D01*
X-20317Y414878D01*
Y412460D01*
X-19713Y411250D01*
X-18503Y410041D01*
X-17294Y409437D01*
X-15480Y408832D01*
X-12457D01*
X-10643Y409437D01*
X-9434Y410041D01*
X-8225Y411250D01*
X-7620Y412460D01*
Y414878D01*
X-8225Y416087D01*
X-9434Y417297D01*
X-10643Y417901D01*
X-12457D01*
Y414878D02*
Y417901D01*
X-20317Y428664D02*
Y420804D01*
X-7620D01*
Y428664D01*
X-14271Y420804D02*
Y425641D01*
X-13062Y440756D02*
Y451640D01*
X-17294Y474435D02*
X-18503Y473830D01*
X-19713Y472621D01*
X-20317Y471411D01*
Y468993D01*
X-19713Y467784D01*
X-18503Y466574D01*
X-17294Y465970D01*
X-15480Y465365D01*
X-12457D01*
X-10643Y465970D01*
X-9434Y466574D01*
X-8225Y467784D01*
X-7620Y468993D01*
Y471411D01*
X-8225Y472621D01*
X-9434Y473830D01*
X-10643Y474435D01*
X-20317Y478002D02*
X-7620D01*
X-20317D02*
Y483444D01*
X-19713Y485257D01*
X-19108Y485862D01*
X-17899Y486467D01*
X-16689D01*
X-15480Y485862D01*
X-14876Y485257D01*
X-14271Y483444D01*
Y478002D01*
Y482234D02*
X-7620Y486467D01*
X-20317Y489309D02*
X-7620D01*
X-20317Y496201D02*
X-7620D01*
X-20317Y491969D02*
Y500434D01*
Y501945D02*
X-7620D01*
X-17294Y513675D02*
X-18503Y513071D01*
X-19713Y511861D01*
X-20317Y510652D01*
Y508233D01*
X-19713Y507024D01*
X-18503Y505815D01*
X-17294Y505210D01*
X-15480Y504606D01*
X-12457D01*
X-10643Y505210D01*
X-9434Y505815D01*
X-8225Y507024D01*
X-7620Y508233D01*
Y510652D01*
X-8225Y511861D01*
X-9434Y513071D01*
X-10643Y513675D01*
X-7620Y526917D02*
X-20317Y522080D01*
X-7620Y517243D01*
X-11852Y519056D02*
Y525103D01*
X-20317Y529879D02*
X-7620D01*
Y537135D01*
Y558176D02*
X-20317Y553339D01*
X-7620Y548502D01*
X-11852Y550316D02*
Y556362D01*
X-20317Y561139D02*
X-7620D01*
Y568394D01*
X-20317Y569785D02*
X-7620D01*
X-17294Y581515D02*
X-18503Y580910D01*
X-19713Y579701D01*
X-20317Y578492D01*
Y576073D01*
X-19713Y574864D01*
X-18503Y573655D01*
X-17294Y573050D01*
X-15480Y572445D01*
X-12457D01*
X-10643Y573050D01*
X-9434Y573655D01*
X-8225Y574864D01*
X-7620Y576073D01*
Y578492D01*
X-8225Y579701D01*
X-9434Y580910D01*
X-10643Y581515D01*
X-12457D01*
Y578492D02*
Y581515D01*
X-20317Y584417D02*
X-7620D01*
X-20317D02*
X-7620Y592882D01*
X-20317D02*
X-7620D01*
X-20317Y596389D02*
X-7620D01*
X-20317D02*
X-7620Y601226D01*
X-20317Y606063D02*
X-7620Y601226D01*
X-20317Y606063D02*
X-7620D01*
X-20317Y617551D02*
Y609691D01*
X-7620D01*
Y617551D01*
X-14271Y609691D02*
Y614528D01*
X-20317Y619667D02*
X-7620D01*
X-20317D02*
X-7620Y628132D01*
X-20317D02*
X-7620D01*
X-20317Y635871D02*
X-7620D01*
X-20317Y631639D02*
Y640104D01*
D104*
X233300Y455930D02*
D03*
X249300D02*
D03*
X233300Y78740D02*
D03*
X249300D02*
D03*
D105*
X7620Y794781D02*
D03*
Y210820D02*
D03*
Y397670D02*
D03*
Y586740D02*
D03*
D106*
X85500Y30000D02*
D03*
X77500Y817500D02*
D03*
X775000Y822500D02*
D03*
D107*
X943610Y827100D02*
D03*
X930910D02*
D03*
X918210D02*
D03*
X905510D02*
D03*
Y773100D02*
D03*
X918210D02*
D03*
X930910D02*
D03*
X943610D02*
D03*
D108*
X776610Y693120D02*
D03*
Y699620D02*
D03*
Y706120D02*
D03*
Y712620D02*
D03*
Y719120D02*
D03*
X729610D02*
D03*
Y712620D02*
D03*
Y706120D02*
D03*
Y699620D02*
D03*
Y693120D02*
D03*
X315600Y768050D02*
D03*
Y774550D02*
D03*
Y781050D02*
D03*
Y787550D02*
D03*
Y794050D02*
D03*
X268600D02*
D03*
Y787550D02*
D03*
Y781050D02*
D03*
Y774550D02*
D03*
Y768050D02*
D03*
X561980Y747730D02*
D03*
Y754230D02*
D03*
Y760730D02*
D03*
Y767230D02*
D03*
Y773730D02*
D03*
X514980D02*
D03*
Y767230D02*
D03*
Y760730D02*
D03*
Y754230D02*
D03*
Y747730D02*
D03*
D109*
X766110Y729620D02*
D03*
X759610D02*
D03*
X753110D02*
D03*
X746610D02*
D03*
X740110D02*
D03*
Y682620D02*
D03*
X746610D02*
D03*
X753110D02*
D03*
X759610D02*
D03*
X766110D02*
D03*
X279100Y757550D02*
D03*
X285600D02*
D03*
X292100D02*
D03*
X298600D02*
D03*
X305100D02*
D03*
Y804550D02*
D03*
X298600D02*
D03*
X292100D02*
D03*
X285600D02*
D03*
X279100D02*
D03*
X525480Y737230D02*
D03*
X531980D02*
D03*
X538480D02*
D03*
X544980D02*
D03*
X551480D02*
D03*
Y784230D02*
D03*
X544980D02*
D03*
X538480D02*
D03*
X531980D02*
D03*
X525480D02*
D03*
D110*
X753110Y706120D02*
D03*
D111*
X188930Y280010D02*
D03*
Y270510D02*
D03*
Y261010D02*
D03*
X214930D02*
D03*
Y280010D02*
D03*
X188930Y655849D02*
D03*
Y646349D02*
D03*
Y636849D02*
D03*
X214930D02*
D03*
Y655849D02*
D03*
D112*
X98760Y605740D02*
D03*
Y596240D02*
D03*
Y586740D02*
D03*
X124760D02*
D03*
Y596240D02*
D03*
Y605740D02*
D03*
X98760Y229820D02*
D03*
Y220320D02*
D03*
Y210820D02*
D03*
X124760D02*
D03*
Y220320D02*
D03*
Y229820D02*
D03*
D113*
X111760Y596240D02*
D03*
Y220320D02*
D03*
D114*
X89560Y752810D02*
D03*
X99060D02*
D03*
X108560D02*
D03*
Y778810D02*
D03*
X89560D02*
D03*
D115*
X1048970Y611280D02*
D03*
Y617780D02*
D03*
Y624280D02*
D03*
Y630780D02*
D03*
X1010970D02*
D03*
Y624280D02*
D03*
Y617780D02*
D03*
Y611280D02*
D03*
D116*
X729640Y538950D02*
D03*
X739140D02*
D03*
X748640D02*
D03*
Y565950D02*
D03*
X739140D02*
D03*
X729640D02*
D03*
D117*
X728390Y469930D02*
D03*
Y464930D02*
D03*
Y459930D02*
D03*
Y454930D02*
D03*
Y449930D02*
D03*
Y444930D02*
D03*
Y439930D02*
D03*
Y434930D02*
D03*
Y429930D02*
D03*
Y424930D02*
D03*
Y419930D02*
D03*
Y414930D02*
D03*
Y409930D02*
D03*
Y404930D02*
D03*
Y399930D02*
D03*
Y394930D02*
D03*
Y389930D02*
D03*
Y384930D02*
D03*
Y379930D02*
D03*
Y374930D02*
D03*
Y369930D02*
D03*
Y364930D02*
D03*
Y359930D02*
D03*
Y354930D02*
D03*
Y349930D02*
D03*
Y344930D02*
D03*
Y339930D02*
D03*
Y334930D02*
D03*
Y329930D02*
D03*
Y324930D02*
D03*
Y319930D02*
D03*
Y314930D02*
D03*
X940390D02*
D03*
Y319930D02*
D03*
Y324930D02*
D03*
Y329930D02*
D03*
Y334930D02*
D03*
Y339930D02*
D03*
Y344930D02*
D03*
Y349930D02*
D03*
Y354930D02*
D03*
Y359930D02*
D03*
Y364930D02*
D03*
Y369930D02*
D03*
Y374930D02*
D03*
Y379930D02*
D03*
Y384930D02*
D03*
Y389930D02*
D03*
Y394930D02*
D03*
Y399930D02*
D03*
Y404930D02*
D03*
Y409930D02*
D03*
Y414930D02*
D03*
Y419930D02*
D03*
Y424930D02*
D03*
Y429930D02*
D03*
Y434930D02*
D03*
Y439930D02*
D03*
Y444930D02*
D03*
Y449930D02*
D03*
Y454930D02*
D03*
Y459930D02*
D03*
Y464930D02*
D03*
Y469930D02*
D03*
D118*
X756890Y286430D02*
D03*
X761890D02*
D03*
X766890D02*
D03*
X771890D02*
D03*
X776890D02*
D03*
X781890D02*
D03*
X786890D02*
D03*
X791890D02*
D03*
X796890D02*
D03*
X801890D02*
D03*
X806890D02*
D03*
X811890D02*
D03*
X816890D02*
D03*
X821890D02*
D03*
X826890D02*
D03*
X831890D02*
D03*
X836890D02*
D03*
X841890D02*
D03*
X846890D02*
D03*
X851890D02*
D03*
X856890D02*
D03*
X861890D02*
D03*
X866890D02*
D03*
X871890D02*
D03*
X876890D02*
D03*
X881890D02*
D03*
X886890D02*
D03*
X891890D02*
D03*
X896890D02*
D03*
X901890D02*
D03*
X906890D02*
D03*
X911890D02*
D03*
Y498430D02*
D03*
X906890D02*
D03*
X901890D02*
D03*
X896890D02*
D03*
X891890D02*
D03*
X886890D02*
D03*
X881890D02*
D03*
X876890D02*
D03*
X871890D02*
D03*
X866890D02*
D03*
X861890D02*
D03*
X856890D02*
D03*
X851890D02*
D03*
X846890D02*
D03*
X841890D02*
D03*
X836890D02*
D03*
X831890D02*
D03*
X826890D02*
D03*
X821890D02*
D03*
X816890D02*
D03*
X811890D02*
D03*
X806890D02*
D03*
X801890D02*
D03*
X796890D02*
D03*
X791890D02*
D03*
X786890D02*
D03*
X781890D02*
D03*
X776890D02*
D03*
X771890D02*
D03*
X766890D02*
D03*
X761890D02*
D03*
X756890D02*
D03*
D119*
X834390Y392430D02*
D03*
D120*
X293624Y577644D02*
D03*
X308610D02*
D03*
X323596D02*
D03*
X293624Y201724D02*
D03*
X308610D02*
D03*
X323596D02*
D03*
D121*
X308610Y608124D02*
D03*
Y232204D02*
D03*
D122*
X742790Y88040D02*
D03*
Y94540D02*
D03*
Y101040D02*
D03*
Y107540D02*
D03*
X722790D02*
D03*
Y101040D02*
D03*
Y94540D02*
D03*
Y88040D02*
D03*
D123*
X438150Y608124D02*
D03*
Y592884D02*
D03*
Y577644D02*
D03*
X481330D02*
D03*
Y608124D02*
D03*
X438150Y201724D02*
D03*
Y186484D02*
D03*
Y171244D02*
D03*
X481330D02*
D03*
Y201724D02*
D03*
X130810Y397670D02*
D03*
Y382430D02*
D03*
Y367190D02*
D03*
X173990D02*
D03*
Y397670D02*
D03*
D124*
X767660Y78740D02*
D03*
X776660D02*
D03*
X767660Y104140D02*
D03*
X776660D02*
D03*
X692730Y308610D02*
D03*
X701730D02*
D03*
X98370Y397670D02*
D03*
X107370D02*
D03*
X89480Y794781D02*
D03*
X98480D02*
D03*
D125*
X941070Y652145D02*
D03*
X915670Y681355D02*
D03*
X890270Y652145D02*
D03*
X864870Y681355D02*
D03*
X839470Y652145D02*
D03*
D126*
X342980Y201724D02*
D03*
X352980D02*
D03*
X342980Y577644D02*
D03*
X352980D02*
D03*
D127*
X1097660Y133350D02*
D03*
X1081660D02*
D03*
X1050670D02*
D03*
X1034670D02*
D03*
X1035940Y726440D02*
D03*
X1051940D02*
D03*
X1082930D02*
D03*
X1098930D02*
D03*
D128*
X374650Y602644D02*
D03*
Y577644D02*
D03*
Y226724D02*
D03*
Y201724D02*
D03*
D129*
X810260Y688975D02*
D03*
Y723265D02*
D03*
X213360Y781685D02*
D03*
Y815975D02*
D03*
X452120Y757555D02*
D03*
Y791845D02*
D03*
D130*
X261620Y616204D02*
D03*
Y600456D02*
D03*
X198120Y550164D02*
D03*
Y534416D02*
D03*
X284480D02*
D03*
Y550164D02*
D03*
X241300D02*
D03*
Y534416D02*
D03*
X219710Y550164D02*
D03*
Y534416D02*
D03*
X262890Y550164D02*
D03*
Y534416D02*
D03*
X260350Y240284D02*
D03*
Y224536D02*
D03*
X284480Y158496D02*
D03*
Y174244D02*
D03*
X198120D02*
D03*
Y158496D02*
D03*
X219710Y174244D02*
D03*
Y158496D02*
D03*
X241300Y174244D02*
D03*
Y158496D02*
D03*
X262890Y174244D02*
D03*
Y158496D02*
D03*
X243840Y804926D02*
D03*
Y820674D02*
D03*
X487680Y785876D02*
D03*
Y801624D02*
D03*
X722630Y604774D02*
D03*
Y589026D02*
D03*
X1083310Y656844D02*
D03*
Y641096D02*
D03*
Y599186D02*
D03*
Y614934D02*
D03*
X991870Y641096D02*
D03*
Y656844D02*
D03*
X243840Y763016D02*
D03*
Y778764D02*
D03*
X487680Y745236D02*
D03*
Y760984D02*
D03*
X778510Y589026D02*
D03*
Y604774D02*
D03*
X967740Y773176D02*
D03*
Y788924D02*
D03*
X733298Y183896D02*
D03*
Y199644D02*
D03*
X755650Y604774D02*
D03*
Y589026D02*
D03*
X733298Y223266D02*
D03*
Y239014D02*
D03*
D131*
X699770Y736570D02*
D03*
Y764570D02*
D03*
D132*
X99060Y244420D02*
D03*
Y253420D02*
D03*
X176530Y279980D02*
D03*
Y288980D02*
D03*
Y655900D02*
D03*
Y664900D02*
D03*
X798830Y86940D02*
D03*
Y95940D02*
D03*
X99060Y620340D02*
D03*
Y629340D02*
D03*
D133*
X247650Y652400D02*
D03*
Y668400D02*
D03*
X1071880Y114680D02*
D03*
Y98680D02*
D03*
X1022350Y114680D02*
D03*
Y98680D02*
D03*
X1023620Y745110D02*
D03*
Y761110D02*
D03*
X1073150Y745110D02*
D03*
Y761110D02*
D03*
X247650Y276480D02*
D03*
Y292480D02*
D03*
X762000Y748920D02*
D03*
Y764920D02*
D03*
X702500Y703000D02*
D03*
Y687000D02*
D03*
D134*
X204290Y602644D02*
D03*
Y597644D02*
D03*
Y592644D02*
D03*
Y587644D02*
D03*
Y582644D02*
D03*
Y577644D02*
D03*
X245290D02*
D03*
Y582644D02*
D03*
Y587644D02*
D03*
Y592644D02*
D03*
Y597644D02*
D03*
Y602644D02*
D03*
X204290Y226724D02*
D03*
Y221724D02*
D03*
Y216724D02*
D03*
Y211724D02*
D03*
Y206724D02*
D03*
Y201724D02*
D03*
X245290D02*
D03*
Y206724D02*
D03*
Y211724D02*
D03*
Y216724D02*
D03*
Y221724D02*
D03*
Y226724D02*
D03*
D135*
X212290Y569644D02*
D03*
X217290D02*
D03*
X222290D02*
D03*
X227290D02*
D03*
X232290D02*
D03*
X237290D02*
D03*
Y610644D02*
D03*
X232290D02*
D03*
X227290D02*
D03*
X222290D02*
D03*
X217290D02*
D03*
X212290D02*
D03*
Y193724D02*
D03*
X217290D02*
D03*
X222290D02*
D03*
X227290D02*
D03*
X232290D02*
D03*
X237290D02*
D03*
Y234724D02*
D03*
X232290D02*
D03*
X227290D02*
D03*
X222290D02*
D03*
X217290D02*
D03*
X212290D02*
D03*
D136*
X224790Y590144D02*
D03*
Y214224D02*
D03*
D137*
X172720Y599742D02*
D03*
Y577644D02*
D03*
X153670Y599742D02*
D03*
X172720Y223822D02*
D03*
Y201724D02*
D03*
X153670Y223822D02*
D03*
D138*
X155702Y577644D02*
D03*
Y201724D02*
D03*
D139*
X725000Y280000D02*
D03*
X937500Y495000D02*
D03*
X810000Y657500D02*
D03*
X667500Y805000D02*
D03*
X400000Y750000D02*
D03*
X270000Y840000D02*
D03*
X450000Y657500D02*
D03*
X150000Y525000D02*
D03*
X450000Y277500D02*
D03*
X160000Y150000D02*
D03*
D140*
X567660Y814070D02*
D03*
X595660D02*
D03*
X336520Y819150D02*
D03*
X364520D02*
D03*
D141*
X229180Y261010D02*
D03*
X238180D02*
D03*
X229180Y636849D02*
D03*
X238180D02*
D03*
X78050Y586740D02*
D03*
X87050D02*
D03*
X135200Y605790D02*
D03*
X144200D02*
D03*
X255850Y577644D02*
D03*
X264850D02*
D03*
X186000D02*
D03*
X195000D02*
D03*
X400630D02*
D03*
X409630D02*
D03*
X375230Y618490D02*
D03*
X384230D02*
D03*
X375230Y628650D02*
D03*
X384230D02*
D03*
X733480Y68580D02*
D03*
X724480D02*
D03*
X1025470Y655320D02*
D03*
X1034470D02*
D03*
X673680Y387510D02*
D03*
X682680D02*
D03*
X673680Y377350D02*
D03*
X682680D02*
D03*
X79320Y397670D02*
D03*
X88320D02*
D03*
X186000Y201724D02*
D03*
X195000D02*
D03*
X255850D02*
D03*
X264850D02*
D03*
X400630D02*
D03*
X409630D02*
D03*
X374651Y241300D02*
D03*
X383651D02*
D03*
X374651Y252730D02*
D03*
X383651D02*
D03*
X135200Y229870D02*
D03*
X144200D02*
D03*
X78050Y210820D02*
D03*
X87050D02*
D03*
X104830Y728980D02*
D03*
X95830D02*
D03*
D142*
X374651Y279400D02*
D03*
X390651D02*
D03*
X374651Y655320D02*
D03*
X390651D02*
D03*
X333630Y770890D02*
D03*
X349630D02*
D03*
X582550Y753110D02*
D03*
X598550D02*
D03*
X614500Y787500D02*
D03*
X630500D02*
D03*
D143*
X697858Y426092D02*
D03*
X704222Y419728D02*
D03*
X705478Y433712D02*
D03*
X711842Y427348D02*
D03*
D144*
X697858Y357498D02*
D03*
X704222Y363862D02*
D03*
X705478Y349878D02*
D03*
X711842Y356242D02*
D03*
D145*
X727964Y655320D02*
D03*
X712216D02*
D03*
X804926Y833120D02*
D03*
X820674D02*
D03*
X804926Y810260D02*
D03*
X820674D02*
D03*
X804926Y787400D02*
D03*
X820674D02*
D03*
X804926Y764540D02*
D03*
X820674D02*
D03*
X984892Y618039D02*
D03*
X969144D02*
D03*
X768604Y655320D02*
D03*
X752856D02*
D03*
X284226Y30480D02*
D03*
X299974D02*
D03*
X944001Y618291D02*
D03*
X928253D02*
D03*
D146*
X690238Y434968D02*
D03*
X696602Y441332D02*
D03*
D147*
X690238Y348622D02*
D03*
X696602Y342258D02*
D03*
D148*
X662750Y387500D02*
D03*
Y378500D02*
D03*
X705790Y321108D02*
D03*
Y330108D02*
D03*
D149*
X870750Y813460D02*
D03*
Y822960D02*
D03*
Y832460D02*
D03*
X843750D02*
D03*
Y822960D02*
D03*
Y813460D02*
D03*
X279870Y71730D02*
D03*
Y62230D02*
D03*
Y52730D02*
D03*
X306870D02*
D03*
Y62230D02*
D03*
Y71730D02*
D03*
X870750Y767740D02*
D03*
Y777240D02*
D03*
Y786740D02*
D03*
X843750D02*
D03*
Y777240D02*
D03*
Y767740D02*
D03*
D150*
X292100Y781050D02*
D03*
X538480Y760730D02*
D03*
D151*
X52197Y389288D02*
D03*
X6477Y786399D02*
D03*
X28575D02*
D03*
X52197D02*
D03*
X6477Y803163D02*
D03*
X28575D02*
D03*
X52197D02*
D03*
X6477Y202438D02*
D03*
X28575D02*
D03*
X52197D02*
D03*
X6477Y219202D02*
D03*
X28575D02*
D03*
X52197D02*
D03*
X6477Y389288D02*
D03*
X28575D02*
D03*
X6477Y406052D02*
D03*
X28575D02*
D03*
X52197D02*
D03*
X6477Y578358D02*
D03*
X28575D02*
D03*
X52197D02*
D03*
X6477Y595122D02*
D03*
X28575D02*
D03*
X52197D02*
D03*
D152*
X17526Y806973D02*
D03*
X39624D02*
D03*
X17526Y782589D02*
D03*
X39624D02*
D03*
X17526Y223012D02*
D03*
X39624D02*
D03*
X17526Y198628D02*
D03*
X39624D02*
D03*
X17526Y409862D02*
D03*
X39624D02*
D03*
X17526Y385478D02*
D03*
X39624D02*
D03*
X17526Y598932D02*
D03*
X39624D02*
D03*
X17526Y574548D02*
D03*
X39624D02*
D03*
X979170Y829310D02*
D03*
X1004570D02*
D03*
D153*
X1238250Y680000D02*
D03*
Y659700D02*
D03*
Y629200D02*
D03*
Y608900D02*
D03*
Y578400D02*
D03*
Y558100D02*
D03*
Y527600D02*
D03*
Y507300D02*
D03*
Y476800D02*
D03*
Y456500D02*
D03*
Y426000D02*
D03*
Y405700D02*
D03*
Y375200D02*
D03*
Y354900D02*
D03*
Y324400D02*
D03*
Y304100D02*
D03*
Y273600D02*
D03*
Y253300D02*
D03*
Y222800D02*
D03*
Y202500D02*
D03*
X1220750Y669900D02*
D03*
Y644500D02*
D03*
Y619100D02*
D03*
Y593700D02*
D03*
Y568300D02*
D03*
Y542900D02*
D03*
Y517500D02*
D03*
Y492100D02*
D03*
Y466700D02*
D03*
Y441300D02*
D03*
Y415900D02*
D03*
Y390500D02*
D03*
Y365100D02*
D03*
Y339700D02*
D03*
Y314300D02*
D03*
Y288900D02*
D03*
Y263500D02*
D03*
Y238100D02*
D03*
Y212700D02*
D03*
Y187300D02*
D03*
X1203250Y654600D02*
D03*
Y634300D02*
D03*
Y603800D02*
D03*
Y583500D02*
D03*
Y553000D02*
D03*
Y532700D02*
D03*
Y502200D02*
D03*
Y481900D02*
D03*
Y451400D02*
D03*
Y431100D02*
D03*
Y400600D02*
D03*
Y380300D02*
D03*
Y349800D02*
D03*
Y329500D02*
D03*
Y299000D02*
D03*
Y278700D02*
D03*
Y248200D02*
D03*
Y227900D02*
D03*
Y197400D02*
D03*
Y177100D02*
D03*
X1178250Y680000D02*
D03*
Y659700D02*
D03*
X1160750Y669900D02*
D03*
X1143250Y654600D02*
D03*
Y634300D02*
D03*
X1178250Y629200D02*
D03*
Y608900D02*
D03*
Y578400D02*
D03*
Y558100D02*
D03*
Y527600D02*
D03*
Y507300D02*
D03*
Y476800D02*
D03*
Y456500D02*
D03*
Y426000D02*
D03*
Y405700D02*
D03*
Y375200D02*
D03*
Y354900D02*
D03*
Y324400D02*
D03*
Y304100D02*
D03*
Y273600D02*
D03*
Y253300D02*
D03*
Y222800D02*
D03*
Y202500D02*
D03*
X1143250Y603800D02*
D03*
Y583500D02*
D03*
Y553000D02*
D03*
Y532700D02*
D03*
Y502200D02*
D03*
Y481900D02*
D03*
Y451400D02*
D03*
Y431100D02*
D03*
Y400600D02*
D03*
Y380300D02*
D03*
Y349800D02*
D03*
Y329500D02*
D03*
Y299000D02*
D03*
Y278700D02*
D03*
Y248200D02*
D03*
Y227900D02*
D03*
Y197400D02*
D03*
Y177100D02*
D03*
X1160750Y644500D02*
D03*
Y619100D02*
D03*
Y593700D02*
D03*
Y568300D02*
D03*
Y542900D02*
D03*
Y517500D02*
D03*
Y492100D02*
D03*
Y466700D02*
D03*
Y441300D02*
D03*
Y415900D02*
D03*
Y390500D02*
D03*
Y365100D02*
D03*
Y339700D02*
D03*
Y314300D02*
D03*
Y288900D02*
D03*
Y263500D02*
D03*
Y238100D02*
D03*
Y212700D02*
D03*
Y187300D02*
D03*
X1209650Y67050D02*
D03*
Y98050D02*
D03*
Y129050D02*
D03*
X1189650Y67050D02*
D03*
X1169650D02*
D03*
X1149650D02*
D03*
X1189650Y98050D02*
D03*
X1169650D02*
D03*
X1149650D02*
D03*
X1189650Y129050D02*
D03*
X1169650D02*
D03*
X1149650D02*
D03*
X1209650Y728050D02*
D03*
Y759050D02*
D03*
Y790050D02*
D03*
X1189650Y728050D02*
D03*
X1169650D02*
D03*
X1149650D02*
D03*
X1189650Y759050D02*
D03*
X1169650D02*
D03*
X1149650D02*
D03*
X1189650Y790050D02*
D03*
X1169650D02*
D03*
X1149650D02*
D03*
D154*
X1066800Y810260D02*
D03*
Y48260D02*
D03*
X152400D02*
D03*
Y810260D02*
D03*
D155*
X623750Y813250D02*
D03*
M02*
