M48
;Layer_Color=9474304
;FILE_FORMAT=4:4
METRIC,LZ
;TYPE=PLATED
T1F00S00C0.2500
T2F00S00C0.6000
T3F00S00C0.9000
T4F00S00C1.2000
T5F00S00C2.2000
T6F00S00C3.8000
%
T01
X00021832Y00103334
X00050569
X00064937Y00117702
X00079306Y00103334
X00093674Y00117702
X00108042Y00103334
X00122411Y00117702
X0019177Y0009144
X0022606Y0009271
X0022098Y0007874
X00237358Y00103334
X0024892Y0009398
X00266095Y00103334
X00280463Y00117702
X0027432Y0013716
X00271475Y00158496
X00260985Y00150139
X002413Y00148895
X0021971
X0020955Y001397
X00206705Y00158496
X0017907Y0015748
X0018288Y0016637
X0025146Y001651
X0026924Y0006223
X003175
X0030988Y0003048
X00294832Y00103334
X003092Y00117702
X00306166Y00157497
Y00167496
X00316166
Y00157497
X00326166
Y00167496
X00336166
Y00157497
X00346166
Y00167496
X00356166
Y00157497
X00366166
Y00167496
X00376166
Y00157497
X00386166
Y00167496
X00396166
Y00157497
X00406166
Y00167496
X00416166
Y00157497
X00409779Y00117702
X00395411Y00103334
X00424147
X00452884
X00438516Y00117702
X00467253
X00495989
X00481621Y00103334
X005822
X00596568Y00117702
X00625305
X00610937Y00103334
X00625305Y00146439
X00666501Y00084684
X00683179Y00094517
X007112Y0008763
X00712015Y0010754
X0071628Y0006858
X00746455
X00753565Y0010104
X0076215Y0011404
X0077216Y001143
X0077597Y000889
X00937723Y00082002
X00944908Y00089186
X00959276
X00952092Y00096371
X0096646
X00973645Y00089186
X00988013
X01002381
X0101675
X01031118
X01023934Y00082002
X01038302
X01045487Y00089186
X01059855
X01074223
X01031118Y00074818
X01023934Y00067634
Y00053265
Y00038897
X01031118Y00031713
X01023934Y00024529
X01038302
X01045487Y00017344
X01031118
X0101675
X01009566Y00024529
Y00038897
X0101675Y00031713
Y00046081
Y0006045
Y00074818
X01009566Y00082002
Y00067634
Y00053265
X01002381Y0006045
Y00074818
X00988013
X00995197Y00082002
X00980829
Y00096371
X00995197
Y00112224
X00980829
X00988013Y00119408
Y00133776
X00995197Y00126592
Y0014096
X00988013Y00148145
X01002381
Y00162513
X00988013
X00995197Y00155329
X00980829
X00973645Y00162513
Y00148145
Y00133776
Y00119408
X0096646Y00126592
Y0014096
X00952092
X00959276Y00148145
X00952092Y00155329
X0096646
X00959276Y00162513
X00944908
Y00148145
Y00133776
X00959276
X00952092Y00126592
X00959276Y00119408
X00952092Y00112224
X0096646
X00944908Y00119408
X00937723Y00126592
Y0014096
Y00155329
Y00112224
Y00096371
X00952092Y00082002
X0096646
X00973645Y00074818
Y0006045
X00980829Y00067634
X00995197
X00988013Y0006045
X00995197Y00053265
X00988013Y00046081
X00995197Y00038897
X00988013Y00031713
X00995197Y00024529
X00980829
Y00038897
X00973645Y00031713
Y00046081
X00980829Y00053265
X0096646
Y00067634
X00959276Y0006045
X00952092Y00067634
X00959276Y00074818
X00944908
Y0006045
X00937723Y00067634
Y00053265
X00952092
X00959276Y00046081
Y00031713
X00952092Y00038897
Y00024529
X0096646
Y00038897
X00944908Y00031713
Y00046081
X00937723Y00038897
Y00024529
X00944908Y00017344
X00959276
X00973645
X00988013
X01002381
Y00031713
Y00046081
Y00133776
X01009566Y00126592
Y0014096
Y00155329
X0101675Y00148145
X01031118
X01023934Y0014096
Y00126592
X0101675Y00133776
Y00162513
X01031118
X01023934Y00155329
X00980829Y0014096
Y00126592
X0110296Y00074818
X01117329
X01131697
Y0006045
X01138881Y00067634
Y00053265
X01146066Y00046081
X01160434
Y00031713
X0115325Y00038897
Y00024529
X01167618
Y00038897
X01174802Y00031713
Y00046081
X01189171
X01203539
Y00031713
X01210723Y00038897
Y00024529
X01225092
Y00038897
X01217908Y00031713
X01232276
X0123946Y00038897
Y00024529
X01253829
Y00038897
X01246644Y00031713
Y00046081
X01253829Y00053265
Y00067634
X01246644Y0006045
Y00074818
X01232276
X01217908
X01225092Y00067634
X01217908Y0006045
X01232276
X0123946Y00067634
Y00053265
X01232276Y00046081
X01217908
X01225092Y00053265
X01210723
X01196355
X01181987
Y00038897
Y00024529
X01196355
Y00038897
X01189171Y00031713
Y00017344
X01203539
X01217908
X01232276
X01246644
X01174802
X01160434
X01146066
X01138881Y00024529
Y00038897
X01146066Y00031713
X01131697
Y00046081
X01117329
X01124513Y00053265
Y00067634
X01117329Y0006045
X01110145Y00067634
Y00053265
Y00038897
Y00024529
X01124513
Y00038897
X01117329Y00031713
Y00017344
X01131697
X0110296
X01088592
X01095776Y00024529
X0110296Y00031713
X0115325Y00053265
X01167618
X01160434Y0006045
Y00074818
X01023934Y00169697
X01009566
X00995197
X00980829
X0096646
X00952092
X00937723
X00950468Y00244094
X00957326
X0091186Y00274574
X00901954Y00298704
X009017Y00323675
X00902383Y00354838
X00927862Y0035493
X00954278Y00359918
X00974943Y00357631
X00980439Y00352135
X00975844Y00331316
Y00323544
X00952246Y0038735
X00952126Y0039751
X0092833
X0092837Y0038735
X00928116Y00430022
X00902383Y00429931
X00901954Y00460423
X009017Y00485648
X0091186
X00856996
X0084689Y00485902
X0084709Y00461185
X00852881Y00434848
X0085344Y0041148
X0084328
X0083312
X0082296
X008128
X0081788Y0040132
X0082804
X008382
X0084836
X0084328Y0039116
X0083312
X0082296
X008128
X0081788Y00381
X0082804
X008382
X0084836
X0085344Y0039116
Y0037084
X0084328
X0083312
X0082296
X008128
X00766397Y00374904
Y0038989
X00774606Y00398544
Y00406316
X00766407Y00409966
X00766397Y00434848
X00766318Y00449834
X00766397Y00465074
X00741172Y0046482
Y00450748
X00741934Y00442722
X00741172Y00434696
Y00422402
X00741162Y00409966
X00740664Y0038989
X00741165Y0037493
X00741172Y0036322
X00742442Y00350266
X00742188Y00335026
X00766397Y00334772
Y00350012
X0075692Y00323675
Y00298704
X00733199Y00294153
X00706981Y003003
X0071501Y0032004
X00698015Y00321108
X00684955Y0030861
X00715264Y00339852
X00716026Y0039497
X006985Y00403352
X00716026Y00445008
Y004699
X00696848Y00486384
Y00502132
X00725345Y0049911
X00750395
X0073914Y00528925
X0073025Y00553113
X007112Y0055753
X00758753Y00549181
X0077216Y00539344
X00804336Y00520808
X00812109
X00801878Y00485648
X00791972Y00485902
X00792071Y00461185
X00817931Y00434848
X0087757Y00411175
Y00376225
X00846836Y00323675
X0084709Y00298704
X00859028Y00303022
X00824484Y00308356
X00802132Y00301752
X00791972Y00298704
Y00323675
X00801878Y00274066
X00733199Y00259202
X00733044Y00211836
X00733298Y00174498
X00749808Y00183051
X0077216Y00182289
X00954278Y00424942
X00959988Y0043337
Y00441143
X00958831Y00453544
Y00461316
X00843506Y00548424
X0083801Y0055392
X0064643Y0055753
X00625305Y00551096
Y00479254
X00610937Y00493622
X00596568Y00479254
X005822
X0055781Y00405593
X00529073
X00500336
X00471599
X00442863
X00414126
X00385389
X00356652
X00327915
X00299178
X0030826Y00358946
X00336996
X00365733
X0039447
X00423207
X00451944
X00480681
X00509417
X00538154
X00566891
X00595628
X00624365
X00653101
X00622216Y00324572
Y0025273
X00636584
X00625305Y00175176
X00425625Y00171244
X00416166Y00177496
X00406166
X00396166
X00386166
X00376166
X00366166
X00356166
X00346166
X00336166
X00326166
X00316166
X00306166
Y00187496
X00296166
X00286166
X00316166
X00326166
X00336166
X00346166
X00356166
X00366166
X00376166
X00386166
X00396166
X00406166
X00416166
X00414258Y00220595
X00424258
Y00230595
X00414258
Y00240595
X00424258
Y00250595
X00414258
X00404258
X00394258
Y00240595
Y00230595
X00404258
Y00240595
Y00220595
X00394258
X00404258Y00260595
Y00270595
Y00280595
Y00290595
X00414258
Y00280595
X00424258
Y00290595
Y00270595
X00414258
Y00260595
X00424258
X00438516Y0031886
X00467253
X00495989
X00524726
X00615283Y00405593
X00481621Y00479254
X00467253Y00493622
X00495989
X00438516
X00424147Y00479254
X00452884
X00395411
X00409779Y00493622
X00405001Y00534687
Y00544686
X00395001
Y00534687
X00385001
Y00544686
X00375001
X00365001
Y00534687
X00375001
X00355001
Y00544686
X00345001
Y00534687
X00335001
Y00544686
X00325001
X00315001
Y00534687
X00325001
Y00554686
X00315001
X00305001
Y00544686
Y00564686
X00295001
X00285001
X00315001
X00325001
X00335001
Y00554686
X00345001
Y00564686
X00355001
Y00554686
X00365001
X00375001
Y00564686
X00365001
X00385001
Y00554686
X00395001
Y00564686
X00405001
Y00554686
X00415001
Y00544686
Y00534687
Y00564686
X00298211Y00530779
X003092Y00493622
X00294832Y00479254
X003092Y0031886
X00337937
X00334784Y00267634
X00324784
X00314783
X00304783
X00294784
X00284784
Y00257633
Y00247633
Y00237634
Y00227634
X0030861Y002159
X00334784Y00217634
Y00227634
Y00237634
Y00247633
X00324784
Y00257633
X00314783
X00304783
X00294784
X00334784
X00344784Y00217634
X00274784
Y00227634
Y00237634
Y00247633
Y00257633
Y00267634
X0026035Y0025019
X0026797Y0023241
X00261706Y00214935
X00235037Y00210735
Y00224877
X00227966Y00217806
X00220895Y00224877
X00213824Y00217806
Y00203664
X00227966
X00197485Y0019083
X0018034Y001778
X0017145Y00180035
X0015748Y0017145
X00155702Y00190472
X0013208Y0018034
Y0021082
Y0021971
X0011176Y0022032
Y0020701
Y0023368
X0009144Y0024384
X0009906Y0026162
X00093674Y0031886
X00122411
X00151148
X0016383Y0034925
X0013335
X0010922
X0011811Y0036703
X0014351
X0013843Y0041656
X0016256
X0018923
X00212968Y00405593
X00241705
X00270442
X00279523Y00358946
X00250786
X00251727Y0031886
X00280463
X0022479Y0029337
X002286Y0024765
X0022225Y0024257
X0021463Y0024765
X0020574Y0023368
X00176209Y00235075
X001778Y0026162
Y0027051
X0016891Y002794
Y0028956
X0024511Y0026162
X0024257Y0023876
X00266166Y00187496
X00276166
X00275895Y00174244
X0021336Y0035306
X0022225Y0045593
X00237358Y00479254
X0025019Y0046736
X00266095Y00479254
X00280463Y00493622
X0027178Y0051308
X00271475Y00534416
X00275895Y00550164
X00275001Y00564686
X00265001
X0025146Y0054102
X002413Y00524815
X0022987Y0051689
X0021971Y00524815
X0019812
X0018669Y0051435
X0016383Y0053467
X0017145Y00557225
X0013208Y0055372
X00122411Y00493622
X00093674
X00108042Y00479254
X00079306
X00050569
X00064937Y00493622
X00021832Y00479254
X00028575Y00406052
Y00389288
X00006477
Y00406052
X00052197
Y00389288
X0008001Y0036703
Y0034925
X00064937Y0031886
X000362
X00028575Y00219202
Y00202438
X00006477
Y00219202
X00052197
Y00202438
X0008128Y0041656
X0010922
X0011176Y0058293
Y0059624
Y006096
X0010922Y0062357
X0009906Y0063754
X00093674Y0069478
X00122411
X00151148
X0016891Y0066548
X0017018Y0065532
X001778Y0064643
Y0063627
X0017272Y00610994
X0020193Y0061087
X0021717Y0061849
X0022225Y0062484
X0023495Y006223
X0024384Y0061595
X00254Y0060833
X00274784Y00604824
Y00594823
X0026162Y00590855
X00235037Y00586655
X00227966Y00593726
X00220895Y00586655
Y00600797
X00235037
X00213824Y00593726
Y00579584
X00227966
X0024511Y0063754
X0026162Y0062611
X00274784Y00624823
Y00614824
Y00634823
Y00644824
X00280463Y0069478
X00251727
X0022606Y0066929
X0024384Y00753415
X00252425Y00763016
X00262382Y00760907
X0025527Y007747
X00258575Y00782726
X0023495Y0077851
X0021336Y00767385
Y00830275
X0024384
X0028194Y0079121
Y0077089
X002791Y00747525
X0011303Y0072898
X0008763
X0008956Y00742285
X0009906Y00762335
X0010541Y0079502
X00052197Y00803163
Y00786399
X00028575
Y00803163
X00006477
Y00786399
X000362Y0069478
X00064937
X00052197Y00595122
Y00578358
X00028575
Y00595122
X00006477
Y00578358
X0013208Y0059563
X00155702Y00566392
X00284784Y00594823
Y00604824
Y00614824
Y00624823
Y00634823
Y00644824
X00294784
X00304783
Y00634823
X00294784
Y00624823
X00314783Y00634823
Y00644824
X00324784
Y00634823
Y00624823
X00334784
Y00614824
Y00604824
Y00594823
X00344784
X0030861Y0059182
X00334784Y00634823
Y00644824
X00337937Y0069478
X003092
X0031115Y0075692
X0030226Y0077089
X002921Y0078105
X0030226Y0079121
X003048Y0081534
X00296756Y00813652
X00311096Y0082042
X0032385Y0081915
X0032512Y0078359
Y007747
Y00768163
X00359155Y0077089
X00376045Y0081915
X00420878Y00782574
Y00748284
X0045212Y00743255
X0048768Y00735635
X00496265Y00745236
X0050451Y00741983
X00504955Y0075423
X0050292Y0076327
X0047879Y0076073
X0048768Y00811225
X0045212Y00806145
X0054102Y0079502
X0055118Y0079375
X0056134Y0078232
X0057023Y0077978
X0058039Y0077724
X00572005Y00762406
X0057277Y0075438
X00572005Y00746354
X005588Y0073406
X0054864Y0075057
X0053848Y0076073
X0052832Y0075057
Y0077089
X0054864
X0055499Y0081407
X00607185
X0062375Y0081325
X0060525Y00791
X00641Y007875
X00608075Y0075311
X00625305Y0069478
Y00666043
Y00637306
X0066802Y0064008
X0067691
X00524726Y0069478
X00495989
X00467253
X00438516
X00424258Y00666515
X00414258
Y00656515
X00424258
Y00646515
X00414258
X00404258
Y00636515
Y00626515
X00394258
Y00616515
Y00606515
Y00596515
X00404258
Y00606515
Y00616515
X00414258
Y00606515
X00424258
Y00616515
Y00626515
X00414258
Y00636515
X00424258
X00404258Y00656515
Y00666515
X00414258Y00596515
X00424258
X00450675Y00608124
X0051943Y00734454
X0069977Y007239
X0071075Y00712
X00719585Y0071262
X0074295Y0071628
X0075311Y0070612
X0076327Y0071628
Y0069596
X0074295
X0075311Y00672595
X0076611
X00768604Y00663905
X0075961Y00665883
X00778205Y0065532
X0077851Y00614375
X0075565Y0061468
X0072263
X0068961Y0060071
X0069596Y0066167
X00702615Y0065532
X007025Y006775
X007295Y007305
X007345Y007405
X0075057Y0073914
X0075946
X0077089
X0078613Y0071882
X00786635Y0069312
X0081026Y00674675
Y00737565
X00795325Y0076454
Y007874
Y0081026
Y0083312
X00833725Y0082296
Y0077724
X0085979Y0078486
X0085725Y0076581
X00880775Y0077724
X0090551Y0078613
X00905815Y008001
X0091821Y00814575
X0094361Y0081407
X0093599Y008001
X0093091Y00839625
X0090551
X00880775Y0082296
X00993604Y00817397
X01000788Y00810213
X01015156
X0102234Y00817397
X01029525Y00810213
Y00824581
Y0083895
X0102234Y00831766
X01015156Y0083895
X01007972Y00803029
X0102234
X01029525Y00795845
X01036709Y0078866
Y00774292
X01051077
X01043893Y00781476
X01029525
X0102234Y00774292
Y0078866
X01007972
X01015156Y00795845
X01000788
Y00781476
X01015156
X01007972Y00774292
X01000788Y00767108
X00993604Y00774292
Y0078866
Y00803029
Y00759924
X00992732Y0074167
Y00727302
X00999916Y00734486
X00985548
X00978363Y00727302
Y0074167
Y00712934
X00985548Y00720118
X00999916
X00992732Y00712934
X010071
Y00727302
X01014285Y00734486
Y00720118
X01021469Y00712934
X01035837
X01021469Y00727302
X01051077Y00759924
X0096774Y0076327
X0094361Y00760575
X009652Y0069342
X0095631Y0065278
X0099187Y0066675
X01012495Y0065532
X01047445
X0104902Y0064389
X0107315Y0065659
X01065784Y00617728
X01059434Y00611378
X0103759Y005969
X0102743
X01000445Y0061778
X00969144Y00609453
X00918652Y00618291
X0090678Y0065151
X0089535Y006858
X0088392Y0067945
X00762Y00774445
X0069977Y00776095
X00738734Y00575975
X0109347Y0059944
X01108551Y00759924
X01122919
X01130104Y00767108
Y00781476
X01122919Y00774292
Y0078866
X01108551
X01115735Y00795845
X01108551Y00803029
X01122919
Y00817397
X01130104Y00810213
X01137288Y00817397
X01151656
X01144472Y00810213
X0115884
X01166024Y00817397
X01180393
X01173209Y00810213
X01187577
X01194761Y00817397
X01201946Y00810213
X01216314
X0120913Y00817397
X01223498
X01230682Y00810213
X01237867Y00817397
X01252235
X01245051Y00810213
X01252235Y00803029
X01245051Y00795845
X01252235Y0078866
X01245051Y00781476
X01237867Y0078866
Y00803029
X01230682Y00795845
Y00781476
X01223498Y0078866
Y00803029
X0120913
X01194761
X01180393
X01166024
X0115884Y00795845
Y00781476
X01137288Y0078866
Y00803029
X01151656
X01144472Y00824581
X0115884
X01173209
X01187577
X01201946
X01216314
X0120913Y00831766
X01223498
X01237867
X01252235
X01245051Y0083895
Y00824581
X01230682
Y0083895
X01216314
X01201946
X01194761Y00831766
X01187577Y0083895
X01173209
X01180393Y00831766
X01166024
X0115884Y0083895
X01144472
X01151656Y00831766
X01137288
X01130104Y0083895
Y00824581
X01122919Y00831766
X01108551
X01115735Y0083895
X01101367
X01115735Y00824581
Y00810213
X01108551Y00817397
X01130104Y00795845
X01115735Y00781476
X01108551Y00774292
X01115735Y00767108
X01101367
Y00781476
X01094182Y00774292
X01201946Y00781476
X01216314
T02
X0114965Y0006705
X0116965
X0118965
X0120965
Y0009805
X0118965
X0116965
X0114965
Y0012905
X0116965
X0118965
X0120965
X0120325Y001771
Y001974
X0122075Y001873
Y002127
Y002381
Y002635
Y002889
Y003143
Y003397
Y003651
Y003905
Y004159
Y004413
Y004667
Y004921
Y005175
Y005429
X0120325Y00553
Y005327
X0117825Y005276
Y005073
X0116075Y005175
Y005429
X0114325Y00553
Y005327
Y005022
Y004819
X0116075Y004921
Y004667
Y004413
Y004159
Y003905
Y003651
Y003397
Y003143
Y002889
Y002635
Y002381
Y002127
Y001873
X0114325Y001974
Y001771
Y002279
Y002482
Y002787
Y00299
Y003295
Y003498
Y003803
Y004006
Y004311
Y004514
X0117825Y004565
Y004768
X0120325Y004819
Y005022
X0123825Y005073
Y005276
Y005581
X0117825
X0120325Y004514
Y004311
X0117825Y00426
Y004057
X0120325Y004006
Y003803
X0117825Y003752
Y003549
X0120325Y003498
Y003295
X0117825Y003244
Y003041
X0120325Y00299
Y002787
X0117825Y002736
Y002533
X0120325Y002482
Y002279
X0117825Y002228
Y002025
X0123825
Y002228
Y002533
Y002736
Y003041
Y003244
Y003549
Y003752
Y004057
Y00426
Y004565
Y004768
Y005784
X0122075Y005683
Y005937
Y006191
Y006445
Y006699
X0123825Y0068
Y006597
Y006292
Y006089
X0120325Y006038
Y005835
X0117825Y005784
X0116075Y005683
Y005937
Y006191
Y006445
Y006699
X0117825Y0068
Y006597
X0120325Y006546
Y006343
X0117825Y006292
Y006089
X0114325Y006038
Y005835
Y006343
Y006546
X0114965Y0072805
X0116965
X0118965
X0120965
Y0075905
X0118965
X0116965
X0114965
Y0079005
X0116965
X0118965
X0120965
T03
X0097917Y0082931
X0100457
T04
X00017526Y00198628
X00039624
Y00223012
X00017526
Y00385478
X00039624
Y00409862
X00017526
Y00574548
X00039624
Y00598932
X00017526
Y00782589
X00039624
Y00806973
X00017526
T05
X0002794Y0014859
X001651Y0011557
X003556
X005461
X0062611Y002159
X005715Y003175
X00381
X003556Y0049149
X005461
X001651
X0002794Y0052451
Y0027432
X001905Y003175
Y0069342
X0002794Y0065024
X00381Y0069342
X005715
X0062611Y0059182
T06
X001524Y0004826
X010668
X001524Y0081026
X010668
M30
